<?xml version="1.0" encoding="UTF-8"?>
<svg id="Capa_2" data-name="Capa 2" xmlns="http://www.w3.org/2000/svg" viewBox="0 0 820.02 457.05">
  <defs>
    <style>
      .cls-1 {
        fill: #fff;
      }

      .cls-2 {
        fill: #c0c1bf;
      }

      .cls-3, .cls-4 {
        fill: #ceb589;
      }

      .cls-4 {
        opacity: .22;
      }

      .cls-5 {
        fill: #e59055;
      }

      .cls-6 {
        fill: #b6b7b6;
      }

      .cls-7 {
        fill: #737d7f;
      }

      .cls-8 {
        fill: #788990;
      }

      .cls-9 {
        fill: #af431c;
      }

      .cls-10 {
        fill: none;
        stroke: #fff;
        stroke-miterlimit: 10;
        stroke-width: .77px;
      }

      .cls-11 {
        fill: #97b286;
      }
    </style>
  </defs>
  <g id="Capa_1-2" data-name="Capa 1">
    <g>
      <g>
        <path d="M198.96,209.81l-.25,.04,.11,.79c.05-.28,.09-.55,.14-.83Z"/>
        <path class="cls-8" d="M604.06,272.93c-6.74-7.03-13.37-14.34-21.02-20.27-21.49-16.65-47.7-17.71-69.13-1.14-15.36,11.88-29.23,25.87-42.79,39.86-20.7,21.37-39.93,44.17-63.89,62.22-33.61,25.32-70.81,36.43-112.79,29.18-20.46-3.53-38.37-9.54-55.52-22.99h0s-1.05,.69-.93,1.23c0,0,0,.03,.02,.06,22.46,35.83,53.15,61.97,91.43,80.05,14.71,6.95,27.2,5.22,40.91-1.48,25.84-12.62,46.82-31.21,66.45-51.66,18.77-19.56,36.97-39.7,56.41-58.58,12.34-11.98,27.03-21.08,44.82-23.26,19.27-2.36,36.46,3.14,52.12,14.21l.13,.09c3.41,2.39,8.18,.69,9.27-3.33,3.32-12.31,7.92-22.7,10.07-34.74,.4-2.22-3.91-7.74-5.55-9.45Z"/>
        <path class="cls-11" d="M490.89,358.55c-48.09,59.58-89.68,85.22-104.63,93.19-1.6,.85-1.17,3.24,.63,3.48,39.32,5.3,140.78,6.51,199.67-106.44,2.05-3.93,.6-8.86-3.35-10.86-55.57-28.11-92.32,20.62-92.32,20.62Z"/>
        <path class="cls-9" d="M610.11,246.28c-12.87-20.08-78.02-66.76-91.57-86.41-1.15-1.69-3.58-1.86-4.96-.35-9.25,10.09-18.46,20.13-27.73,30.24-2.6,2.83-7.14,2.68-9.51-.35-18.75-23.98-38.33-44.07-47.19-56.93-.13-.14-.24-.29-.35-.44-.16-.13-.32-.25-.49-.38-.04-.04-.07-.1-.11-.14l-8.26-4.87c-.09,.19,.07-.2-.03-.02,.2,.75,.43-.52,0,0l-2.02,6.19,1.04-.06c-1.56,0-3.1-.44-4.41-1.29-1.03-.66-1.81-1.22-1.98-1.05-23.38,24.92-33.57,52.38-54.19,78.37-2.5,3.16-7.26,3.32-9.95,.33-8.73-9.68-23.26-22.09-23.86-21.45-20.02,21.35-34.52,44.32-53.73,66.38-9.26,10.64-18.5,17.02-32.87,12.98-4.88-1.37-8.03,.63-10.5,5.14l-3.56,6.47c-.59,1.25-1.18,2.5-1.78,3.74-.23,.48-.47,.93-.72,1.35-4.88,8.48-6.58,18.43-3.67,27.77,2.52,8.09,5.67,16.97,9.57,26.26,2.41,5.73,7.1,10.23,12.9,12.46l.12,.04c28.93,11.15,90.2,27.07,148.4-7.41,43.98-24.16,71.06-67.56,99.85-96.45,6.01-6.03,12.62-11.48,20.05-15.63,15.33-8.55,36.11-14.16,59.27-4.32,4.99,2.12,9.55,5.18,13.56,8.83l25.58,23.24c1.51,1.27,3.31-1.11,3.07-3.07v-9.2Z"/>
        <path class="cls-5" d="M417.27,133.84c-.36,8.57-1.54,44.03-5.56,59-12.51,46.61-80.73,87.51-127.56,99.15-55.84,13.88-61.17,32.43-57.74,44.02,1.8,6.07,6.44,10.88,12.25,13.41,19.44,8.48,56.19,20.67,100.19,12.88,57.43-10.16,90.56-49.69,89.85-50.79-.71-1.09-37.95,29.53-57.86,17.6-6.31-3.78-8.59-10.46-9.2-12.27-4.6-13.49,2.57-30.74,18.56-43.76,2.17-1.76,4.34-3.52,6.35-5.46,11.04-10.68,32.78-35.4,39.52-73.49,5.27-29.81-2.03-55.37-6.14-67.49"/>
        <path class="cls-7" d="M334.16,74.32c-1.04,2.54-1.56,4.9-1.56,7.84,0,11.64,9.06,21.07,20.23,21.07,7.14,0,13.41-3.85,17.01-9.67,.88-1.42,2.71-1.72,4.01-.68,1.69,1.35,3.8,2.16,6.1,2.16,5.55,0,10.04-4.68,10.04-10.46v-.1c0-1.01,.74-1.88,1.75-2.02,3.17-.43,9.3-.6,10.3,4.4,1.06,5.3,7.92,26.33,10.86,35.28,.39,1.18,2.08,1.11,2.38-.09l2.15-8.61c.24-.96,1.6-.98,1.87-.03l3.81,13.07c.15,.53,.79,.25,.84-.3l2.04-25.51c.07-.85,1.29-.91,1.44-.07l1.45,8.23c.4,2.29,3.62,2.47,4.28,.24l3.14-10.68c.67-2.28,2.33-4.12,4.51-5.04,3.26-1.37,6.96-2.74,9.42-4.89,1.43-1.25,3.58-1.21,5.1-.07,2.99,2.26,6.66,3.59,10.63,3.59,1.79,0,3.51-.27,5.14-.77,2.04-.63,4.28,.18,5.48,1.94,3.3,4.84,8.72,8,14.85,8,10.05,0,18.2-8.49,18.2-18.95,0-.02,.18,.07,.45,.2-29.06-16.55-63.43-26.17-99.22-26.17-26.76,0-54.82,6.05-78.13,15.63,.82,.8,1.87,1.41,1.43,2.47Z"/>
        <g>
          <path class="cls-4" d="M419.95,126.66s0,.02,0,0c0,0,0,0,0,0Z"/>
          <path class="cls-3" d="M217.75,311.5c-2.92-9.34-1.21-19.29,3.67-27.77,.24-.42,.48-.87,.72-1.35,.59-1.25,1.18-2.5,1.77-3.74l3.56-6.47c2.48-4.51,5.62-6.51,10.5-5.14,14.36,4.04,23.61-2.34,32.87-12.98,19.2-22.06,33.7-45.03,53.73-66.38,.6-.64,15.13,11.77,23.86,21.45,2.7,2.99,7.45,2.83,9.95-.33,20.62-26,30.81-53.45,54.19-78.37,.16-.18,.95,.39,1.98,1.05,1.03,.66,2.2,1.07,3.41,1.22l1.97-6.06c.03-.06,.04-.05,.03-.03,.2-.21,.23,0,.19,.16l8.08,4.76s.07,.1,.11,.14c.16,.13,.32,.25,.49,.38,.12,.15,.22,.3,.35,.44,8.85,12.86,28.43,32.95,47.19,56.93,2.37,3.03,6.91,3.18,9.51,.35,9.27-10.11,18.48-20.16,27.73-30.24,1.38-1.51,3.81-1.34,4.96,.35,13.52,19.63,78.54,66.22,91.52,86.33-1.04-73.13-38.1-128.38-97.77-162.47,0,.07-2.79-1.44-2.79-1.37,0,10.47-8.15,18.95-18.2,18.95-6.13,0-11.55-3.16-14.85-8-1.2-1.76-3.44-2.57-5.48-1.94-1.63,.5-3.36,.77-5.15,.77-3.97,0-7.64-1.33-10.63-3.59-1.51-1.14-3.67-1.18-5.1,.07-2.45,2.15-6.16,3.52-9.42,4.89-2.19,.92-3.84,2.76-4.51,5.04l-3.14,10.68c-.66,2.23-3.87,2.05-4.28-.24l-1.45-8.23c-.15-.84-1.37-.78-1.44,.07l-2.04,25.51c-.04,.55-.69,.83-.84,.3l-3.81-13.07c-.27-.95-1.63-.93-1.87,.03l-2.15,8.61c-.3,1.21-1.99,1.28-2.38,.09-2.95-8.95-9.8-29.98-10.86-35.28-1-5-7.13-4.82-10.3-4.4-1,.13-1.75,1-1.74,2.02v.1c0,5.78-4.5,10.46-10.04,10.46-2.3,0-4.41-.8-6.1-2.16-1.3-1.04-3.14-.74-4.01,.68-3.6,5.81-9.87,9.67-17.01,9.67-11.17,0-20.23-9.43-20.23-21.07,0-2.94,.51-5.3,1.55-7.84,.44-1.06-.61-1.67-1.43-2.47-72.3,29.86-122.5,99.67-123.32,182.56-.17,17.27,3.03,36.88,7.85,54.98,.29,1.1,.63,2.18,1.01,3.24-.13-.42-.27-.85-.4-1.27Z"/>
          <path class="cls-4" d="M610.13,249.34c0-.17,0-3.34,0-3.08v3.07s0,.02,0,0Z"/>
        </g>
      </g>
      <g>
        <g>
          <path class="cls-1" d="M286.48,166.7c-2.5,1.13-3.41,2.04-4.54,4.54-1.13-2.5-2.04-3.41-4.54-4.54,2.5-1.13,3.41-2.04,4.54-4.54,1.13,2.5,2.04,3.41,4.54,4.54Z"/>
          <path class="cls-10" d="M286.48,166.7c-2.5,1.13-3.41,2.04-4.54,4.54-1.13-2.5-2.04-3.41-4.54-4.54,2.5-1.13,3.41-2.04,4.54-4.54,1.13,2.5,2.04,3.41,4.54,4.54Z"/>
        </g>
        <g>
          <path class="cls-1" d="M289.94,188.45c-2.5,1.13-3.41,2.04-4.54,4.54-1.13-2.5-2.04-3.41-4.54-4.54,2.5-1.13,3.41-2.04,4.54-4.54,1.13,2.5,2.04,3.41,4.54,4.54Z"/>
          <path class="cls-10" d="M289.94,188.45c-2.5,1.13-3.41,2.04-4.54,4.54-1.13-2.5-2.04-3.41-4.54-4.54,2.5-1.13,3.41-2.04,4.54-4.54,1.13,2.5,2.04,3.41,4.54,4.54Z"/>
        </g>
        <g>
          <path class="cls-1" d="M268.4,177.17c-2.5,1.13-3.41,2.04-4.54,4.54-1.13-2.5-2.04-3.41-4.54-4.54,2.5-1.13,3.41-2.04,4.54-4.54,1.13,2.5,2.04,3.41,4.54,4.54Z"/>
          <path class="cls-10" d="M268.4,177.17c-2.5,1.13-3.41,2.04-4.54,4.54-1.13-2.5-2.04-3.41-4.54-4.54,2.5-1.13,3.41-2.04,4.54-4.54,1.13,2.5,2.04,3.41,4.54,4.54Z"/>
        </g>
        <g>
          <path class="cls-1" d="M266.42,205.79c-2.5,1.13-3.41,2.04-4.54,4.54-1.13-2.5-2.04-3.41-4.54-4.54,2.5-1.13,3.41-2.04,4.54-4.54,1.13,2.5,2.04,3.41,4.54,4.54Z"/>
          <path class="cls-10" d="M266.42,205.79c-2.5,1.13-3.41,2.04-4.54,4.54-1.13-2.5-2.04-3.41-4.54-4.54,2.5-1.13,3.41-2.04,4.54-4.54,1.13,2.5,2.04,3.41,4.54,4.54Z"/>
        </g>
      </g>
    </g>
    <g id="_2umcli.tif" data-name="2umcli.tif">
      <g>
        <path class="cls-2" d="M755.55,97.75c-17.31,23.79-34.26,47.03-51.11,70.35-2.07,2.87-3.52,6.18-5.98,10.58h108.32c-3.28-5.86-6.14-11.97-8.87-18.14-13.25-21.5-27.47-42.39-42.36-62.8Z"/>
        <path class="cls-2" d="M755.55,97.75c-17.31,23.79-34.26,47.03-51.11,70.35-2.07,2.87-3.52,6.18-5.98,10.58h108.32c-3.28-5.86-6.14-11.97-8.87-18.14-13.25-21.5-27.47-42.39-42.36-62.8Z"/>
      </g>
    </g>
    <g id="bjrRuo.tif">
      <g>
        <path class="cls-2" d="M718.21,404.63c3.4,.39,6.57,1.04,9.73,1.05,8.38,.04,16.76-.28,25.14-.32,11.4-.05,22.8,.02,34.2,.03,10.48,0,20.97,0,31.81,0,.22-3.59,.39-6.37,.57-9.15,.14-2.21-.62-3.34-3.1-3.38-13.76-.2-27.51-.66-41.27-.75-9.8-.07-19.6,.36-29.4,.46-5.47,.05-10.95-.17-16.42-.19-11.07-.05-12.92-1.13-11.26,12.24Zm20.82-42.04v.61c-5.64,0-11.28-.19-16.89,.13-1.42,.08-3.59,1.48-3.99,2.73-2.44,7.63-.59,10,7.37,10.15,.28,0,.56,0,.85-.01,11.53-.09,23.06-.18,34.59-.28,18.08-.16,36.16-.53,54.24-.35,4.4,.04,5.06-1.67,4.76-5.15-.11-1.26,.17-2.66-.29-3.76-.5-1.19-1.59-2.96-2.53-3.02-6.94-.46-13.91-.67-20.87-.72-6.6-.05-13.21,.3-19.82,.25-6.29-.04-12.58-.45-18.88-.55-6.18-.1-12.36-.02-18.54-.02Z"/>
        <path class="cls-2" d="M718.21,404.63c-1.66-13.37,.2-12.29,11.26-12.24,5.47,.02,10.95,.24,16.42,.19,9.8-.1,19.6-.53,29.4-.46,13.76,.09,27.51,.55,41.27,.75,2.49,.04,3.24,1.17,3.1,3.38-.18,2.78-.35,5.56-.57,9.15-10.85,0-21.33,0-31.81,0-11.4,0-22.8-.09-34.2-.03-8.38,.04-16.76,.35-25.14,.32-3.17-.01-6.33-.66-9.73-1.05Z"/>
        <path class="cls-2" d="M739.04,362.59c6.18,0,12.36-.08,18.54,.02,6.29,.1,12.58,.51,18.88,.55,6.6,.05,13.21-.31,19.82-.25,6.96,.05,13.93,.27,20.87,.72,.93,.06,2.03,1.83,2.53,3.02,.46,1.1,.19,2.5,.29,3.76,.3,3.48-.36,5.19-4.76,5.15-18.08-.18-36.16,.19-54.24,.35-11.53,.1-23.06,.19-34.59,.28-.28,0-.56,.02-.85,.01-7.95-.15-9.8-2.53-7.37-10.15,.4-1.25,2.57-2.65,3.99-2.73,5.61-.31,11.26-.13,16.89-.13v-.61Z"/>
      </g>
    </g>
    <g id="KExiSR.tif">
      <path class="cls-2" d="M14.12,236.3c7.58,2.24,14.49,4.28,21.46,6.34,3.44-6.81,6.61-13.08,10.22-20.22,3.61,7.2,6.85,13.63,10.16,20.23,6.86-2.19,13.85-4.42,21.91-6.99-2.78,8.02-5.12,14.79-7.5,21.66,6.9,3.4,13.41,6.61,21.03,10.36-7.44,3.57-14.02,6.74-20.75,9.97,2.28,7,4.47,13.71,7.12,21.87-8.01-2.68-14.77-4.95-21.89-7.33-3.23,6.59-6.44,13.15-10.18,20.77-3.05-6.25-5.59-11.27-7.97-16.36-1.56-3.33-2.97-5.09-7.22-2.79-4.76,2.57-10.21,3.87-16.94,6.3,2.85-8.34,5.16-15.11,7.69-22.51-6.74-3.11-13.42-6.2-21.26-9.81,4.32-2.14,7.67-3.85,11.06-5.47,2.71-1.3,5.72-2.16,8.1-3.9,.97-.71,1.22-3.41,.75-4.87-1.35-4.23-3.3-8.26-4.88-12.42-.48-1.25-.52-2.67-.91-4.84Z"/>
    </g>
    <g id="BDMtSK.tif">
      <path class="cls-2" d="M79.5,38.76c-3.55,0-7.11,.06-10.66-.03-1.32-.03-2.15,.34-2.48,1.64-1.29,5.15-2.6,10.29-3.87,15.44-.2,.83-.2,1.7-.36,2.54-.31,1.64-1.32,2.56-3.01,2.57-4.21,.03-8.42,.06-12.63,0-2.13-.03-2.8-.97-3.31-3.4-1.09-5.2-2.16-10.4-3.5-15.53-.86-3.29-1.08-3.23-4.47-3.23-6.32,0-12.63,.02-18.95,0-5.96-.02-10.45-3.47-11.34-8.66-1.02-5.91,1.83-10.5,7.79-12.68,.61-.23,1.18-.76,1.61-1.29,1.7-2.1,3.84-3.29,6.52-3.69,.7-.1,1.57-.63,1.93-1.23,2.11-3.51,5.13-5.1,9.2-4.96,.75,.03,1.65-.33,2.26-.8,2.5-1.95,5.25-2.55,8.35-2.07,.72,.11,1.67-.13,2.26-.55,5.24-3.78,10.76-3.76,15.88,.03,.58,.43,1.54,.62,2.27,.51,3.03-.45,5.71,.14,8.19,1.99,.71,.53,1.74,.88,2.62,.87,3.9-.02,6.82,1.52,8.88,4.86,.4,.64,1.31,1.02,2.05,1.4,1.89,.97,4.04,1.59,5.65,2.89,1.26,1.01,2.34,2.06,3.91,2.7,4.77,1.92,7.21,6.83,6.28,12.1-.82,4.62-4.93,8.31-9.82,8.52-3.74,.16-7.5,.03-11.25,.03,0,.01,0,.03,0,.04Z"/>
    </g>
    <path class="cls-1" d="M764.92,132.66c-14.14-13.92-6.32-18.85-7.3-43.88-.46-.78-.92-1.55-1.38-2.33-2.9,9.88-10.67,38.98-5.63,52.09,6.12,15.93,5.82,7.69,0,46.29l34.77-1.68s-5.3-35.58-20.45-50.49Z"/>
    <rect class="cls-6" x="4.89" y="76.68" width="341.5" height="1"/>
    <rect class="cls-6" x="3.89" y="205.68" width="259.61" height="1"/>
    <rect class="cls-6" x="408.5" y="202.68" width="400.84" height="1"/>
    <rect class="cls-6" x="554.73" y="342.68" width="259.61" height="1"/>
    <g>
      <path d="M9.01,107.67v-12.6h.5l9.25,11.88h-.3v-11.88h.61v12.6h-.5l-9.25-11.88h.31v11.88h-.61Z"/>
      <path d="M27.14,107.72c-.8,0-1.49-.15-2.07-.44s-1.02-.73-1.33-1.31-.47-1.3-.47-2.15v-5.49h.6v5.45c0,1.12,.29,1.96,.86,2.54,.58,.58,1.39,.86,2.43,.86,.74,0,1.39-.16,1.94-.48,.54-.32,.96-.76,1.25-1.34,.29-.58,.43-1.24,.43-2v-5.04h.59v9.34h-.58v-2.61l.07,.16c-.27,.77-.72,1.38-1.37,1.83s-1.43,.67-2.36,.67Z"/>
      <path d="M35.36,107.67v-13.36h.59v7.24l-.18,1.42,.16,1.42v3.28h-.58Zm4.61,.05c-.84,0-1.6-.19-2.27-.58-.67-.39-1.2-.94-1.59-1.67-.39-.72-.59-1.55-.59-2.48s.2-1.78,.59-2.48c.39-.71,.92-1.26,1.59-1.66,.67-.4,1.43-.59,2.27-.59s1.64,.2,2.33,.61,1.24,.96,1.64,1.67c.4,.7,.6,1.52,.6,2.46s-.2,1.74-.6,2.46c-.4,.71-.95,1.27-1.64,1.67s-1.47,.6-2.33,.6Zm-.02-.54c.76,0,1.44-.18,2.04-.53,.61-.35,1.08-.85,1.43-1.49s.52-1.36,.52-2.18-.17-1.56-.52-2.19-.83-1.12-1.43-1.47c-.61-.35-1.29-.52-2.04-.52s-1.45,.17-2.05,.52c-.6,.35-1.07,.84-1.42,1.47-.35,.63-.52,1.36-.52,2.19s.17,1.54,.52,2.18c.35,.64,.82,1.13,1.42,1.49,.6,.35,1.28,.53,2.05,.53Z"/>
      <path d="M51.15,107.72c-.92,0-1.74-.2-2.45-.6-.71-.4-1.27-.96-1.67-1.68-.41-.72-.61-1.54-.61-2.45s.19-1.74,.57-2.45c.38-.71,.9-1.27,1.57-1.67s1.42-.61,2.26-.61,1.57,.2,2.24,.59c.67,.4,1.19,.95,1.57,1.65,.38,.7,.57,1.51,.57,2.42v.16h-8.37v-.49h8.04l-.23,.29c0-.78-.16-1.48-.49-2.1s-.78-1.1-1.36-1.46c-.58-.35-1.23-.53-1.96-.53s-1.39,.18-1.96,.53c-.58,.35-1.03,.84-1.36,1.46s-.49,1.32-.49,2.12v.11c0,.82,.18,1.54,.54,2.17,.36,.63,.85,1.12,1.48,1.48,.62,.35,1.34,.53,2.14,.53,.61,0,1.19-.11,1.74-.34,.55-.23,1-.58,1.36-1.04l.38,.4c-.42,.5-.93,.88-1.54,1.14-.61,.26-1.25,.39-1.94,.39Z"/>
      <path d="M66.34,107.72c-.92,0-1.74-.2-2.45-.6-.71-.4-1.27-.96-1.67-1.68-.41-.72-.61-1.54-.61-2.45s.19-1.74,.57-2.45c.38-.71,.9-1.27,1.57-1.67s1.42-.61,2.26-.61,1.57,.2,2.24,.59c.67,.4,1.19,.95,1.57,1.65,.38,.7,.57,1.51,.57,2.42v.16h-8.37v-.49h8.04l-.23,.29c0-.78-.16-1.48-.49-2.1s-.78-1.1-1.36-1.46c-.58-.35-1.23-.53-1.96-.53s-1.39,.18-1.96,.53c-.58,.35-1.03,.84-1.36,1.46s-.49,1.32-.49,2.12v.11c0,.82,.18,1.54,.54,2.17,.36,.63,.85,1.12,1.48,1.48,.62,.35,1.34,.53,2.14,.53,.61,0,1.19-.11,1.74-.34,.55-.23,1-.58,1.36-1.04l.38,.4c-.42,.5-.93,.88-1.54,1.14-.61,.26-1.25,.39-1.94,.39Z"/>
      <path d="M73.3,107.67v-9.34h.58v2.57l-.05-.16c.25-.78,.69-1.39,1.32-1.83,.63-.44,1.42-.66,2.37-.66v.59h-.16c-1.08,0-1.93,.34-2.54,1.03-.61,.68-.92,1.63-.92,2.83v4.97h-.59Z"/>
      <path d="M84.05,107.72c-.8,0-1.49-.15-2.07-.44s-1.02-.73-1.33-1.31-.47-1.3-.47-2.15v-5.49h.6v5.45c0,1.12,.29,1.96,.86,2.54,.58,.58,1.39,.86,2.43,.86,.74,0,1.39-.16,1.94-.48,.54-.32,.96-.76,1.25-1.34,.29-.58,.43-1.24,.43-2v-5.04h.59v9.34h-.58v-2.61l.07,.16c-.27,.77-.72,1.38-1.37,1.83s-1.43,.67-2.36,.67Z"/>
      <path d="M92.27,111.16v-12.83h.58v3.28l-.16,1.42,.18,1.42v6.71h-.59Zm4.61-3.44c-.84,0-1.6-.19-2.27-.58-.67-.39-1.2-.94-1.59-1.66-.39-.71-.59-1.54-.59-2.48s.2-1.78,.59-2.49c.39-.71,.92-1.27,1.59-1.67,.67-.4,1.43-.59,2.27-.59s1.64,.2,2.33,.61,1.24,.97,1.64,1.67c.4,.71,.6,1.53,.6,2.47s-.2,1.74-.6,2.45c-.4,.71-.95,1.26-1.64,1.67s-1.47,.6-2.33,.6Zm-.02-.54c.76,0,1.44-.17,2.04-.52s1.08-.84,1.43-1.48c.35-.64,.52-1.36,.52-2.18s-.17-1.57-.52-2.2c-.35-.62-.83-1.11-1.43-1.47-.61-.35-1.29-.53-2.04-.53s-1.45,.18-2.05,.53c-.6,.35-1.07,.84-1.42,1.47-.35,.62-.52,1.36-.52,2.2s.17,1.54,.52,2.18c.35,.64,.82,1.13,1.42,1.48,.6,.35,1.28,.52,2.05,.52Z"/>
      <path d="M102.79,98.85v-.52h5.44v.52h-5.44Zm4.14,8.87c-.77,0-1.36-.22-1.76-.65-.41-.43-.61-1.01-.61-1.75v-9.05h.59v8.96c0,.64,.16,1.12,.47,1.46,.31,.34,.77,.5,1.37,.5s1.12-.19,1.51-.56l.31,.43c-.23,.22-.51,.38-.85,.49-.34,.11-.68,.16-1.03,.16Z"/>
      <path d="M111.73,95.88c-.16,0-.29-.06-.41-.18-.12-.12-.18-.25-.18-.4,0-.17,.06-.31,.18-.42,.12-.11,.26-.17,.41-.17,.17,0,.31,.06,.42,.17,.12,.11,.17,.25,.17,.41s-.06,.29-.17,.41c-.11,.12-.25,.18-.42,.18Zm-.29,11.79v-9.34h.59v9.34h-.59Z"/>
      <path d="M118.39,107.67l-4.27-9.34h.65l4.05,8.98h-.27l4.07-8.98h.63l-4.27,9.34h-.59Z"/>
      <path d="M127.54,107.72c-.71,0-1.31-.11-1.81-.32-.5-.22-.88-.53-1.14-.93-.26-.4-.4-.86-.4-1.38,0-.46,.11-.88,.32-1.27s.57-.7,1.07-.94c.5-.23,1.17-.35,2.01-.35h3.62v.49h-3.62c-1.02,0-1.74,.19-2.17,.58-.43,.38-.64,.87-.64,1.46,0,.66,.25,1.19,.74,1.58,.49,.39,1.18,.58,2.05,.58s1.58-.19,2.14-.58c.56-.39,.99-.95,1.28-1.67l.2,.4c-.24,.71-.67,1.28-1.29,1.71-.62,.43-1.41,.65-2.36,.65Zm3.47-.05v-2.18l-.02-.32v-3.55c0-.92-.25-1.63-.74-2.11-.49-.48-1.21-.72-2.14-.72-.68,0-1.31,.12-1.87,.35-.56,.23-1.05,.54-1.46,.91l-.32-.43c.45-.42,.99-.75,1.64-1s1.33-.37,2.03-.37c1.12,0,1.97,.29,2.57,.86,.59,.57,.89,1.41,.89,2.51v6.05h-.58Z"/>
    </g>
    <g>
      <path d="M7.48,189.59v-12.6h.61v12.04h7.38v.56H7.48Z"/>
      <path d="M20.11,189.65c-.71,0-1.31-.11-1.81-.32-.5-.22-.88-.53-1.14-.93-.26-.4-.4-.86-.4-1.38,0-.46,.11-.88,.32-1.27,.22-.39,.57-.7,1.07-.94,.5-.23,1.17-.35,2.01-.35h3.62v.49h-3.62c-1.02,0-1.74,.19-2.17,.58-.43,.38-.64,.87-.64,1.46,0,.66,.25,1.19,.74,1.58,.49,.39,1.18,.58,2.05,.58s1.58-.19,2.14-.58c.56-.39,.99-.95,1.28-1.67l.2,.4c-.24,.71-.67,1.28-1.3,1.71-.62,.43-1.41,.65-2.36,.65Zm3.47-.05v-2.18l-.02-.32v-3.55c0-.92-.25-1.63-.74-2.11-.49-.48-1.21-.72-2.14-.72-.68,0-1.31,.12-1.87,.35-.56,.23-1.05,.54-1.46,.91l-.32-.43c.44-.42,.99-.75,1.64-1,.65-.25,1.33-.37,2.03-.37,1.12,0,1.97,.29,2.57,.86,.59,.57,.89,1.41,.89,2.51v6.05h-.58Z"/>
      <path d="M38.13,189.66c-.92,0-1.78-.16-2.57-.48-.79-.32-1.48-.76-2.07-1.34s-1.04-1.25-1.37-2.03c-.32-.77-.49-1.62-.49-2.53s.16-1.75,.49-2.53c.32-.77,.78-1.45,1.37-2.02,.59-.58,1.28-1.02,2.07-1.34,.79-.32,1.65-.48,2.57-.48,.85,0,1.66,.14,2.41,.41,.76,.28,1.41,.7,1.96,1.26l-.38,.4c-.56-.54-1.18-.93-1.84-1.16-.67-.23-1.38-.35-2.13-.35-.84,0-1.62,.15-2.34,.44s-1.35,.71-1.88,1.23c-.53,.53-.95,1.14-1.24,1.85s-.44,1.47-.44,2.29,.15,1.59,.44,2.29,.71,1.32,1.24,1.84c.53,.53,1.16,.94,1.88,1.23s1.5,.44,2.34,.44c.76,0,1.47-.12,2.13-.35s1.28-.63,1.84-1.18l.38,.4c-.55,.56-1.21,.99-1.96,1.27-.76,.28-1.56,.42-2.41,.42Z"/>
      <path d="M45.44,189.59v-9.34h.58v2.57l-.05-.16c.25-.78,.69-1.39,1.32-1.83s1.42-.66,2.37-.66v.59h-.16c-1.08,0-1.93,.34-2.54,1.03-.61,.68-.92,1.63-.92,2.83v4.97h-.59Z"/>
      <path d="M56.18,189.65c-.8,0-1.49-.15-2.07-.44-.58-.29-1.02-.73-1.33-1.31-.31-.58-.47-1.3-.47-2.15v-5.49h.59v5.45c0,1.12,.29,1.96,.86,2.54,.58,.58,1.39,.86,2.43,.86,.74,0,1.39-.16,1.93-.48s.96-.76,1.25-1.34,.43-1.24,.43-2v-5.04h.59v9.34h-.58v-2.61l.07,.16c-.26,.77-.72,1.38-1.37,1.83-.65,.45-1.43,.67-2.36,.67Z"/>
      <path d="M63.22,189.59v-.41l6.55-8.6,.18,.2h-6.64v-.52h7.11v.41l-6.57,8.59-.23-.18h6.89v.52h-7.29Z"/>
      <path d="M81.4,189.65c-.86,0-1.64-.2-2.33-.6s-1.24-.96-1.64-1.67c-.4-.71-.6-1.53-.6-2.46s.2-1.75,.6-2.46c.4-.7,.95-1.26,1.64-1.67s1.47-.61,2.33-.61,1.6,.2,2.27,.59c.67,.4,1.2,.95,1.59,1.66,.39,.71,.58,1.54,.58,2.48s-.2,1.76-.58,2.48c-.39,.72-.92,1.28-1.59,1.67-.67,.39-1.43,.58-2.27,.58Zm.02-.54c.77,0,1.45-.18,2.05-.53,.6-.35,1.07-.85,1.42-1.49,.35-.64,.52-1.36,.52-2.18s-.17-1.56-.52-2.19c-.35-.63-.82-1.12-1.42-1.47-.6-.35-1.28-.52-2.05-.52s-1.43,.17-2.03,.52c-.6,.35-1.08,.84-1.43,1.47-.35,.63-.53,1.36-.53,2.19s.18,1.54,.53,2.18c.35,.64,.83,1.13,1.43,1.49,.6,.35,1.28,.53,2.03,.53Zm4.01,.49v-3.28l.16-1.42-.18-1.42v-7.24h.59v13.36h-.58Z"/>
      <path d="M93.68,189.65c-.92,0-1.74-.2-2.45-.6s-1.27-.96-1.67-1.68c-.41-.72-.61-1.54-.61-2.45s.19-1.74,.57-2.45,.9-1.27,1.57-1.67,1.42-.61,2.26-.61,1.58,.2,2.24,.59c.67,.4,1.19,.95,1.57,1.65s.57,1.51,.57,2.42v.16h-8.37v-.49h8.05l-.23,.29c0-.78-.17-1.48-.49-2.1-.33-.62-.78-1.1-1.36-1.46-.58-.35-1.23-.53-1.96-.53s-1.39,.18-1.96,.53c-.58,.35-1.03,.84-1.36,1.46s-.5,1.32-.5,2.12v.11c0,.82,.18,1.54,.54,2.17,.36,.63,.85,1.12,1.48,1.48,.62,.35,1.34,.53,2.14,.53,.61,0,1.19-.11,1.74-.34,.55-.23,1-.58,1.36-1.04l.38,.4c-.42,.5-.93,.88-1.54,1.14-.61,.26-1.25,.39-1.94,.39Z"/>
      <path d="M100.64,189.59v-13.36h.59v13.36h-.59Z"/>
      <path d="M113.28,189.66c-.92,0-1.8-.17-2.62-.5-.82-.33-1.45-.75-1.88-1.25l.32-.43c.41,.46,.99,.84,1.74,1.16,.75,.32,1.56,.48,2.42,.48s1.6-.12,2.16-.36,.98-.56,1.25-.96c.27-.4,.41-.85,.41-1.34,0-.58-.14-1.04-.43-1.39-.29-.35-.67-.62-1.14-.83s-.99-.37-1.55-.5-1.12-.27-1.69-.42c-.57-.15-1.09-.34-1.57-.58-.47-.23-.85-.56-1.13-.97-.28-.41-.42-.95-.42-1.61,0-.56,.15-1.09,.45-1.58s.77-.89,1.4-1.2c.64-.31,1.45-.46,2.45-.46,.68,0,1.36,.11,2.02,.31,.67,.21,1.23,.49,1.7,.84l-.27,.49c-.5-.37-1.06-.65-1.67-.83-.61-.18-1.2-.27-1.76-.27-.84,0-1.54,.12-2.1,.37-.56,.25-.97,.57-1.23,.98-.26,.41-.4,.86-.4,1.35,0,.59,.14,1.06,.43,1.4,.29,.35,.67,.62,1.14,.83,.47,.2,.99,.37,1.56,.5,.56,.13,1.13,.27,1.69,.42,.56,.15,1.08,.35,1.56,.58,.47,.24,.85,.56,1.13,.96,.28,.4,.42,.93,.42,1.57,0,.56-.15,1.09-.46,1.58-.31,.49-.79,.89-1.44,1.19-.65,.3-1.49,.45-2.49,.45Z"/>
      <path d="M124.42,189.65c-.8,0-1.49-.15-2.07-.44-.58-.29-1.02-.73-1.33-1.31-.31-.58-.47-1.3-.47-2.15v-5.49h.59v5.45c0,1.12,.29,1.96,.86,2.54,.58,.58,1.39,.86,2.43,.86,.74,0,1.39-.16,1.93-.48s.96-.76,1.25-1.34,.43-1.24,.43-2v-5.04h.59v9.34h-.58v-2.61l.07,.16c-.26,.77-.72,1.38-1.37,1.83-.65,.45-1.43,.67-2.36,.67Z"/>
      <path d="M132.64,189.59v-9.34h.58v2.57l-.05-.16c.25-.78,.69-1.39,1.32-1.83s1.42-.66,2.37-.66v.59h-.16c-1.08,0-1.93,.34-2.54,1.03-.61,.68-.92,1.63-.92,2.83v4.97h-.59Z"/>
    </g>
    <g>
      <path d="M754.34,228.55l-5.65-12.6h.68l5.45,12.19h-.34l5.45-12.19h.65l-5.65,12.6h-.59Z"/>
      <path d="M765.27,228.61c-.88,0-1.66-.2-2.35-.6s-1.24-.96-1.64-1.67c-.4-.71-.6-1.53-.6-2.46s.2-1.74,.6-2.45c.4-.71,.95-1.27,1.64-1.67s1.47-.61,2.35-.61,1.66,.2,2.36,.6c.7,.4,1.24,.96,1.64,1.66,.4,.71,.59,1.53,.59,2.47s-.2,1.73-.59,2.45c-.4,.72-.94,1.28-1.64,1.68s-1.48,.6-2.36,.6Zm0-.54c.77,0,1.45-.18,2.06-.53,.61-.35,1.08-.85,1.42-1.49s.51-1.36,.51-2.18-.17-1.56-.51-2.19-.82-1.12-1.42-1.47c-.61-.35-1.29-.52-2.04-.52s-1.45,.17-2.05,.52c-.6,.35-1.08,.84-1.43,1.47-.35,.63-.53,1.36-.53,2.19s.18,1.54,.53,2.18c.35,.64,.83,1.13,1.43,1.49,.6,.35,1.28,.53,2.03,.53Z"/>
      <path d="M772.79,228.55v-13.36h.59v13.36h-.59Z"/>
      <path d="M780.96,228.61c-.89,0-1.68-.2-2.38-.6s-1.25-.96-1.66-1.67c-.4-.71-.6-1.53-.6-2.46s.2-1.74,.6-2.46c.4-.71,.95-1.27,1.66-1.67,.7-.4,1.5-.6,2.38-.6,.71,0,1.36,.13,1.96,.41,.6,.27,1.1,.67,1.49,1.2l-.45,.38c-.35-.49-.78-.85-1.3-1.08-.52-.23-1.09-.34-1.7-.34-.77,0-1.46,.17-2.07,.52-.61,.35-1.09,.84-1.45,1.47-.35,.63-.53,1.36-.53,2.19s.18,1.56,.53,2.19c.35,.63,.84,1.12,1.45,1.48,.61,.35,1.3,.53,2.07,.53,.61,0,1.18-.12,1.7-.35,.52-.23,.96-.59,1.3-1.07l.45,.36c-.4,.54-.89,.94-1.49,1.21-.6,.26-1.25,.4-1.96,.4Z"/>
      <path d="M789.73,228.61c-.71,0-1.31-.11-1.81-.32-.5-.22-.88-.53-1.14-.93-.26-.4-.4-.86-.4-1.38,0-.46,.11-.88,.32-1.27,.22-.39,.57-.7,1.07-.94,.5-.23,1.17-.35,2.01-.35h3.62v.49h-3.62c-1.02,0-1.74,.19-2.17,.58-.43,.38-.64,.87-.64,1.46,0,.66,.25,1.19,.74,1.58,.49,.39,1.18,.58,2.05,.58s1.58-.19,2.14-.58c.56-.39,.99-.95,1.28-1.67l.2,.4c-.24,.71-.67,1.28-1.3,1.71-.62,.43-1.41,.65-2.36,.65Zm3.47-.05v-2.18l-.02-.32v-3.55c0-.92-.25-1.63-.74-2.11-.49-.48-1.21-.72-2.14-.72-.68,0-1.31,.12-1.87,.35-.56,.23-1.05,.54-1.46,.91l-.32-.43c.44-.42,.99-.75,1.64-1,.65-.25,1.33-.37,2.03-.37,1.12,0,1.97,.29,2.57,.86,.59,.57,.89,1.41,.89,2.51v6.05h-.58Zm-3.87-10.93l2.5-2.03h.97l-2.75,2.03h-.72Z"/>
      <path d="M802.07,219.14c.77,0,1.43,.15,1.99,.45,.56,.3,.99,.74,1.3,1.32,.31,.58,.47,1.3,.47,2.15v5.49h-.59v-5.45c0-1.12-.28-1.96-.85-2.54-.56-.58-1.36-.86-2.38-.86-.78,0-1.45,.16-2.02,.47-.56,.31-1,.76-1.3,1.33-.3,.58-.45,1.25-.45,2.02v5.04h-.59v-9.34h.58v2.63l-.07-.16c.29-.78,.76-1.4,1.43-1.85,.67-.46,1.49-.68,2.48-.68Z"/>
    </g>
    <g>
      <path d="M670.41,323.71h7.9v.56h-8.51v-12.6h8.26v.56h-7.65v11.48Zm-.11-6.12h6.95v.56h-6.95v-.56Z"/>
      <path d="M683.61,324.32c-.77,0-1.49-.12-2.16-.35s-1.18-.53-1.53-.89l.29-.47c.35,.31,.82,.59,1.42,.83,.6,.24,1.27,.36,2,.36,1.04,0,1.8-.18,2.26-.54,.46-.36,.69-.83,.69-1.4,0-.42-.11-.75-.34-.99-.23-.24-.53-.43-.9-.56-.37-.13-.78-.24-1.23-.32-.45-.08-.9-.17-1.36-.27s-.87-.24-1.24-.41-.67-.42-.9-.73c-.23-.31-.34-.73-.34-1.24,0-.44,.12-.85,.37-1.22,.25-.37,.62-.67,1.12-.91,.5-.23,1.15-.35,1.93-.35,.58,0,1.15,.09,1.74,.26s1.05,.4,1.4,.69l-.31,.47c-.37-.3-.81-.52-1.31-.67-.5-.14-1.01-.21-1.54-.21-.97,0-1.68,.19-2.12,.56-.44,.37-.67,.83-.67,1.37,0,.43,.11,.78,.34,1.04,.23,.26,.53,.45,.9,.58,.37,.13,.78,.24,1.23,.32,.45,.08,.9,.17,1.35,.27,.45,.1,.86,.23,1.23,.4,.37,.17,.67,.4,.9,.7,.23,.3,.34,.71,.34,1.22,0,.48-.13,.91-.4,1.29-.27,.38-.67,.67-1.19,.87-.52,.21-1.18,.31-1.97,.31Z"/>
      <path d="M688.22,315.45v-.52h5.44v.52h-5.44Zm4.14,8.88c-.77,0-1.36-.22-1.76-.65-.41-.43-.61-1.01-.61-1.75v-9.05h.59v8.96c0,.64,.16,1.12,.47,1.46,.31,.34,.77,.5,1.37,.5s1.12-.19,1.51-.56l.31,.43c-.23,.22-.51,.38-.85,.49s-.68,.16-1.03,.16Z"/>
      <path d="M696.87,324.27v-9.34h.58v2.57l-.05-.16c.25-.78,.69-1.39,1.32-1.83,.63-.44,1.42-.66,2.37-.66v.59h-.16c-1.08,0-1.93,.34-2.54,1.03-.61,.68-.92,1.62-.92,2.83v4.97h-.59Z"/>
      <path d="M705.44,324.32c-.71,0-1.31-.11-1.81-.32-.5-.22-.88-.53-1.14-.93-.26-.4-.4-.86-.4-1.38,0-.46,.11-.88,.32-1.27,.22-.39,.57-.7,1.07-.94,.5-.23,1.17-.35,2.01-.35h3.62v.49h-3.62c-1.02,0-1.74,.19-2.17,.57-.43,.38-.64,.87-.64,1.46,0,.66,.25,1.19,.74,1.57,.49,.39,1.18,.59,2.05,.59s1.58-.2,2.14-.59c.56-.39,.99-.95,1.28-1.66l.2,.4c-.24,.71-.67,1.28-1.3,1.71s-1.41,.65-2.36,.65Zm3.47-.05v-2.18l-.02-.32v-3.54c0-.92-.25-1.63-.74-2.11-.49-.48-1.21-.72-2.14-.72-.68,0-1.31,.12-1.87,.35-.56,.23-1.05,.54-1.46,.91l-.32-.43c.44-.42,.99-.75,1.64-1,.65-.25,1.33-.37,2.03-.37,1.12,0,1.97,.29,2.57,.86s.89,1.41,.89,2.51v6.05h-.58Z"/>
      <path d="M711.78,315.45v-.52h5.44v.52h-5.44Zm4.14,8.88c-.77,0-1.36-.22-1.76-.65-.41-.43-.61-1.01-.61-1.75v-9.05h.59v8.96c0,.64,.16,1.12,.47,1.46,.31,.34,.77,.5,1.37,.5s1.12-.19,1.51-.56l.31,.43c-.23,.22-.51,.38-.85,.49s-.68,.16-1.03,.16Z"/>
      <path d="M723.6,324.32c-.88,0-1.66-.2-2.35-.6s-1.24-.96-1.64-1.67c-.4-.71-.6-1.53-.6-2.46s.2-1.74,.6-2.45c.4-.71,.95-1.27,1.64-1.67s1.47-.61,2.35-.61,1.66,.2,2.36,.6,1.24,.96,1.64,1.66c.4,.71,.59,1.53,.59,2.47s-.2,1.73-.59,2.45c-.4,.72-.94,1.28-1.64,1.68s-1.48,.6-2.36,.6Zm0-.54c.77,0,1.45-.18,2.06-.53,.61-.36,1.08-.85,1.42-1.49,.34-.63,.51-1.36,.51-2.18s-.17-1.56-.51-2.19c-.34-.63-.82-1.12-1.42-1.47-.61-.35-1.29-.52-2.04-.52s-1.45,.17-2.05,.52c-.6,.35-1.08,.84-1.43,1.47-.35,.63-.53,1.36-.53,2.19s.18,1.54,.53,2.18c.35,.64,.83,1.13,1.43,1.49,.6,.35,1.28,.53,2.03,.53Z"/>
      <path d="M733.38,324.32c-.77,0-1.49-.12-2.16-.35s-1.18-.53-1.53-.89l.29-.47c.35,.31,.82,.59,1.42,.83,.6,.24,1.27,.36,2,.36,1.04,0,1.8-.18,2.26-.54,.46-.36,.69-.83,.69-1.4,0-.42-.11-.75-.34-.99-.23-.24-.53-.43-.9-.56-.37-.13-.78-.24-1.23-.32-.45-.08-.9-.17-1.36-.27s-.87-.24-1.24-.41-.67-.42-.9-.73c-.23-.31-.34-.73-.34-1.24,0-.44,.12-.85,.37-1.22,.25-.37,.62-.67,1.12-.91,.5-.23,1.15-.35,1.93-.35,.58,0,1.15,.09,1.74,.26s1.05,.4,1.4,.69l-.31,.47c-.37-.3-.81-.52-1.31-.67-.5-.14-1.01-.21-1.54-.21-.97,0-1.68,.19-2.12,.56-.44,.37-.67,.83-.67,1.37,0,.43,.11,.78,.34,1.04,.23,.26,.53,.45,.9,.58,.37,.13,.78,.24,1.23,.32,.45,.08,.9,.17,1.35,.27,.45,.1,.86,.23,1.23,.4,.37,.17,.67,.4,.9,.7,.23,.3,.34,.71,.34,1.22,0,.48-.13,.91-.4,1.29-.27,.38-.67,.67-1.19,.87-.52,.21-1.18,.31-1.97,.31Z"/>
      <path d="M747.65,324.32c-.86,0-1.64-.2-2.33-.6s-1.24-.96-1.64-1.67c-.4-.71-.6-1.53-.6-2.46s.2-1.75,.6-2.46c.4-.7,.95-1.26,1.64-1.66s1.47-.61,2.33-.61,1.6,.2,2.27,.59c.67,.4,1.2,.95,1.59,1.66,.39,.71,.58,1.54,.58,2.48s-.2,1.76-.58,2.48c-.39,.72-.92,1.28-1.59,1.66-.67,.39-1.43,.59-2.27,.59Zm.02-.54c.77,0,1.45-.18,2.05-.53,.6-.36,1.07-.85,1.42-1.49,.35-.63,.52-1.36,.52-2.18s-.17-1.56-.52-2.19c-.35-.63-.82-1.12-1.42-1.47-.6-.35-1.28-.52-2.05-.52s-1.43,.17-2.03,.52c-.6,.35-1.08,.84-1.43,1.47-.35,.63-.53,1.36-.53,2.19s.18,1.54,.53,2.18c.35,.64,.83,1.13,1.43,1.49,.6,.35,1.28,.53,2.03,.53Zm4.01,.49v-3.28l.16-1.42-.18-1.42v-7.24h.59v13.36h-.58Z"/>
      <path d="M759.93,324.32c-.92,0-1.74-.2-2.45-.6s-1.27-.96-1.67-1.68c-.41-.72-.61-1.54-.61-2.45s.19-1.74,.57-2.45c.38-.71,.9-1.27,1.57-1.67s1.42-.61,2.26-.61,1.58,.2,2.24,.59c.67,.4,1.19,.95,1.57,1.65,.38,.7,.57,1.51,.57,2.42v.16h-8.37v-.49h8.05l-.23,.29c0-.78-.17-1.48-.49-2.1-.33-.62-.78-1.1-1.36-1.46-.58-.36-1.23-.53-1.96-.53s-1.39,.18-1.96,.53c-.58,.35-1.03,.84-1.36,1.46-.33,.62-.5,1.32-.5,2.12v.11c0,.82,.18,1.54,.54,2.17,.36,.63,.85,1.12,1.48,1.48,.62,.35,1.34,.53,2.14,.53,.61,0,1.19-.11,1.74-.34,.55-.23,1-.58,1.36-1.04l.38,.4c-.42,.5-.93,.88-1.54,1.14-.61,.26-1.25,.39-1.94,.39Z"/>
      <path d="M773.69,324.32c-.77,0-1.49-.12-2.16-.35s-1.18-.53-1.53-.89l.29-.47c.35,.31,.82,.59,1.42,.83,.6,.24,1.27,.36,2,.36,1.04,0,1.8-.18,2.26-.54,.46-.36,.69-.83,.69-1.4,0-.42-.11-.75-.34-.99-.23-.24-.53-.43-.9-.56-.37-.13-.78-.24-1.23-.32-.45-.08-.9-.17-1.36-.27s-.87-.24-1.24-.41-.67-.42-.9-.73c-.23-.31-.34-.73-.34-1.24,0-.44,.12-.85,.37-1.22,.25-.37,.62-.67,1.12-.91,.5-.23,1.15-.35,1.93-.35,.58,0,1.15,.09,1.74,.26s1.05,.4,1.4,.69l-.31,.47c-.37-.3-.81-.52-1.31-.67-.5-.14-1.01-.21-1.54-.21-.97,0-1.68,.19-2.12,.56-.44,.37-.67,.83-.67,1.37,0,.43,.11,.78,.34,1.04,.23,.26,.53,.45,.9,.58,.37,.13,.78,.24,1.23,.32,.45,.08,.9,.17,1.35,.27,.45,.1,.86,.23,1.23,.4,.37,.17,.67,.4,.9,.7,.23,.3,.34,.71,.34,1.22,0,.48-.13,.91-.4,1.29-.27,.38-.67,.67-1.19,.87-.52,.21-1.18,.31-1.97,.31Z"/>
      <path d="M783.67,324.32c-.8,0-1.49-.15-2.07-.44-.58-.29-1.02-.73-1.33-1.31-.31-.58-.47-1.3-.47-2.15v-5.49h.59v5.46c0,1.12,.29,1.96,.86,2.54,.58,.58,1.39,.86,2.43,.86,.74,0,1.39-.16,1.93-.48s.96-.76,1.25-1.34,.43-1.24,.43-2v-5.04h.59v9.34h-.58v-2.61l.07,.16c-.26,.77-.72,1.38-1.37,1.83-.65,.45-1.43,.68-2.36,.68Z"/>
      <path d="M795.56,324.32c-.92,0-1.74-.2-2.45-.6s-1.27-.96-1.67-1.68c-.41-.72-.61-1.54-.61-2.45s.19-1.74,.57-2.45c.38-.71,.9-1.27,1.57-1.67s1.42-.61,2.26-.61,1.58,.2,2.24,.59c.67,.4,1.19,.95,1.57,1.65,.38,.7,.57,1.51,.57,2.42v.16h-8.37v-.49h8.05l-.23,.29c0-.78-.17-1.48-.49-2.1-.33-.62-.78-1.1-1.36-1.46-.58-.36-1.23-.53-1.96-.53s-1.39,.18-1.96,.53c-.58,.35-1.03,.84-1.36,1.46-.33,.62-.5,1.32-.5,2.12v.11c0,.82,.18,1.54,.54,2.17,.36,.63,.85,1.12,1.48,1.48,.62,.35,1.34,.53,2.14,.53,.61,0,1.19-.11,1.74-.34,.55-.23,1-.58,1.36-1.04l.38,.4c-.42,.5-.93,.88-1.54,1.14-.61,.26-1.25,.39-1.94,.39Z"/>
      <path d="M802.53,324.27v-13.36h.59v13.36h-.59Z"/>
      <path d="M810.65,324.32c-.88,0-1.66-.2-2.35-.6s-1.24-.96-1.64-1.67c-.4-.71-.6-1.53-.6-2.46s.2-1.74,.6-2.45c.4-.71,.95-1.27,1.64-1.67s1.47-.61,2.35-.61,1.66,.2,2.36,.6,1.24,.96,1.64,1.66c.4,.71,.59,1.53,.59,2.47s-.2,1.73-.59,2.45c-.4,.72-.94,1.28-1.64,1.68s-1.48,.6-2.36,.6Zm0-.54c.77,0,1.45-.18,2.06-.53,.61-.36,1.08-.85,1.42-1.49,.34-.63,.51-1.36,.51-2.18s-.17-1.56-.51-2.19c-.34-.63-.82-1.12-1.42-1.47-.61-.35-1.29-.52-2.04-.52s-1.45,.17-2.05,.52c-.6,.35-1.08,.84-1.43,1.47-.35,.63-.53,1.36-.53,2.19s.18,1.54,.53,2.18c.35,.64,.83,1.13,1.43,1.49,.6,.35,1.28,.53,2.03,.53Z"/>
    </g>
  </g>
</svg>