<svg xmlns="http://www.w3.org/2000/svg" id="Capa_2" data-name="Capa 2" viewBox="0 0 89.87 98.77"><g id="Capa_1-2" fill="#0c0c0c" data-name="Capa 1"><path d="M.55 67.17h31.99l.4-1.1-32.79-.1z"/><path d="M46.46 46.05a26.07 26.07 0 0 0 9.12-19.86C55.58 11.75 43.83 0 29.39 0S3.2 11.75 3.2 26.19c0 2.47.35 4.9 1.01 7.21h1.25a24.9 24.9 0 0 1-1.07-7.21C4.4 12.41 15.61 1.2 29.39 1.2s24.99 11.21 24.99 24.99c0 7.57-3.38 14.65-9.28 19.43l-.62.5.66.46a28.03 28.03 0 0 1 12.04 23c0 15.43-12.56 27.99-27.99 27.99S1.2 85.01 1.2 69.58c0-1.17.07-2.33.22-3.48H.21A29 29 0 0 0 0 69.58c0 16.1 13.1 29.19 29.19 29.19s29.19-13.1 29.19-29.19c0-9.29-4.44-18.03-11.92-23.53"/><path d="M77.95 46.05a26.07 26.07 0 0 0 9.12-19.86C87.07 11.75 75.32 0 60.88 0S34.69 11.75 34.69 26.19c0 2.47.35 4.9 1.01 7.21h1.25a24.9 24.9 0 0 1-1.07-7.21c0-13.78 11.21-24.99 24.99-24.99s24.99 11.21 24.99 24.99c0 7.57-3.38 14.65-9.28 19.43l-.62.5.66.46a28.03 28.03 0 0 1 12.04 23c0 15.43-12.56 27.99-27.99 27.99S32.68 85.01 32.68 69.58c0-1.17.07-2.33.22-3.48h-1.21a29 29 0 0 0-.21 3.48c0 16.1 13.1 29.19 29.19 29.19s29.19-13.1 29.19-29.19c0-9.29-4.44-18.03-11.92-23.53Z"/></g></svg>