<svg xmlns="http://www.w3.org/2000/svg" data-name="Capa 2" viewBox="0 0 115.56 98.77">
  <g fill="#0c0c0c" data-name="Capa 1">
    <path d="M26.24 67.17h31.99l.4-1.1-32.79-.1zM1.95 48.19v-4.95H0v-.92h4.99v.92H3.04v4.95zm4.45 0v-5.88h2.42c.52 0 .97.08 1.34.25s.66.4.86.72c.2.31.3.69.3 1.13s-.1.8-.3 1.11-.49.55-.86.71c-.37.17-.82.25-1.34.25H7.01l.48-.49v2.2zm1.09-2.08-.48-.53h1.76c.48 0 .84-.1 1.09-.31.24-.21.37-.5.37-.86s-.12-.66-.37-.86c-.24-.2-.61-.31-1.09-.31H7.01l.48-.54zm2.75 2.08-1.49-2.13h1.17l1.49 2.13h-1.18Zm3.98-.93h3.32v.92h-4.41V42.3h4.29v.92h-3.2v4.03Zm-.08-2.51h2.92v.9h-2.92zm7.02 3.52c-.46 0-.9-.07-1.31-.2-.42-.13-.75-.3-1-.51l.38-.85a3.25 3.25 0 0 0 1.94.64c.31 0 .56-.03.75-.1q.285-.105.42-.27c.09-.11.13-.24.13-.39 0-.18-.06-.32-.19-.43s-.3-.2-.5-.26-.43-.12-.68-.18-.5-.12-.75-.2a3.3 3.3 0 0 1-.68-.3c-.21-.12-.37-.28-.5-.48s-.19-.46-.19-.77.09-.61.26-.88.43-.48.78-.64.79-.24 1.33-.24c.35 0 .7.04 1.05.13s.65.22.91.39l-.34.85c-.26-.16-.53-.27-.81-.35a3 3 0 0 0-.81-.11c-.3 0-.54.04-.73.11a.9.9 0 0 0-.42.29.64.64 0 0 0-.13.4c0 .18.06.32.19.43s.29.19.5.26c.2.06.43.12.68.18s.5.12.75.2.47.17.68.29.37.28.5.48.19.45.19.76-.09.6-.26.87-.43.48-.79.64-.8.24-1.34.24Zm8.69-.08-2.57-5.88h1.18l2.29 5.32h-.69l2.33-5.32h1.08l-2.56 5.88h-1.07Zm5.94-.93h3.32v.92H34.7V42.3h4.29v.92h-3.2v4.03Zm-.08-2.51h2.92v.9h-2.92zm7.92 3.52c-.45 0-.87-.07-1.25-.22s-.71-.36-1-.63q-.42-.405-.66-.96c-.24-.555-.24-.77-.24-1.21s.08-.85.24-1.21.38-.68.66-.96c.29-.27.62-.49 1-.63s.8-.22 1.25-.22c.48 0 .92.08 1.32.25s.73.41 1.01.73l-.71.66c-.22-.23-.46-.4-.72-.52-.26-.11-.55-.17-.85-.17s-.59.05-.84.15-.48.24-.66.43-.33.4-.44.65-.16.53-.16.83.05.58.16.83.25.47.44.66c.19.18.41.33.66.43s.54.15.84.15.58-.06.85-.17.5-.29.72-.52l.71.66c-.27.32-.61.57-1.01.74s-.84.25-1.33.25Zm5.07-1.01h3.32v.92h-4.41V42.3h4.29v.92h-3.2v4.03Zm-.08-2.51h2.92v.9h-2.92zm7.02 3.52c-.46 0-.9-.07-1.31-.2-.42-.13-.75-.3-1-.51l.38-.85a3.25 3.25 0 0 0 1.94.64c.31 0 .56-.03.75-.1q.285-.105.42-.27c.09-.11.13-.24.13-.39 0-.18-.06-.32-.19-.43s-.3-.2-.5-.26-.43-.12-.68-.18-.5-.12-.75-.2a3.3 3.3 0 0 1-.68-.3c-.21-.12-.37-.28-.5-.48s-.19-.46-.19-.77.09-.61.26-.88.43-.48.78-.64.79-.24 1.33-.24c.35 0 .7.04 1.05.13s.65.22.91.39l-.34.85c-.26-.16-.53-.27-.81-.35a3 3 0 0 0-.81-.11c-.3 0-.54.04-.73.11a.9.9 0 0 0-.42.29.64.64 0 0 0-.13.4c0 .18.06.32.19.43s.29.19.5.26c.2.06.43.12.68.18s.5.12.75.2.47.17.68.29.37.28.5.48.19.45.19.76-.09.6-.26.87-.43.48-.79.64-.8.24-1.34.24Zm-19.21 9.11v-4.95h-1.95v-.92h4.99v.92h-1.95v4.95zm4.45 0V51.5h2.42c.52 0 .97.08 1.34.25s.66.4.86.72c.2.31.3.69.3 1.13s-.1.8-.3 1.11-.49.55-.86.71c-.37.17-.82.25-1.34.25h-1.81l.48-.49v2.2zm1.09-2.08-.48-.53h1.76c.48 0 .84-.1 1.09-.31.24-.21.37-.5.37-.86s-.12-.66-.37-.86c-.24-.2-.61-.31-1.09-.31h-1.76l.48-.54zm2.75 2.08-1.49-2.13h1.17l1.49 2.13h-1.18Zm3.98-.92h3.32v.92h-4.41V51.5h4.29v.92h-3.2v4.03Zm-.08-2.51h2.92v.9h-2.92zm7.02 3.52c-.46 0-.9-.07-1.31-.2-.42-.13-.75-.3-1-.51l.38-.85a3.25 3.25 0 0 0 1.94.64c.31 0 .56-.03.75-.1q.285-.105.42-.27c.09-.11.13-.24.13-.39 0-.18-.06-.32-.19-.43s-.3-.2-.5-.26-.43-.12-.68-.18-.5-.12-.75-.2a3.3 3.3 0 0 1-.68-.3c-.21-.12-.37-.28-.5-.48s-.19-.46-.19-.77.09-.61.26-.88.43-.48.78-.64.79-.24 1.33-.24c.35 0 .7.04 1.05.13s.65.22.91.39l-.34.85c-.26-.16-.53-.27-.81-.35a3 3 0 0 0-.81-.11c-.3 0-.54.04-.73.11a.9.9 0 0 0-.42.29.64.64 0 0 0-.13.4c0 .18.06.32.19.43s.29.19.5.26c.2.06.43.12.68.18s.5.12.75.2.47.17.68.29.37.28.5.48.19.45.19.76-.09.6-.26.87-.43.48-.79.64-.8.24-1.34.24Z"/>
    <path d="M72.15 46.05a26.07 26.07 0 0 0 9.12-19.86C81.27 11.75 69.52 0 55.08 0S28.89 11.75 28.89 26.19c0 2.47.35 4.9 1.01 7.21h1.25a24.9 24.9 0 0 1-1.07-7.21c.01-13.78 11.22-24.99 25-24.99s24.99 11.21 24.99 24.99c0 7.57-3.38 14.65-9.28 19.43l-.62.5.66.46a28.03 28.03 0 0 1 12.04 23c0 15.43-12.56 27.99-27.99 27.99S26.89 85.01 26.89 69.58c0-1.17.07-2.33.22-3.48H25.9a29 29 0 0 0-.21 3.48c0 16.1 13.1 29.19 29.19 29.19s29.19-13.1 29.19-29.19c0-9.29-4.44-18.03-11.92-23.53"/>
    <path d="M103.64 46.05a26.07 26.07 0 0 0 9.12-19.86C112.76 11.75 101.01 0 86.57 0S60.38 11.75 60.38 26.19c0 2.47.35 4.9 1.01 7.21h1.25a24.9 24.9 0 0 1-1.07-7.21c0-13.78 11.21-24.99 24.99-24.99s24.99 11.21 24.99 24.99c0 7.57-3.38 14.65-9.28 19.43l-.62.5.66.46a28.03 28.03 0 0 1 12.04 23c0 15.43-12.56 27.99-27.99 27.99S58.37 85.01 58.37 69.58c0-1.17.07-2.33.22-3.48h-1.21a29 29 0 0 0-.21 3.48c0 16.1 13.1 29.19 29.19 29.19s29.19-13.1 29.19-29.19c0-9.29-4.44-18.03-11.92-23.53Z"/>
  </g>
</svg>
