<?xml version="1.0" encoding="UTF-8"?>
<svg id="Capa_2" data-name="Capa 2" xmlns="http://www.w3.org/2000/svg" viewBox="0 0 198.12 98.77">
  <defs>
    <style>
      .cls-1 {
        fill: #fff;
      }
    </style>
  </defs>
  <g id="Capa_1-2" data-name="Capa 1">
    <g>
      <g>
        <polygon class="cls-1" points="26.24 67.17 58.23 67.17 58.63 66.07 25.84 65.97 26.24 67.17"/>
        <g>
          <path class="cls-1" d="M1.95,48.19v-4.95H0v-.92H4.99v.92h-1.95v4.95H1.95Z"/>
          <path class="cls-1" d="M6.4,48.19v-5.88h2.42c.52,0,.97,.08,1.34,.25,.37,.17,.66,.4,.86,.72,.2,.31,.3,.69,.3,1.13s-.1,.8-.3,1.11c-.2,.31-.49,.55-.86,.71-.37,.17-.82,.25-1.34,.25h-1.81l.48-.49v2.2h-1.09Zm1.09-2.08l-.48-.53h1.76c.48,0,.84-.1,1.09-.31,.24-.21,.37-.5,.37-.86s-.12-.66-.37-.86c-.24-.2-.61-.31-1.09-.31h-1.76l.48-.54v3.41Zm2.75,2.08l-1.49-2.13h1.17l1.49,2.13h-1.18Z"/>
          <path class="cls-1" d="M14.22,47.26h3.32v.92h-4.41v-5.88h4.29v.92h-3.2v4.03Zm-.08-2.51h2.92v.9h-2.92v-.9Z"/>
          <path class="cls-1" d="M21.16,48.27c-.46,0-.9-.07-1.31-.2-.42-.13-.75-.3-1-.51l.38-.85c.24,.18,.53,.34,.87,.46,.35,.12,.7,.18,1.07,.18,.31,0,.56-.03,.75-.1,.19-.07,.33-.16,.42-.27,.09-.11,.13-.24,.13-.39,0-.18-.06-.32-.19-.43s-.3-.2-.5-.26c-.2-.06-.43-.12-.68-.18s-.5-.12-.75-.2c-.25-.08-.48-.18-.68-.3-.21-.12-.37-.28-.5-.48s-.19-.46-.19-.77,.09-.61,.26-.88,.43-.48,.78-.64c.35-.16,.79-.24,1.33-.24,.35,0,.7,.04,1.05,.13s.65,.22,.91,.39l-.34,.85c-.26-.16-.53-.27-.81-.35-.28-.08-.55-.11-.81-.11-.3,0-.54,.04-.73,.11-.19,.07-.33,.17-.42,.29-.09,.12-.13,.25-.13,.4,0,.18,.06,.32,.19,.43,.13,.11,.29,.19,.5,.26,.2,.06,.43,.12,.68,.18,.25,.06,.5,.12,.75,.2,.25,.08,.47,.17,.68,.29,.21,.12,.37,.28,.5,.48,.13,.2,.19,.45,.19,.76s-.09,.6-.26,.87c-.17,.27-.43,.48-.79,.64s-.8,.24-1.34,.24Z"/>
          <path class="cls-1" d="M29.85,48.19l-2.57-5.88h1.18l2.29,5.32h-.69l2.33-5.32h1.08l-2.56,5.88h-1.07Z"/>
          <path class="cls-1" d="M35.79,47.26h3.32v.92h-4.41v-5.88h4.29v.92h-3.2v4.03Zm-.08-2.51h2.92v.9h-2.92v-.9Z"/>
          <path class="cls-1" d="M43.63,48.27c-.45,0-.87-.07-1.25-.22-.38-.15-.71-.36-1-.63-.28-.27-.5-.59-.66-.96s-.24-.77-.24-1.21,.08-.85,.24-1.21,.38-.68,.66-.96c.29-.27,.62-.49,1-.63s.8-.22,1.25-.22c.48,0,.92,.08,1.32,.25,.4,.17,.73,.41,1.01,.73l-.71,.66c-.22-.23-.46-.4-.72-.52-.26-.11-.55-.17-.85-.17s-.59,.05-.84,.15-.48,.24-.66,.43-.33,.4-.44,.65c-.11,.25-.16,.53-.16,.83s.05,.58,.16,.83,.25,.47,.44,.66c.19,.18,.41,.33,.66,.43s.54,.15,.84,.15,.58-.06,.85-.17,.5-.29,.72-.52l.71,.66c-.27,.32-.61,.57-1.01,.74s-.84,.25-1.33,.25Z"/>
          <path class="cls-1" d="M48.7,47.26h3.32v.92h-4.41v-5.88h4.29v.92h-3.2v4.03Zm-.08-2.51h2.92v.9h-2.92v-.9Z"/>
          <path class="cls-1" d="M55.64,48.27c-.46,0-.9-.07-1.31-.2-.42-.13-.75-.3-1-.51l.38-.85c.24,.18,.53,.34,.87,.46,.35,.12,.7,.18,1.07,.18,.31,0,.56-.03,.75-.1,.19-.07,.33-.16,.42-.27,.09-.11,.13-.24,.13-.39,0-.18-.06-.32-.19-.43s-.3-.2-.5-.26c-.2-.06-.43-.12-.68-.18s-.5-.12-.75-.2c-.25-.08-.48-.18-.68-.3-.21-.12-.37-.28-.5-.48s-.19-.46-.19-.77,.09-.61,.26-.88,.43-.48,.78-.64c.35-.16,.79-.24,1.33-.24,.35,0,.7,.04,1.05,.13s.65,.22,.91,.39l-.34,.85c-.26-.16-.53-.27-.81-.35-.28-.08-.55-.11-.81-.11-.3,0-.54,.04-.73,.11-.19,.07-.33,.17-.42,.29-.09,.12-.13,.25-.13,.4,0,.18,.06,.32,.19,.43,.13,.11,.29,.19,.5,.26,.2,.06,.43,.12,.68,.18,.25,.06,.5,.12,.75,.2,.25,.08,.47,.17,.68,.29,.21,.12,.37,.28,.5,.48,.13,.2,.19,.45,.19,.76s-.09,.6-.26,.87c-.17,.27-.43,.48-.79,.64s-.8,.24-1.34,.24Z"/>
          <path class="cls-1" d="M36.43,57.38v-4.95h-1.95v-.92h4.99v.92h-1.95v4.95h-1.09Z"/>
          <path class="cls-1" d="M40.88,57.38v-5.88h2.42c.52,0,.97,.08,1.34,.25,.37,.17,.66,.4,.86,.72,.2,.31,.3,.69,.3,1.13s-.1,.8-.3,1.11c-.2,.31-.49,.55-.86,.71-.37,.17-.82,.25-1.34,.25h-1.81l.48-.49v2.2h-1.09Zm1.09-2.08l-.48-.53h1.76c.48,0,.84-.1,1.09-.31,.24-.21,.37-.5,.37-.86s-.12-.66-.37-.86c-.24-.2-.61-.31-1.09-.31h-1.76l.48-.54v3.41Zm2.75,2.08l-1.49-2.13h1.17l1.49,2.13h-1.18Z"/>
          <path class="cls-1" d="M48.7,56.46h3.32v.92h-4.41v-5.88h4.29v.92h-3.2v4.03Zm-.08-2.51h2.92v.9h-2.92v-.9Z"/>
          <path class="cls-1" d="M55.64,57.47c-.46,0-.9-.07-1.31-.2-.42-.13-.75-.3-1-.51l.38-.85c.24,.18,.53,.34,.87,.46,.35,.12,.7,.18,1.07,.18,.31,0,.56-.03,.75-.1,.19-.07,.33-.16,.42-.27,.09-.11,.13-.24,.13-.39,0-.18-.06-.32-.19-.43s-.3-.2-.5-.26c-.2-.06-.43-.12-.68-.18s-.5-.12-.75-.2c-.25-.08-.48-.18-.68-.3-.21-.12-.37-.28-.5-.48s-.19-.46-.19-.77,.09-.61,.26-.88,.43-.48,.78-.64c.35-.16,.79-.24,1.33-.24,.35,0,.7,.04,1.05,.13s.65,.22,.91,.39l-.34,.85c-.26-.16-.53-.27-.81-.35-.28-.08-.55-.11-.81-.11-.3,0-.54,.04-.73,.11-.19,.07-.33,.17-.42,.29-.09,.12-.13,.25-.13,.4,0,.18,.06,.32,.19,.43,.13,.11,.29,.19,.5,.26,.2,.06,.43,.12,.68,.18,.25,.06,.5,.12,.75,.2,.25,.08,.47,.17,.68,.29,.21,.12,.37,.28,.5,.48,.13,.2,.19,.45,.19,.76s-.09,.6-.26,.87c-.17,.27-.43,.48-.79,.64s-.8,.24-1.34,.24Z"/>
        </g>
        <path class="cls-1" d="M72.15,46.05c5.81-4.99,9.12-12.18,9.12-19.86,0-14.44-11.75-26.19-26.19-26.19S28.89,11.75,28.89,26.19c0,2.47,.35,4.9,1.01,7.21h1.25c-.7-2.31-1.07-4.74-1.07-7.21C30.09,12.41,41.3,1.2,55.08,1.2s24.99,11.21,24.99,24.99c0,7.57-3.38,14.65-9.28,19.43l-.62,.5,.66,.46c7.54,5.24,12.04,13.84,12.04,23,0,15.43-12.56,27.99-27.99,27.99s-27.99-12.56-27.99-27.99c0-1.17,.07-2.33,.22-3.48h-1.21c-.14,1.15-.21,2.31-.21,3.48,0,16.1,13.1,29.19,29.19,29.19s29.19-13.1,29.19-29.19c0-9.29-4.44-18.03-11.92-23.53Z"/>
        <path class="cls-1" d="M103.64,46.05c5.81-4.99,9.12-12.18,9.12-19.86,0-14.44-11.75-26.19-26.19-26.19s-26.19,11.75-26.19,26.19c0,2.47,.35,4.9,1.01,7.21h1.25c-.7-2.31-1.07-4.74-1.07-7.21,0-13.78,11.21-24.99,24.99-24.99s24.99,11.21,24.99,24.99c0,7.57-3.38,14.65-9.28,19.43l-.62,.5,.66,.46c7.54,5.24,12.04,13.84,12.04,23,0,15.43-12.56,27.99-27.99,27.99s-27.99-12.56-27.99-27.99c0-1.17,.07-2.33,.22-3.48h-1.21c-.14,1.15-.21,2.31-.21,3.48,0,16.1,13.1,29.19,29.19,29.19s29.19-13.1,29.19-29.19c0-9.29-4.44-18.03-11.92-23.53Z"/>
      </g>
      <g>
        <path class="cls-1" d="M127.73,48.66c-.43,0-.84-.07-1.21-.22-.37-.15-.69-.35-.96-.62s-.48-.58-.63-.94c-.15-.36-.23-.75-.23-1.17s.08-.82,.23-1.18,.36-.67,.64-.94,.59-.47,.96-.62c.37-.15,.77-.22,1.21-.22s.81,.07,1.18,.21c.37,.14,.68,.35,.94,.63l-.39,.39c-.24-.24-.5-.42-.79-.53-.29-.11-.59-.16-.93-.16s-.67,.06-.97,.18c-.3,.12-.56,.29-.78,.51-.22,.22-.39,.47-.52,.76-.12,.29-.19,.61-.19,.96s.06,.67,.19,.96c.13,.29,.3,.54,.52,.76,.22,.22,.48,.39,.78,.51,.3,.12,.62,.18,.97,.18s.64-.06,.93-.17,.55-.29,.79-.53l.39,.39c-.25,.28-.57,.49-.94,.64s-.77,.22-1.19,.22Z"/>
        <path class="cls-1" d="M133.99,48.66c-.44,0-.84-.07-1.21-.22-.37-.15-.7-.35-.97-.62-.27-.27-.49-.58-.64-.94s-.23-.75-.23-1.17,.07-.82,.23-1.17,.37-.67,.64-.94c.27-.27,.59-.47,.96-.62,.37-.15,.78-.22,1.22-.22s.84,.07,1.21,.22c.37,.15,.69,.35,.96,.62s.49,.58,.64,.94,.23,.75,.23,1.18-.07,.82-.23,1.17c-.15,.36-.37,.67-.64,.94s-.59,.47-.96,.62c-.37,.15-.77,.22-1.21,.22Zm0-.55c.35,0,.67-.06,.96-.18s.55-.29,.77-.51c.22-.22,.39-.47,.51-.76,.12-.29,.18-.61,.18-.96s-.06-.67-.18-.96-.29-.54-.51-.76-.47-.39-.77-.51-.62-.18-.96-.18-.67,.06-.97,.18c-.3,.12-.56,.29-.78,.51s-.39,.47-.51,.76-.18,.61-.18,.96,.06,.66,.18,.95c.12,.29,.29,.55,.51,.76,.22,.22,.48,.39,.78,.51,.3,.12,.62,.18,.97,.18Z"/>
        <path class="cls-1" d="M138.82,48.61v-5.79h.51l2.65,4.52h-.26l2.62-4.52h.5v5.79h-.59v-4.87h.14l-2.42,4.14h-.29l-2.43-4.14h.16v4.87h-.59Z"/>
        <path class="cls-1" d="M149.47,48.66c-.74,0-1.32-.21-1.75-.64s-.64-1.05-.64-1.89v-3.32h.61v3.29c0,.69,.15,1.19,.46,1.52s.75,.49,1.31,.49,1.01-.16,1.32-.49c.31-.33,.46-.83,.46-1.52v-3.29h.6v3.32c0,.83-.21,1.46-.63,1.89-.42,.43-1,.64-1.74,.64Z"/>
        <path class="cls-1" d="M154.1,48.61v-5.79h.51l4,5.03h-.26v-5.03h.6v5.79h-.51l-3.99-5.03h.26v5.03h-.61Z"/>
        <path class="cls-1" d="M161.25,48.61v-5.79h.61v5.79h-.61Z"/>
        <path class="cls-1" d="M166.68,48.66c-.44,0-.84-.07-1.21-.22-.37-.15-.69-.35-.96-.62-.27-.26-.48-.58-.63-.94-.15-.36-.23-.75-.23-1.17s.07-.82,.23-1.18,.37-.67,.64-.94,.59-.47,.96-.62c.37-.15,.77-.22,1.21-.22s.81,.07,1.18,.21c.37,.14,.68,.35,.94,.63l-.39,.39c-.24-.24-.5-.42-.79-.53-.29-.11-.6-.16-.93-.16s-.67,.06-.97,.18c-.3,.12-.56,.29-.78,.51s-.39,.47-.52,.76c-.13,.29-.19,.61-.19,.96s.06,.67,.19,.96c.12,.29,.3,.54,.52,.76,.22,.22,.48,.39,.78,.51,.3,.12,.62,.18,.97,.18s.64-.06,.93-.17,.55-.29,.79-.53l.39,.39c-.25,.28-.57,.49-.94,.64s-.77,.22-1.19,.22Z"/>
        <path class="cls-1" d="M169.45,48.61l2.65-5.79h.6l2.65,5.79h-.64l-2.43-5.44h.25l-2.43,5.44h-.64Zm1.04-1.55l.18-.5h3.37l.18,.5h-3.73Z"/>
        <path class="cls-1" d="M179.16,48.66c-.44,0-.84-.07-1.21-.22-.37-.15-.69-.35-.96-.62-.27-.26-.48-.58-.63-.94-.15-.36-.23-.75-.23-1.17s.07-.82,.23-1.18,.37-.67,.64-.94,.59-.47,.96-.62c.37-.15,.77-.22,1.21-.22s.81,.07,1.18,.21c.37,.14,.68,.35,.94,.63l-.39,.39c-.24-.24-.5-.42-.79-.53-.29-.11-.6-.16-.93-.16s-.67,.06-.97,.18c-.3,.12-.56,.29-.78,.51s-.39,.47-.52,.76c-.13,.29-.19,.61-.19,.96s.06,.67,.19,.96c.12,.29,.3,.54,.52,.76,.22,.22,.48,.39,.78,.51,.3,.12,.62,.18,.97,.18s.64-.06,.93-.17,.55-.29,.79-.53l.39,.39c-.25,.28-.57,.49-.94,.64s-.77,.22-1.19,.22Z"/>
        <path class="cls-1" d="M183.01,48.61v-5.79h.61v5.79h-.61Z"/>
        <path class="cls-1" d="M188.45,48.66c-.44,0-.84-.07-1.21-.22-.37-.15-.7-.35-.97-.62-.27-.27-.48-.58-.64-.94s-.23-.75-.23-1.17,.08-.82,.23-1.17,.36-.67,.64-.94c.27-.27,.59-.47,.96-.62,.37-.15,.78-.22,1.22-.22s.84,.07,1.21,.22c.37,.15,.69,.35,.96,.62s.48,.58,.64,.94,.23,.75,.23,1.18-.08,.82-.23,1.17c-.15,.36-.36,.67-.64,.94s-.6,.47-.96,.62c-.37,.15-.77,.22-1.21,.22Zm0-.55c.35,0,.67-.06,.96-.18s.55-.29,.77-.51c.22-.22,.39-.47,.51-.76,.12-.29,.18-.61,.18-.96s-.06-.67-.18-.96c-.12-.29-.29-.54-.51-.76s-.47-.39-.77-.51-.62-.18-.96-.18-.67,.06-.97,.18c-.3,.12-.56,.29-.78,.51s-.39,.47-.51,.76-.18,.61-.18,.96,.06,.66,.18,.95c.12,.29,.29,.55,.51,.76,.22,.22,.48,.39,.78,.51,.3,.12,.62,.18,.97,.18Zm-.54-5.77l1.13-1.03h.79l-1.34,1.03h-.58Z"/>
        <path class="cls-1" d="M193.28,48.61v-5.79h.51l4,5.03h-.26v-5.03h.6v5.79h-.51l-3.99-5.03h.26v5.03h-.61Z"/>
        <path class="cls-1" d="M127.73,56.93c-.43,0-.84-.07-1.21-.22-.37-.15-.69-.35-.96-.62s-.48-.58-.63-.94c-.15-.36-.23-.75-.23-1.17s.08-.82,.23-1.18,.36-.67,.64-.94,.59-.47,.96-.62c.37-.15,.77-.22,1.21-.22s.81,.07,1.18,.21c.37,.14,.68,.35,.94,.63l-.39,.39c-.24-.24-.5-.42-.79-.53-.29-.11-.59-.16-.93-.16s-.67,.06-.97,.18c-.3,.12-.56,.29-.78,.51-.22,.22-.39,.47-.52,.76-.12,.29-.19,.61-.19,.96s.06,.67,.19,.96c.13,.29,.3,.54,.52,.76,.22,.22,.48,.39,.78,.51,.3,.12,.62,.18,.97,.18s.64-.06,.93-.17,.55-.29,.79-.53l.39,.39c-.25,.28-.57,.49-.94,.64s-.77,.22-1.19,.22Z"/>
        <path class="cls-1" d="M133.99,56.93c-.44,0-.84-.07-1.21-.22-.37-.15-.7-.35-.97-.62-.27-.27-.49-.58-.64-.94s-.23-.75-.23-1.17,.07-.82,.23-1.17,.37-.67,.64-.94c.27-.27,.59-.47,.96-.62,.37-.15,.78-.22,1.22-.22s.84,.07,1.21,.22c.37,.15,.69,.35,.96,.62s.49,.58,.64,.94,.23,.75,.23,1.18-.07,.82-.23,1.17c-.15,.36-.37,.67-.64,.94s-.59,.47-.96,.62c-.37,.15-.77,.22-1.21,.22Zm0-.55c.35,0,.67-.06,.96-.18s.55-.29,.77-.51c.22-.22,.39-.47,.51-.76,.12-.29,.18-.61,.18-.96s-.06-.67-.18-.96-.29-.54-.51-.76-.47-.39-.77-.51-.62-.18-.96-.18-.67,.06-.97,.18c-.3,.12-.56,.29-.78,.51s-.39,.47-.51,.76-.18,.61-.18,.96,.06,.66,.18,.95c.12,.29,.29,.55,.51,.76,.22,.22,.48,.39,.78,.51,.3,.12,.62,.18,.97,.18Z"/>
        <path class="cls-1" d="M138.82,56.88v-5.79h.51l4,5.03h-.26v-5.03h.6v5.79h-.51l-3.99-5.03h.26v5.03h-.61Z"/>
        <path class="cls-1" d="M148.54,56.88v-5.79h.61v5.79h-.61Z"/>
        <path class="cls-1" d="M151.45,56.88v-5.79h.51l2.65,4.52h-.26l2.62-4.52h.51v5.79h-.59v-4.87h.14l-2.42,4.14h-.29l-2.43-4.14h.16v4.87h-.59Z"/>
        <path class="cls-1" d="M159.77,56.88v-5.79h2.17c.49,0,.91,.08,1.27,.24,.35,.16,.62,.38,.81,.68,.19,.3,.28,.65,.28,1.07s-.09,.76-.28,1.05c-.19,.3-.46,.52-.81,.68-.35,.16-.78,.24-1.27,.24h-1.83l.27-.29v2.12h-.61Zm.61-2.07l-.27-.3h1.81c.58,0,1.02-.13,1.32-.38s.45-.61,.45-1.06-.15-.82-.45-1.08-.74-.38-1.32-.38h-1.81l.27-.29v3.48Z"/>
        <path class="cls-1" d="M164.83,56.88l2.65-5.79h.6l2.65,5.79h-.64l-2.43-5.44h.25l-2.43,5.44h-.64Zm1.04-1.55l.18-.5h3.37l.18,.5h-3.73Z"/>
        <path class="cls-1" d="M174.54,56.93c-.43,0-.84-.07-1.21-.22-.37-.15-.69-.35-.96-.62s-.48-.58-.63-.94c-.15-.36-.23-.75-.23-1.17s.08-.82,.23-1.18,.36-.67,.64-.94,.59-.47,.96-.62c.37-.15,.77-.22,1.21-.22s.81,.07,1.18,.21c.37,.14,.68,.35,.94,.63l-.39,.39c-.24-.24-.5-.42-.79-.53-.29-.11-.59-.16-.93-.16s-.67,.06-.97,.18c-.3,.12-.56,.29-.78,.51-.22,.22-.39,.47-.52,.76-.12,.29-.19,.61-.19,.96s.06,.67,.19,.96c.13,.29,.3,.54,.52,.76,.22,.22,.48,.39,.78,.51,.3,.12,.62,.18,.97,.18s.64-.06,.93-.17,.55-.29,.79-.53l.39,.39c-.25,.28-.57,.49-.94,.64s-.77,.22-1.19,.22Z"/>
        <path class="cls-1" d="M179.44,56.88v-5.26h-2.04v-.53h4.68v.53h-2.03v5.26h-.61Z"/>
        <path class="cls-1" d="M185.93,56.93c-.44,0-.84-.07-1.21-.22-.37-.15-.7-.35-.97-.62-.27-.27-.49-.58-.64-.94s-.23-.75-.23-1.17,.07-.82,.23-1.17,.37-.67,.64-.94c.27-.27,.59-.47,.96-.62,.37-.15,.78-.22,1.22-.22s.84,.07,1.21,.22c.37,.15,.69,.35,.96,.62s.49,.58,.64,.94,.23,.75,.23,1.18-.07,.82-.23,1.17c-.15,.36-.37,.67-.64,.94s-.59,.47-.96,.62c-.37,.15-.77,.22-1.21,.22Zm0-.55c.35,0,.67-.06,.96-.18s.55-.29,.77-.51c.22-.22,.39-.47,.51-.76,.12-.29,.18-.61,.18-.96s-.06-.67-.18-.96-.29-.54-.51-.76-.47-.39-.77-.51-.62-.18-.96-.18-.67,.06-.97,.18c-.3,.12-.56,.29-.78,.51s-.39,.47-.51,.76-.18,.61-.18,.96,.06,.66,.18,.95c.12,.29,.29,.55,.51,.76,.22,.22,.48,.39,.78,.51,.3,.12,.62,.18,.97,.18Z"/>
      </g>
    </g>
  </g>
</svg>