<svg xmlns="http://www.w3.org/2000/svg" data-name="Capa 2" viewBox="0 0 82.27 63.46">
  <path fill="#fff" d="M23.87 15.96V2.7h-5.21V.22h13.35V2.7H26.8v13.26h-2.92Zm11.83 0V.22h6.47c1.39 0 2.59.22 3.58.66 1 .44 1.76 1.08 2.3 1.92s.81 1.84.81 3.01-.27 2.14-.81 2.97c-.54.82-1.31 1.46-2.3 1.91-1 .45-2.19.67-3.58.67h-4.83l1.28-1.3v5.89H35.7Zm2.92-5.57-1.28-1.42h4.7c1.29 0 2.26-.28 2.91-.83s.98-1.33.98-2.32-.33-1.76-.98-2.3c-.65-.55-1.62-.82-2.91-.82h-4.7l1.28-1.44v9.12Zm7.37 5.57-3.98-5.71h3.12l4 5.71h-3.15Zm11.33-2.47h8.88v2.47H54.4V.22h11.49V2.7h-8.56v10.79Zm-.22-6.72h7.82v2.41H57.1zm18.81 9.41c-1.23 0-2.4-.18-3.52-.53s-2.01-.8-2.69-1.36l1.01-2.27c.63.49 1.41.91 2.34 1.24s1.88.49 2.85.49c.82 0 1.49-.09 2-.27s.88-.42 1.12-.73q.36-.465.36-1.05c0-.48-.17-.86-.52-1.16-.34-.29-.79-.52-1.34-.7-.55-.17-1.15-.33-1.82-.47s-1.33-.32-2-.53a8.4 8.4 0 0 1-1.83-.8c-.56-.32-1-.75-1.34-1.29q-.51-.81-.51-2.07c0-1.26.23-1.64.69-2.35S71.86 1.05 72.8.62s2.12-.64 3.56-.64c.94 0 1.88.12 2.81.36s1.74.58 2.43 1.03l-.92 2.27c-.7-.42-1.43-.73-2.18-.93q-1.125-.3-2.16-.3c-.79 0-1.45.1-1.96.29q-.765.285-1.11.78c-.23.32-.35.68-.35 1.07 0 .48.17.87.51 1.16s.78.52 1.33.69c.55.16 1.16.32 1.83.47s1.34.33 2 .53 1.27.47 1.82.79 1 .75 1.34 1.28.5 1.21.5 2.03-.23 1.61-.68 2.33q-.69 1.065-2.1 1.71c-.94.43-2.14.64-3.57.64ZM6.88 39.6 0 23.86h3.17l6.14 14.23H7.47l6.25-14.23h2.9L9.76 39.59H6.88Zm15.47-2.47h8.88v2.47h-11.8V23.87h11.49v2.47h-8.56v10.79Zm-.22-6.72h7.82v2.41h-7.82zm21.37 9.41c-1.21 0-2.33-.2-3.35-.6s-1.91-.96-2.66-1.7c-.76-.73-1.35-1.59-1.76-2.56s-.63-2.05-.63-3.24.21-2.26.63-3.24 1.01-1.83 1.78-2.56c.76-.73 1.66-1.3 2.67-1.7s2.14-.6 3.35-.6c1.29 0 2.46.22 3.53.66 1.06.44 1.96 1.1 2.7 1.97l-1.89 1.78c-.58-.61-1.23-1.08-1.93-1.38-.7-.31-1.46-.46-2.27-.46s-1.58.13-2.26.4-1.27.65-1.78 1.15-.9 1.08-1.18 1.75c-.28.68-.43 1.42-.43 2.23s.14 1.55.43 2.23a5.3 5.3 0 0 0 1.18 1.75c.5.49 1.09.88 1.78 1.15.68.27 1.44.4 2.26.4s1.57-.15 2.27-.46 1.35-.78 1.93-1.4l1.89 1.77q-1.095 1.305-2.7 1.98c-1.06.45-2.25.67-3.55.67Zm13.82-2.69h8.88v2.47H54.4V23.87h11.49v2.47h-8.56v10.79Zm-.22-6.72h7.82v2.41H57.1zm18.81 9.41c-1.23 0-2.4-.18-3.52-.53s-2.01-.8-2.69-1.36l1.01-2.27c.63.49 1.41.91 2.34 1.24s1.88.49 2.85.49c.82 0 1.49-.09 2-.27s.88-.42 1.12-.73q.36-.465.36-1.05c0-.48-.17-.86-.52-1.16s-.79-.52-1.34-.7c-.55-.17-1.15-.33-1.82-.47a21 21 0 0 1-2-.53 8.4 8.4 0 0 1-1.83-.8c-.56-.32-1-.75-1.34-1.29s-.51-1.23-.51-2.07.23-1.64.69-2.35 1.15-1.28 2.09-1.71 2.12-.64 3.56-.64c.94 0 1.88.12 2.81.36s1.74.58 2.43 1.03l-.92 2.27c-.7-.42-1.43-.73-2.18-.93q-1.125-.3-2.16-.3c-.79 0-1.45.1-1.96.29q-.765.285-1.11.78c-.23.32-.35.68-.35 1.07 0 .48.17.87.51 1.16s.78.52 1.33.69c.55.16 1.16.32 1.83.47s1.34.33 2 .53 1.27.47 1.82.79 1 .75 1.34 1.28.5 1.21.5 2.03-.23 1.61-.68 2.33q-.69 1.065-2.1 1.71c-1.41.645-2.14.64-3.57.64ZM23.87 63.24V49.98h-5.21v-2.47h13.35v2.47H26.8v13.26h-2.92Zm11.83 0V47.51h6.47c1.39 0 2.59.22 3.58.66 1 .44 1.76 1.08 2.3 1.92s.81 1.84.81 3.01-.27 2.14-.81 2.97c-.54.82-1.31 1.46-2.3 1.91-1 .45-2.19.67-3.58.67h-4.83l1.28-1.3v5.89zm2.92-5.57-1.28-1.42h4.7c1.29 0 2.26-.28 2.91-.83s.98-1.33.98-2.32-.33-1.76-.98-2.3c-.65-.55-1.62-.82-2.91-.82h-4.7l1.28-1.44zm7.37 5.57-3.98-5.71h3.12l4 5.71h-3.15Zm11.33-2.48h8.88v2.47H54.4V47.5h11.49v2.47h-8.56v10.79Zm-.22-6.72h7.82v2.41H57.1zm18.81 9.42c-1.23 0-2.4-.18-3.52-.53s-2.01-.8-2.69-1.36l1.01-2.27c.63.49 1.41.91 2.34 1.24s1.88.49 2.85.49c.82 0 1.49-.09 2-.27s.88-.42 1.12-.73q.36-.465.36-1.05c0-.48-.17-.86-.52-1.16s-.79-.52-1.34-.7c-.55-.17-1.15-.33-1.82-.47s-1.33-.32-2-.53a8.4 8.4 0 0 1-1.83-.8c-.56-.32-1-.75-1.34-1.29s-.51-1.23-.51-2.07.23-1.64.69-2.35 1.15-1.28 2.09-1.71 2.12-.64 3.56-.64c.94 0 1.88.12 2.81.36s1.74.58 2.43 1.03l-.92 2.27c-.7-.42-1.43-.73-2.18-.93q-1.125-.3-2.16-.3c-.79 0-1.45.1-1.96.29q-.765.285-1.11.78c-.23.32-.35.68-.35 1.07 0 .48.17.87.51 1.16s.78.52 1.33.69c.55.16 1.16.32 1.83.47s1.34.33 2 .53 1.27.47 1.82.79 1 .75 1.34 1.28.5 1.21.5 2.03-.23 1.61-.68 2.33q-.69 1.065-2.1 1.71c-.94.43-2.14.64-3.57.64Z" data-name="Capa 1"/>
</svg>
