<svg xmlns="http://www.w3.org/2000/svg" viewBox="0 0 490.43 539"><g style="isolation:isolate"><g id="Capa_2" data-name="Capa 2"><g id="Capa_1-2" fill="#0c0c0c" data-name="Capa 1" opacity=".18" style="mix-blend-mode:overlay"><path d="M3 366.55h174.57l2.18-6-178.94-.54z"/><path d="M253.55 251.31c31.69-27.24 49.77-66.49 49.77-108.37C303.32 64.12 239.21 0 160.39 0S17.46 64.12 17.46 142.93c0 13.5 1.91 26.72 5.54 39.37h6.83a136 136 0 0 1-5.82-39.37C24 67.73 85.19 6.55 160.39 6.55s136.39 61.18 136.39 136.39c0 41.32-18.45 79.97-50.64 106.03l-3.39 2.74 3.58 2.49c41.15 28.59 65.72 75.51 65.72 125.51 0 84.23-68.53 152.75-152.75 152.75S6.55 463.93 6.55 379.7c0-6.39.4-12.72 1.18-18.97h-6.6C.38 366.98 0 373.31 0 379.7 0 467.54 71.46 539 159.3 539s159.3-71.46 159.3-159.3c0-50.71-24.24-98.39-65.05-128.39"/><path d="M425.38 251.31c31.69-27.24 49.77-66.49 49.77-108.37C475.15 64.12 411.03 0 332.22 0S189.28 64.12 189.28 142.93c0 13.5 1.91 26.72 5.54 39.37h6.83a136 136 0 0 1-5.82-39.37c0-75.2 61.18-136.39 136.39-136.39s136.39 61.18 136.39 136.39c0 41.32-18.45 79.97-50.64 106.03l-3.39 2.74 3.58 2.49c41.15 28.59 65.72 75.51 65.72 125.51 0 84.23-68.53 152.75-152.75 152.75S178.38 463.93 178.38 379.7c0-6.39.4-12.72 1.18-18.97h-6.6c-.75 6.25-1.13 12.58-1.13 18.97 0 87.84 71.46 159.3 159.3 159.3s159.3-71.46 159.3-159.3c0-50.71-24.24-98.39-65.05-128.39"/></g></g></g></svg>