<?xml version="1.0" encoding="UTF-8"?>
<svg id="Capa_2" data-name="Capa 2" xmlns="http://www.w3.org/2000/svg" viewBox="0 0 158.77 158.77">
  <defs>
    <style>
      .cls-1 {
        font-size: 10.79px;
      }

      .cls-1, .cls-2, .cls-3 {
        fill: #fff;
        font-family: Montserrat-ExtraBold, Montserrat;
      }

      .cls-2 {
        font-size: 32.46px;
      }

      .cls-3 {
        font-size: 14.92px;
      }

      .cls-4 {
        fill: #00a947;
        font-family: Montserrat-Medium, Montserrat;
        font-size: 12.45px;
      }

      .cls-5 {
        fill: #227543;
      }
    </style>
  </defs>
  <g id="Capa_1-2" data-name="Capa 1">
    <g>
      <g>
        <path class="cls-5" d="M119.26,79.38c0,22.02-17.85,39.88-39.88,39.88s-39.88-17.85-39.88-39.88,17.85-39.88,39.88-39.88,39.88,17.85,39.88,39.88Z"/>
        <g>
          <path class="cls-5" d="M79.38,154.21c-41.26,0-74.82-33.57-74.82-74.83S38.12,4.56,79.38,4.56s74.82,33.57,74.82,74.83-33.57,74.83-74.82,74.83Zm0-147.06C39.55,7.15,7.15,39.55,7.15,79.38s32.4,72.24,72.23,72.24,72.23-32.4,72.23-72.24S119.21,7.15,79.38,7.15Z"/>
          <path class="cls-5" d="M79.38,158.77C35.61,158.77,0,123.16,0,79.38S35.61,0,79.38,0s79.38,35.61,79.38,79.38-35.61,79.38-79.38,79.38ZM79.38,.43C35.85,.43,.43,35.85,.43,79.38s35.42,78.95,78.95,78.95,78.95-35.42,78.95-78.95S122.92,.43,79.38,.43Z"/>
          <path class="cls-5" d="M79.38,148.88c-38.32,0-69.5-31.18-69.5-69.5S41.06,9.89,79.38,9.89s69.5,31.18,69.5,69.5-31.18,69.5-69.5,69.5Zm0-137.7C41.78,11.18,11.18,41.78,11.18,79.38s30.6,68.2,68.2,68.2,68.2-30.59,68.2-68.2S116.99,11.18,79.38,11.18Z"/>
        </g>
        <g>
          <path class="cls-5" d="M132.2,65.85c-.32-.21-.7,.01-.81,.33-2.33,6.32-2.78,15.16,3.51,19.47-.19,1.68-.57,3.28-1.24,4.73-.3,.64,.66,1.2,.95,.56,.78-1.69,1.21-3.56,1.4-5.49,4.75-6.85,3.26-14.96-3.81-19.6Zm-.2,1.87c.26-.81-.59-1.19,.85,0,1.15,.95,2.14,2.08,3,3.29,2.8,3.92,2.39,8.27,.27,12.16,.02-3.87-.72-7.86-1.45-11.24-.15-.7-1.22-.4-1.07,.29,.77,3.55,1.61,7.99,1.4,12.14-4.93-3.85-4.71-11.25-3-16.65Z"/>
          <path class="cls-5" d="M26.56,91.15c.32,.21,.7-.01,.81-.33,2.33-6.32,2.78-15.16-3.51-19.47,.19-1.68,.57-3.28,1.24-4.73,.3-.64-.66-1.2-.95-.56-.78,1.69-1.21,3.56-1.4,5.5-4.75,6.85-3.26,14.96,3.81,19.6Zm.2-1.87c-.26,.81,.59,1.19-.85,0-1.15-.95-2.14-2.08-3-3.29-2.8-3.92-2.39-8.27-.27-12.16-.02,3.87,.72,7.86,1.45,11.24,.15,.7,1.22,.4,1.07-.29-.77-3.55-1.61-7.99-1.4-12.14,4.93,3.85,4.71,11.25,3,16.65Z"/>
        </g>
      </g>
      <g>
        <g>
          <text class="cls-4" transform="translate(32.13 60.71) rotate(-61.8)"><tspan x="0" y="0">C</tspan></text>
          <text class="cls-4" transform="translate(36.09 53.23) rotate(-51.96)"><tspan x="0" y="0">A</tspan></text>
          <text class="cls-4" transform="translate(41.51 46.26) rotate(-42.33)"><tspan x="0" y="0">R</tspan></text>
          <text class="cls-4" transform="translate(47.96 40.33) rotate(-32.71)"><tspan x="0" y="0">B</tspan></text>
          <text class="cls-4" transform="translate(55.57 35.34) rotate(-22.16)"><tspan x="0" y="0">O</tspan></text>
          <text class="cls-4" transform="translate(64.92 31.49) rotate(-10.67)"><tspan x="0" y="0">N</tspan></text>
          <text class="cls-4" transform="translate(74.64 29.87) rotate(-2.77)"><tspan x="0" y="0"> </tspan></text>
          <text class="cls-4" transform="translate(77.72 29.47) rotate(5.27)"><tspan x="0" y="0">N</tspan></text>
          <text class="cls-4" transform="translate(87.46 30.42) rotate(15.78)"><tspan x="0" y="0">E</tspan></text>
          <text class="cls-4" transform="translate(95.23 32.53) rotate(25.57)"><tspan x="0" y="0">U</tspan></text>
          <text class="cls-4" transform="translate(103.7 36.65) rotate(34.32)"><tspan x="0" y="0">T</tspan></text>
          <text class="cls-4" transform="translate(109.57 40.55) rotate(42.84)"><tspan x="0" y="0">R</tspan></text>
          <text class="cls-4" transform="translate(116.01 46.47) rotate(52.62)"><tspan x="0" y="0">A</tspan></text>
          <text class="cls-4" transform="translate(121.34 53.5) rotate(62.15)"><tspan x="0" y="0">L</tspan></text>
          <g>
            <text class="cls-4" transform="translate(25.31 103.29) rotate(61.38)"><tspan x="0" y="0">C</tspan></text>
            <text class="cls-4" transform="translate(30.17 111.97) rotate(50.39)"><tspan x="0" y="0">A</tspan></text>
            <text class="cls-4" transform="translate(36.71 119.72) rotate(40.44)"><tspan x="0" y="0">R</tspan></text>
            <text class="cls-4" transform="translate(44.38 126.17) rotate(31.11)"><tspan x="0" y="0">B</tspan></text>
            <text class="cls-4" transform="translate(53.36 131.54) rotate(21.25)"><tspan x="0" y="0">O</tspan></text>
            <text class="cls-4" transform="translate(64.21 135.65) rotate(10.54)"><tspan x="0" y="0">N</tspan></text>
            <text class="cls-4" transform="translate(74.99 137.38) rotate(2.89)"><tspan x="0" y="0"> </tspan></text>
            <text class="cls-4" transform="translate(79.11 137.77) rotate(-5.07)"><tspan x="0" y="0">N</tspan></text>
            <text class="cls-4" transform="translate(90.22 136.6) rotate(-15.18)"><tspan x="0" y="0">E</tspan></text>
            <text class="cls-4" transform="translate(99.18 134.15) rotate(-24.38)"><tspan x="0" y="0">U</tspan></text>
            <text class="cls-4" transform="translate(108.74 129.67) rotate(-32.7)"><tspan x="0" y="0">T</tspan></text>
            <text class="cls-4" transform="translate(115.63 125.25) rotate(-41.03)"><tspan x="0" y="0">R</tspan></text>
            <text class="cls-4" transform="translate(123.21 118.56) rotate(-51.07)"><tspan x="0" y="0">A</tspan></text>
            <text class="cls-4" transform="translate(129.49 110.54) rotate(-61.35)"><tspan x="0" y="0">L</tspan></text>
          </g>
        </g>
        <g>
          <g>
            <text class="cls-2" transform="translate(52.91 83.38)"><tspan x="0" y="0">C0</tspan></text>
            <text class="cls-3" transform="translate(98.35 81.91)"><tspan x="0" y="0">2</tspan></text>
          </g>
          <text class="cls-1" transform="translate(53.12 96.14)"><tspan x="0" y="0">NEUTRAL</tspan></text>
        </g>
      </g>
    </g>
  </g>
</svg>