<?xml version="1.0" encoding="UTF-8"?>
<svg id="Capa_2" data-name="Capa 2" xmlns="http://www.w3.org/2000/svg" viewBox="0 0 115.56 98.77">
  <defs>
    <style>
      .cls-1 {
        fill: #fff;
      }
    </style>
  </defs>
  <g id="Capa_1-2" data-name="Capa 1">
    <g>
      <polygon class="cls-1" points="26.24 67.17 58.23 67.17 58.63 66.07 25.84 65.97 26.24 67.17"/>
      <g>
        <path class="cls-1" d="M1.95,48.19v-4.95H0v-.92H4.99v.92h-1.95v4.95H1.95Z"/>
        <path class="cls-1" d="M6.4,48.19v-5.88h2.42c.52,0,.97,.08,1.34,.25,.37,.17,.66,.4,.86,.72,.2,.31,.3,.69,.3,1.13s-.1,.8-.3,1.11c-.2,.31-.49,.55-.86,.71-.37,.17-.82,.25-1.34,.25h-1.81l.48-.49v2.2h-1.09Zm1.09-2.08l-.48-.53h1.76c.48,0,.84-.1,1.09-.31,.24-.21,.37-.5,.37-.86s-.12-.66-.37-.86c-.24-.2-.61-.31-1.09-.31h-1.76l.48-.54v3.41Zm2.75,2.08l-1.49-2.13h1.17l1.49,2.13h-1.18Z"/>
        <path class="cls-1" d="M14.22,47.26h3.32v.92h-4.41v-5.88h4.29v.92h-3.2v4.03Zm-.08-2.51h2.92v.9h-2.92v-.9Z"/>
        <path class="cls-1" d="M21.16,48.27c-.46,0-.9-.07-1.31-.2-.42-.13-.75-.3-1-.51l.38-.85c.24,.18,.53,.34,.87,.46,.35,.12,.7,.18,1.07,.18,.31,0,.56-.03,.75-.1,.19-.07,.33-.16,.42-.27,.09-.11,.13-.24,.13-.39,0-.18-.06-.32-.19-.43s-.3-.2-.5-.26c-.2-.06-.43-.12-.68-.18s-.5-.12-.75-.2c-.25-.08-.48-.18-.68-.3-.21-.12-.37-.28-.5-.48s-.19-.46-.19-.77,.09-.61,.26-.88,.43-.48,.78-.64c.35-.16,.79-.24,1.33-.24,.35,0,.7,.04,1.05,.13s.65,.22,.91,.39l-.34,.85c-.26-.16-.53-.27-.81-.35-.28-.08-.55-.11-.81-.11-.3,0-.54,.04-.73,.11-.19,.07-.33,.17-.42,.29-.09,.12-.13,.25-.13,.4,0,.18,.06,.32,.19,.43,.13,.11,.29,.19,.5,.26,.2,.06,.43,.12,.68,.18,.25,.06,.5,.12,.75,.2,.25,.08,.47,.17,.68,.29,.21,.12,.37,.28,.5,.48,.13,.2,.19,.45,.19,.76s-.09,.6-.26,.87c-.17,.27-.43,.48-.79,.64s-.8,.24-1.34,.24Z"/>
        <path class="cls-1" d="M29.85,48.19l-2.57-5.88h1.18l2.29,5.32h-.69l2.33-5.32h1.08l-2.56,5.88h-1.07Z"/>
        <path class="cls-1" d="M35.79,47.26h3.32v.92h-4.41v-5.88h4.29v.92h-3.2v4.03Zm-.08-2.51h2.92v.9h-2.92v-.9Z"/>
        <path class="cls-1" d="M43.63,48.27c-.45,0-.87-.07-1.25-.22-.38-.15-.71-.36-1-.63-.28-.27-.5-.59-.66-.96s-.24-.77-.24-1.21,.08-.85,.24-1.21,.38-.68,.66-.96c.29-.27,.62-.49,1-.63s.8-.22,1.25-.22c.48,0,.92,.08,1.32,.25,.4,.17,.73,.41,1.01,.73l-.71,.66c-.22-.23-.46-.4-.72-.52-.26-.11-.55-.17-.85-.17s-.59,.05-.84,.15-.48,.24-.66,.43-.33,.4-.44,.65c-.11,.25-.16,.53-.16,.83s.05,.58,.16,.83,.25,.47,.44,.66c.19,.18,.41,.33,.66,.43s.54,.15,.84,.15,.58-.06,.85-.17,.5-.29,.72-.52l.71,.66c-.27,.32-.61,.57-1.01,.74s-.84,.25-1.33,.25Z"/>
        <path class="cls-1" d="M48.7,47.26h3.32v.92h-4.41v-5.88h4.29v.92h-3.2v4.03Zm-.08-2.51h2.92v.9h-2.92v-.9Z"/>
        <path class="cls-1" d="M55.64,48.27c-.46,0-.9-.07-1.31-.2-.42-.13-.75-.3-1-.51l.38-.85c.24,.18,.53,.34,.87,.46,.35,.12,.7,.18,1.07,.18,.31,0,.56-.03,.75-.1,.19-.07,.33-.16,.42-.27,.09-.11,.13-.24,.13-.39,0-.18-.06-.32-.19-.43s-.3-.2-.5-.26c-.2-.06-.43-.12-.68-.18s-.5-.12-.75-.2c-.25-.08-.48-.18-.68-.3-.21-.12-.37-.28-.5-.48s-.19-.46-.19-.77,.09-.61,.26-.88,.43-.48,.78-.64c.35-.16,.79-.24,1.33-.24,.35,0,.7,.04,1.05,.13s.65,.22,.91,.39l-.34,.85c-.26-.16-.53-.27-.81-.35-.28-.08-.55-.11-.81-.11-.3,0-.54,.04-.73,.11-.19,.07-.33,.17-.42,.29-.09,.12-.13,.25-.13,.4,0,.18,.06,.32,.19,.43,.13,.11,.29,.19,.5,.26,.2,.06,.43,.12,.68,.18,.25,.06,.5,.12,.75,.2,.25,.08,.47,.17,.68,.29,.21,.12,.37,.28,.5,.48,.13,.2,.19,.45,.19,.76s-.09,.6-.26,.87c-.17,.27-.43,.48-.79,.64s-.8,.24-1.34,.24Z"/>
        <path class="cls-1" d="M36.43,57.38v-4.95h-1.95v-.92h4.99v.92h-1.95v4.95h-1.09Z"/>
        <path class="cls-1" d="M40.88,57.38v-5.88h2.42c.52,0,.97,.08,1.34,.25,.37,.17,.66,.4,.86,.72,.2,.31,.3,.69,.3,1.13s-.1,.8-.3,1.11c-.2,.31-.49,.55-.86,.71-.37,.17-.82,.25-1.34,.25h-1.81l.48-.49v2.2h-1.09Zm1.09-2.08l-.48-.53h1.76c.48,0,.84-.1,1.09-.31,.24-.21,.37-.5,.37-.86s-.12-.66-.37-.86c-.24-.2-.61-.31-1.09-.31h-1.76l.48-.54v3.41Zm2.75,2.08l-1.49-2.13h1.17l1.49,2.13h-1.18Z"/>
        <path class="cls-1" d="M48.7,56.46h3.32v.92h-4.41v-5.88h4.29v.92h-3.2v4.03Zm-.08-2.51h2.92v.9h-2.92v-.9Z"/>
        <path class="cls-1" d="M55.64,57.47c-.46,0-.9-.07-1.31-.2-.42-.13-.75-.3-1-.51l.38-.85c.24,.18,.53,.34,.87,.46,.35,.12,.7,.18,1.07,.18,.31,0,.56-.03,.75-.1,.19-.07,.33-.16,.42-.27,.09-.11,.13-.24,.13-.39,0-.18-.06-.32-.19-.43s-.3-.2-.5-.26c-.2-.06-.43-.12-.68-.18s-.5-.12-.75-.2c-.25-.08-.48-.18-.68-.3-.21-.12-.37-.28-.5-.48s-.19-.46-.19-.77,.09-.61,.26-.88,.43-.48,.78-.64c.35-.16,.79-.24,1.33-.24,.35,0,.7,.04,1.05,.13s.65,.22,.91,.39l-.34,.85c-.26-.16-.53-.27-.81-.35-.28-.08-.55-.11-.81-.11-.3,0-.54,.04-.73,.11-.19,.07-.33,.17-.42,.29-.09,.12-.13,.25-.13,.4,0,.18,.06,.32,.19,.43,.13,.11,.29,.19,.5,.26,.2,.06,.43,.12,.68,.18,.25,.06,.5,.12,.75,.2,.25,.08,.47,.17,.68,.29,.21,.12,.37,.28,.5,.48,.13,.2,.19,.45,.19,.76s-.09,.6-.26,.87c-.17,.27-.43,.48-.79,.64s-.8,.24-1.34,.24Z"/>
      </g>
      <path class="cls-1" d="M72.15,46.05c5.81-4.99,9.12-12.18,9.12-19.86,0-14.44-11.75-26.19-26.19-26.19S28.89,11.75,28.89,26.19c0,2.47,.35,4.9,1.01,7.21h1.25c-.7-2.31-1.07-4.74-1.07-7.21C30.09,12.41,41.3,1.2,55.08,1.2s24.99,11.21,24.99,24.99c0,7.57-3.38,14.65-9.28,19.43l-.62,.5,.66,.46c7.54,5.24,12.04,13.84,12.04,23,0,15.43-12.56,27.99-27.99,27.99s-27.99-12.56-27.99-27.99c0-1.17,.07-2.33,.22-3.48h-1.21c-.14,1.15-.21,2.31-.21,3.48,0,16.1,13.1,29.19,29.19,29.19s29.19-13.1,29.19-29.19c0-9.29-4.44-18.03-11.92-23.53Z"/>
      <path class="cls-1" d="M103.64,46.05c5.81-4.99,9.12-12.18,9.12-19.86,0-14.44-11.75-26.19-26.19-26.19s-26.19,11.75-26.19,26.19c0,2.47,.35,4.9,1.01,7.21h1.25c-.7-2.31-1.07-4.74-1.07-7.21,0-13.78,11.21-24.99,24.99-24.99s24.99,11.21,24.99,24.99c0,7.57-3.38,14.65-9.28,19.43l-.62,.5,.66,.46c7.54,5.24,12.04,13.84,12.04,23,0,15.43-12.56,27.99-27.99,27.99s-27.99-12.56-27.99-27.99c0-1.17,.07-2.33,.22-3.48h-1.21c-.14,1.15-.21,2.31-.21,3.48,0,16.1,13.1,29.19,29.19,29.19s29.19-13.1,29.19-29.19c0-9.29-4.44-18.03-11.92-23.53Z"/>
    </g>
  </g>
</svg>