<?xml version="1.0" encoding="UTF-8"?>
<svg id="Capa_2" data-name="Capa 2" xmlns="http://www.w3.org/2000/svg" viewBox="0 0 82.27 63.46">
  <defs>
    <style>
      .cls-1 {
        fill: #fff;
      }
    </style>
  </defs>
  <g id="Capa_1-2" data-name="Capa 1">
    <g>
      <g>
        <path class="cls-1" d="M23.87,15.96V2.7h-5.21V.22h13.35V2.7h-5.21V15.96h-2.92Z"/>
        <path class="cls-1" d="M35.7,15.96V.22h6.47c1.39,0,2.59,.22,3.58,.66,1,.44,1.76,1.08,2.3,1.92,.54,.84,.81,1.84,.81,3.01s-.27,2.14-.81,2.97c-.54,.82-1.31,1.46-2.3,1.91-1,.45-2.19,.67-3.58,.67h-4.83l1.28-1.3v5.89h-2.92Zm2.92-5.57l-1.28-1.42h4.7c1.29,0,2.26-.28,2.91-.83,.65-.55,.98-1.33,.98-2.32s-.33-1.76-.98-2.3c-.65-.55-1.62-.82-2.91-.82h-4.7l1.28-1.44V10.38Zm7.37,5.57l-3.98-5.71h3.12l4,5.71h-3.15Z"/>
        <path class="cls-1" d="M57.32,13.49h8.88v2.47h-11.8V.22h11.49V2.7h-8.56V13.49Zm-.22-6.72h7.82v2.41h-7.82v-2.41Z"/>
        <path class="cls-1" d="M75.91,16.18c-1.23,0-2.4-.18-3.52-.53-1.12-.35-2.01-.8-2.69-1.36l1.01-2.27c.63,.49,1.41,.91,2.34,1.24,.93,.33,1.88,.49,2.85,.49,.82,0,1.49-.09,2-.27,.51-.18,.88-.42,1.12-.73,.24-.31,.36-.66,.36-1.05,0-.48-.17-.86-.52-1.16-.34-.29-.79-.52-1.34-.7-.55-.17-1.15-.33-1.82-.47s-1.33-.32-2-.53c-.67-.21-1.28-.47-1.83-.8-.56-.32-1-.75-1.34-1.29-.34-.54-.51-1.23-.51-2.07s.23-1.64,.69-2.35,1.15-1.28,2.09-1.71c.94-.43,2.12-.64,3.56-.64,.94,0,1.88,.12,2.81,.36,.93,.24,1.74,.58,2.43,1.03l-.92,2.27c-.7-.42-1.43-.73-2.18-.93-.75-.2-1.47-.3-2.16-.3-.79,0-1.45,.1-1.96,.29-.51,.19-.88,.45-1.11,.78-.23,.32-.35,.68-.35,1.07,0,.48,.17,.87,.51,1.16,.34,.29,.78,.52,1.33,.69,.55,.16,1.16,.32,1.83,.47,.67,.15,1.34,.33,2,.53,.66,.2,1.27,.47,1.82,.79,.55,.32,1,.75,1.34,1.28,.34,.53,.5,1.21,.5,2.03s-.23,1.61-.68,2.33c-.46,.71-1.16,1.28-2.1,1.71-.94,.43-2.14,.64-3.57,.64Z"/>
      </g>
      <g>
        <path class="cls-1" d="M6.88,39.6L0,23.86H3.17l6.14,14.23h-1.84l6.25-14.23h2.9l-6.86,15.73h-2.88Z"/>
        <path class="cls-1" d="M22.35,37.13h8.88v2.47h-11.8v-15.73h11.49v2.47h-8.56v10.79Zm-.22-6.72h7.82v2.41h-7.82v-2.41Z"/>
        <path class="cls-1" d="M43.5,39.82c-1.21,0-2.33-.2-3.35-.6-1.02-.4-1.91-.96-2.66-1.7-.76-.73-1.35-1.59-1.76-2.56s-.63-2.05-.63-3.24,.21-2.26,.63-3.24,1.01-1.83,1.78-2.56c.76-.73,1.66-1.3,2.67-1.7s2.14-.6,3.35-.6c1.29,0,2.46,.22,3.53,.66,1.06,.44,1.96,1.1,2.7,1.97l-1.89,1.78c-.58-.61-1.23-1.08-1.93-1.38-.7-.31-1.46-.46-2.27-.46s-1.58,.13-2.26,.4-1.27,.65-1.78,1.15-.9,1.08-1.18,1.75c-.28,.68-.43,1.42-.43,2.23s.14,1.55,.43,2.23c.28,.67,.68,1.26,1.18,1.75,.5,.49,1.09,.88,1.78,1.15,.68,.27,1.44,.4,2.26,.4s1.57-.15,2.27-.46c.7-.31,1.35-.78,1.93-1.4l1.89,1.77c-.73,.87-1.63,1.53-2.7,1.98-1.06,.45-2.25,.67-3.55,.67Z"/>
        <path class="cls-1" d="M57.32,37.13h8.88v2.47h-11.8v-15.73h11.49v2.47h-8.56v10.79Zm-.22-6.72h7.82v2.41h-7.82v-2.41Z"/>
        <path class="cls-1" d="M75.91,39.82c-1.23,0-2.4-.18-3.52-.53-1.12-.35-2.01-.8-2.69-1.36l1.01-2.27c.63,.49,1.41,.91,2.34,1.24,.93,.33,1.88,.49,2.85,.49,.82,0,1.49-.09,2-.27,.51-.18,.88-.42,1.12-.73,.24-.31,.36-.66,.36-1.05,0-.48-.17-.86-.52-1.16s-.79-.52-1.34-.7c-.55-.17-1.15-.33-1.82-.47-.67-.14-1.33-.32-2-.53-.67-.21-1.28-.47-1.83-.8-.56-.32-1-.75-1.34-1.29s-.51-1.23-.51-2.07,.23-1.64,.69-2.35,1.15-1.28,2.09-1.71c.94-.43,2.12-.64,3.56-.64,.94,0,1.88,.12,2.81,.36,.93,.24,1.74,.58,2.43,1.03l-.92,2.27c-.7-.42-1.43-.73-2.18-.93-.75-.2-1.47-.3-2.16-.3-.79,0-1.45,.1-1.96,.29-.51,.19-.88,.45-1.11,.78-.23,.32-.35,.68-.35,1.07,0,.48,.17,.87,.51,1.16,.34,.29,.78,.52,1.33,.69,.55,.16,1.16,.32,1.83,.47,.67,.15,1.34,.33,2,.53,.66,.2,1.27,.47,1.82,.79,.55,.32,1,.75,1.34,1.28,.34,.53,.5,1.21,.5,2.03s-.23,1.61-.68,2.33c-.46,.71-1.16,1.28-2.1,1.71s-2.14,.64-3.57,.64Z"/>
      </g>
      <g>
        <path class="cls-1" d="M23.87,63.24v-13.26h-5.21v-2.47h13.35v2.47h-5.21v13.26h-2.92Z"/>
        <path class="cls-1" d="M35.7,63.24v-15.73h6.47c1.39,0,2.59,.22,3.58,.66,1,.44,1.76,1.08,2.3,1.92,.54,.84,.81,1.84,.81,3.01s-.27,2.14-.81,2.97c-.54,.82-1.31,1.46-2.3,1.91-1,.45-2.19,.67-3.58,.67h-4.83l1.28-1.3v5.89h-2.92Zm2.92-5.57l-1.28-1.42h4.7c1.29,0,2.26-.28,2.91-.83,.65-.55,.98-1.33,.98-2.32s-.33-1.76-.98-2.3c-.65-.55-1.62-.82-2.91-.82h-4.7l1.28-1.44v9.13Zm7.37,5.57l-3.98-5.71h3.12l4,5.71h-3.15Z"/>
        <path class="cls-1" d="M57.32,60.76h8.88v2.47h-11.8v-15.73h11.49v2.47h-8.56v10.79Zm-.22-6.72h7.82v2.41h-7.82v-2.41Z"/>
        <path class="cls-1" d="M75.91,63.46c-1.23,0-2.4-.18-3.52-.53-1.12-.35-2.01-.8-2.69-1.36l1.01-2.27c.63,.49,1.41,.91,2.34,1.24,.93,.33,1.88,.49,2.85,.49,.82,0,1.49-.09,2-.27,.51-.18,.88-.42,1.12-.73,.24-.31,.36-.66,.36-1.05,0-.48-.17-.86-.52-1.16s-.79-.52-1.34-.7c-.55-.17-1.15-.33-1.82-.47s-1.33-.32-2-.53c-.67-.21-1.28-.47-1.83-.8-.56-.32-1-.75-1.34-1.29s-.51-1.23-.51-2.07,.23-1.64,.69-2.35,1.15-1.28,2.09-1.71c.94-.43,2.12-.64,3.56-.64,.94,0,1.88,.12,2.81,.36,.93,.24,1.74,.58,2.43,1.03l-.92,2.27c-.7-.42-1.43-.73-2.18-.93-.75-.2-1.47-.3-2.16-.3-.79,0-1.45,.1-1.96,.29-.51,.19-.88,.45-1.11,.78-.23,.32-.35,.68-.35,1.07,0,.48,.17,.87,.51,1.16,.34,.29,.78,.52,1.33,.69,.55,.16,1.16,.32,1.83,.47,.67,.15,1.34,.33,2,.53,.66,.2,1.27,.47,1.82,.79,.55,.32,1,.75,1.34,1.28,.34,.53,.5,1.21,.5,2.03s-.23,1.61-.68,2.33c-.46,.71-1.16,1.28-2.1,1.71-.94,.43-2.14,.64-3.57,.64Z"/>
      </g>
    </g>
  </g>
</svg>