<svg xmlns="http://www.w3.org/2000/svg" id="Capa_2" data-name="Capa 2" viewBox="0 0 361.28 116.21"><g id="Capa_1-2" data-name="Capa 1"><g id="Capa_1-2" fill="#fff" data-name="Capa 1-2"><path d="m138.79 56.77-4.33 11.56c0 .09 0 .17-.03.27-.02.07-.05.14-.1.2v.2l-.13.53c-.04.15-.07.3-.07.45 0 1.09.37 1.99 1.12 2.7.74.7 1.6 1.05 2.56 1.05v.85h-12.94v-.92c1.01.04 1.86-.17 2.56-.62s1.29-1.52 1.78-3.18L140.7 39.9l.1-.2c.03-.09.03-.17.03-.26.13-.4.24-.78.33-1.18s.13-.74.13-1.05c0-.53-.13-.99-.36-1.41-.24-.41-.65-.62-1.22-.62v-.98h13.99v.92c-.48.04-.88.28-1.18.72-.31.43-.49.93-.53 1.45-.04.08-.07.17-.07.26v.26c.03.4.12.8.27 1.18 0 .09.03.17.07.26.04.08.07.17.07.26l11.11 30.81c.23.54.49 1.07.78 1.58.27.44.61.85 1.05 1.25s.94.6 1.51.6v.85h-14.45v-.92c1.14-.4 1.97-.98 2.53-1.78s.82-1.62.82-2.5c0-.61-.13-1.26-.36-1.93-.26-.72-.58-1.41-.95-2.07-1.6-2.38-3.72-4.36-6.21-5.78-2.81-1.75-6.05-2.7-9.36-2.76v-.07h-.01Zm7.23-2.33c1.97.64 3.89 1.92 5.78 3.85l-6.7-19.37-5.38 14.52c2.23.04 4.33.38 6.31 1.02Zm25.35-11.52c-1.89.82-3.45 2.77-4.72 5.84l-.88-.47 2.53-10.91c1.15.61 2.44.93 3.75.91l1.86.03 18.56-.06c.91.04 1.69.01 2.36-.06.67-.09 1.22-.33 1.65-.77l2.53 11.26-.82.41a8.9 8.9 0 0 0-4.19-5.85c-2.16-1.29-4.96-1.93-8.37-1.93v28.93c0 1.29.34 2.16 1.04 2.57.68.41 1.45.72 2.27.91 0 .04 0 .06.03.06h.09v.77h-13.44v-.82c.93-.12 1.81-.5 2.53-1.09.6-.53.88-1.45.88-2.74V41.33c-3.22.24-5.78.77-7.66 1.59m51.8-1.18s.07-.01.09-.06.03-.11.03-.17l.11-.38c.04-.14.06-.24.06-.33 0-.43-.18-.81-.55-1.12s-.85-.47-1.45-.47v-.88h10.78v.82c-.16.04-.33.07-.5.09a5.7 5.7 0 0 0-1.97.64c-.57.31-1.1.69-1.56 1.15-.09.1-.16.23-.21.36l-8.31 11.6 11.32 16.86c1.07 1.73 1.96 2.83 2.68 3.27.72.45 1.41.68 2.03.68v.77h-14.73v-.82c.09.04.16.06.24.06h.3c.07.04.16.06.24.06h.24c.55 0 1.04-.14 1.48-.41.43-.27.65-.71.65-1.29-.07-.95-.4-1.87-.95-2.66l-7.31-11.38-7.84 11.73-.21.41c-.16.34-.31.68-.44 1.04-.09.21-.11.4-.11.55 0 .62.3 1.11.88 1.45s1.26.5 2 .5v.77h-11.55v-.82c.24.04.45.04.68 0 .21-.04.44-.11.68-.24.51-.24 1.07-.7 1.68-1.39.61-.68 1.45-1.72 2.5-3.1l10.01-13.91-9.54-13.79A5.3 5.3 0 0 0 203 39.8c-.69-.4-1.48-.6-2.27-.58v-.88h14.26v.82c-.16.04-.34.07-.53.09l-.6.09c-.4.12-.78.3-1.12.53-.36.24-.53.58-.53 1.07 0 .24.06.5.17.8s.27.6.47.91l4.72 6.96 5.6-7.84h.01Zm35.18-3.88c6.6.43 11.49 2.56 14.67 6.36a19.05 19.05 0 0 1 4.77 12.5v1.01c-.2 4.57-2.05 8.92-5.21 12.23-3.32 3.68-7.97 5.51-13.93 5.51h-.71c-6.25-.24-10.99-2.27-14.26-6.14a19.4 19.4 0 0 1-4.96-12.67v-.71c.11-4.45 1.8-8.52 5.04-12.23s8.11-5.65 14.59-5.81v-.06Zm-12.14 22.46c1.14 3.89 2.76 6.83 4.86 8.81 1.96 2 4.56 3.25 7.34 3.54l.71.03c.2 0 .38 0 .55-.03l.55-.03c.71-.11 1.42-.3 2.14-.55 2.92-.84 5.39-2.79 6.89-5.43 1.35-2.25 2.03-4.83 1.97-7.46 0-1.69-.27-3.49-.82-5.43-.6-2.04-1.45-4-2.53-5.84a12.71 12.71 0 0 0-10.98-6.65h-.17c-2.92.1-5.69 1.35-7.68 3.48q-3.51 3.405-3.51 10.14c0 .67.06 1.41.17 2.22l.36 2.44c0 .11 0 .24.03.38l.09.44v-.06zm64.36-18.17c0-1.07-.28-1.75-.85-2.06a7.1 7.1 0 0 0-2.66-.8l-.44-.09v-.88h11.26v.82c-.87.24-1.65.54-2.36.91s-1.07 1.09-1.07 2.14v26.76c0 1.76.3 3.01.91 3.74.61.72 1.45 1.09 2.5 1.09v.77h-10.85v-.82c1.14.04 2.02-.24 2.63-.85s.91-1.46.91-2.56v-8.2c.03-.79-.07-1.58-.3-2.33a3.64 3.64 0 0 0-1.07-1.45c-.23-.26-.48-.49-.77-.68l-1.01-.74-17.27-14.37v26.87c0 1.45.3 2.44.91 2.98.61.53 1.29.91 2.03 1.15l.44.11.38.11h.11v.77h-11.19v-.82c.95-.13 1.83-.53 2.56-1.15.61-.57.91-1.61.91-3.1V43.02c0-1.45-.3-2.4-.91-2.85-.77-.52-1.64-.85-2.56-.97v-.88h14.73v.82c-.2.09-.37.16-.5.24-.14.09-.27.17-.38.3a.4.4 0 0 0-.09.14l-.03.14c0 .2.18.45.55.77l1.26 1.07 12.14 9.9v-9.54l.04-.03Zm22.73 14.6-4.33 11.56c0 .09 0 .17-.03.27s-.06.16-.1.2v.2l-.13.53c-.04.15-.07.3-.07.45 0 1.09.37 1.99 1.12 2.7.74.7 1.59 1.05 2.56 1.05v.85h-12.94v-.92c1.01.04 1.86-.17 2.56-.62s1.29-1.52 1.78-3.18l11.49-29.96.1-.2c.03-.09.03-.17.03-.26.13-.4.24-.78.33-1.18s.13-.74.13-1.05c0-.53-.13-.99-.36-1.41-.24-.41-.65-.62-1.22-.62v-.98h13.99v.92c-.48.04-.88.28-1.18.72-.31.43-.49.93-.53 1.45-.04.08-.07.17-.07.26v.26c.03.4.12.8.27 1.18 0 .09.03.17.07.26.04.08.07.17.07.26l11.11 30.81c.23.54.49 1.07.78 1.58.27.44.61.85 1.05 1.25s.94.6 1.51.6v.85h-14.45v-.92c1.14-.4 1.97-.98 2.53-1.78s.82-1.62.82-2.5c0-.61-.13-1.26-.36-1.93-.26-.72-.58-1.41-.95-2.07-1.6-2.38-3.72-4.36-6.21-5.78-2.81-1.75-6.05-2.7-9.36-2.76v-.07h-.01Zm7.23-2.33c1.97.64 3.89 1.92 5.78 3.85l-6.7-19.37-5.38 14.52c2.23.04 4.33.38 6.31 1.02ZM210.69 24.47c-.88 0-1.69-.14-2.43-.43a5.62 5.62 0 0 1-3.64-5.4c0-.85.16-1.62.45-2.33a5.82 5.82 0 0 1 3.21-3.07c.74-.28 1.55-.43 2.44-.43s1.72.14 2.47.44 1.38.74 1.9 1.32l-1.01 1.01a4.42 4.42 0 0 0-3.3-1.31c-.64 0-1.25.11-1.82.33s-1.04.53-1.45.91-.72.85-.94 1.39a4.65 4.65 0 0 0 0 3.48 4.13 4.13 0 0 0 2.37 2.32c1.15.41 2.4.42 3.55.04.55-.18 1.08-.51 1.55-.95l.92 1.24c-.58.49-1.25.85-1.97 1.08-.75.24-1.53.37-2.33.37Zm2.74-1.68v-4.23h1.56v4.45l-1.56-.21Zm7.93 1.53V12.95h4.45c.99 0 1.85.16 2.56.47s1.25.77 1.62 1.36q.57.9.57 2.13c0 1.23-.18 1.53-.57 2.12-.38.6-.92 1.04-1.62 1.36-.71.31-1.56.47-2.56.47h-3.55l.72-.75v4.2h-1.62v.03Zm1.62-4.05-.72-.8h3.49c1.04 0 1.83-.23 2.37-.68s.81-1.08.81-1.89-.27-1.43-.81-1.89c-.54-.44-1.32-.67-2.37-.67h-3.49l.72-.81v6.73Zm5.98 4.05-2.9-4.13h1.73l2.93 4.13zm12.19.13c-1.49 0-2.67-.43-3.52-1.28s-1.28-2.1-1.28-3.75v-6.48h1.62v6.41c0 1.26.28 2.2.84 2.78.55.58 1.35.88 2.37.88s1.82-.3 2.39-.88.84-1.51.84-2.78v-6.41h1.58v6.48c0 1.65-.43 2.9-1.28 3.75s-2.03 1.28-3.54 1.28h-.01Zm11.39-.13V12.95h4.45c.99 0 1.85.16 2.56.47s1.25.77 1.63 1.36q.57.9.57 2.13c0 1.23-.18 1.53-.57 2.12-.38.6-.92 1.05-1.63 1.36-.71.33-1.56.48-2.56.48h-3.55l.74-.77v4.2h-1.62v.03Zm1.6-4.05-.74-.81h3.49c1.04 0 1.83-.23 2.37-.67s.81-1.08.81-1.89-.27-1.43-.81-1.89-1.32-.67-2.37-.67h-3.49l.74-.81v6.73Zm18.52 4.18c-1.61.01-3.16-.58-4.35-1.66a5.56 5.56 0 0 1-1.72-4.16 5.55 5.55 0 0 1 3.64-5.38c2.3-.86 4.89-.4 6.75 1.21.55.53.97 1.14 1.26 1.85s.44 1.48.44 2.33-.14 1.62-.44 2.33a5.55 5.55 0 0 1-3.18 3.07c-.72.28-1.53.43-2.4.43Zm0-1.45c.62 0 1.21-.11 1.75-.33.54-.21 1.01-.53 1.39-.92.4-.4.71-.85.92-1.39.66-1.67.3-3.56-.92-4.87a4.4 4.4 0 0 0-3.14-1.25c-.62 0-1.22.11-1.76.33s-1.01.53-1.41.92c-.83.83-1.29 1.96-1.26 3.14 0 .64.11 1.21.33 1.73a4.32 4.32 0 0 0 4.1 2.64M152.71 94.56v-7.09h2.8c.75 0 1.41.16 1.97.45 1.15.59 1.85 1.79 1.79 3.08 0 .68-.16 1.29-.47 1.83s-.75.95-1.32 1.25-1.22.45-1.97.45h-2.8Zm.51-.45h2.24c.67 0 1.25-.13 1.75-.4s.88-.62 1.15-1.09.41-.99.41-1.59-.14-1.14-.41-1.59-.65-.82-1.15-1.09c-.54-.28-1.14-.41-1.75-.4h-2.24v6.15Zm10.38.01h4.37v.47h-4.89V87.5h4.74v.47h-4.22zh-.01Zm-.06-3.37h3.83v.45h-3.83zm10.21 3.88c-.53 0-1.02-.09-1.49-.27s-.84-.41-1.09-.7l.23-.38c.24.26.58.45.99.64.43.17.87.26 1.34.26s.85-.06 1.16-.18.53-.3.67-.5c.14-.21.21-.44.21-.7 0-.3-.09-.54-.24-.72s-.37-.33-.64-.44q-.42-.18-.87-.27l-.94-.24q-.45-.12-.87-.33c-.26-.12-.48-.32-.64-.55-.17-.27-.25-.59-.24-.91 0-.34.09-.65.27-.94.17-.28.45-.51.82-.7.83-.32 1.75-.35 2.6-.1.38.11.71.27.98.47l-.2.41c-.9-.61-2.04-.76-3.07-.4-.26.1-.49.28-.65.51-.14.21-.21.46-.21.71 0 .3.09.54.24.72.16.18.37.33.64.44s.55.2.87.27l.94.24q.465.135.87.33c.27.14.47.31.64.54.16.23.24.53.24.89 0 .33-.09.64-.27.92s-.45.51-.84.68c-.37.17-.85.26-1.45.26v.03Zm5.14-.04 3.27-7.09h.51l3.27 7.09h-.55l-3.08-6.76h.23l-3.07 6.76h-.57Zm1.19-1.99.17-.44h4.25l.17.44zm9.15 1.99V87.5h2.54c.6 0 1.11.1 1.53.28s.75.45.98.81.34.78.34 1.29-.11.92-.34 1.26c-.23.36-.55.62-.98.82s-.94.28-1.53.28h-2.26l.23-.24v2.56h-.51Zm.51-2.51-.23-.24h2.26c.77 0 1.34-.17 1.73-.51s.6-.81.6-1.42-.2-1.09-.6-1.42-.98-.5-1.73-.5h-2.26l.23-.26zm4.4 2.53-1.85-2.57h.58l1.85 2.57zm4.4 0v-7.09h2.54c.6 0 1.11.1 1.53.28s.75.45.98.81.34.78.34 1.29-.11.92-.34 1.26c-.23.36-.55.62-.98.82s-.94.28-1.53.28h-2.26l.23-.24v2.56h-.51Zm.51-2.51-.23-.24h2.26c.77 0 1.34-.17 1.73-.51s.6-.81.6-1.42-.2-1.09-.6-1.42-.98-.5-1.73-.5h-2.26l.23-.26zm4.4 2.53-1.85-2.57h.58l1.85 2.57zm7.41.04c-.98 0-1.92-.36-2.64-1.02-.34-.33-.6-.71-.78-1.15s-.27-.91-.27-1.42.09-.99.27-1.42.44-.82.78-1.15.72-.58 1.18-.75a4.1 4.1 0 0 1 2.93 0 3.48 3.48 0 0 1 1.95 1.89c.18.44.28.91.28 1.43s-.1.99-.28 1.43-.44.81-.78 1.14c-.71.66-1.65 1.03-2.63 1.02Zm0-.47c.45 0 .87-.07 1.25-.23a3.02 3.02 0 0 0 1.92-2.88c0-.83-.33-1.63-.91-2.23-.28-.28-.62-.5-1.01-.65s-.81-.23-1.25-.23-.87.07-1.25.23a3.02 3.02 0 0 0-1.92 2.88c0 .44.09.85.24 1.24.31.76.92 1.35 1.68 1.65.38.16.81.23 1.25.23Zm7.5.43v-7.09h.51v6.62h4.08v.47zm7.95 0v-7.09h.51v6.62h4.08v.47zm10.81.04c-.98 0-1.92-.36-2.64-1.02-.34-.33-.6-.71-.78-1.15s-.27-.91-.27-1.42.09-.99.27-1.42.44-.82.78-1.15.72-.58 1.18-.75a4.1 4.1 0 0 1 2.93 0 3.48 3.48 0 0 1 1.95 1.89c.18.44.28.91.28 1.43s-.1.99-.28 1.43-.44.81-.78 1.14c-.71.66-1.65 1.03-2.63 1.02Zm0-.47c.45 0 .87-.07 1.25-.23a3.02 3.02 0 0 0 1.92-2.88c0-.83-.33-1.63-.91-2.23-.28-.28-.62-.5-1.01-.65s-.81-.23-1.25-.23-.87.07-1.25.23a3.02 3.02 0 0 0-1.92 2.88c0 .44.09.85.24 1.24.31.76.92 1.35 1.68 1.65.38.16.81.23 1.25.23Zm9.37.47c-.53 0-1.02-.09-1.49-.27-.41-.14-.79-.38-1.09-.7l.23-.38c.24.26.58.45.99.64.43.17.87.26 1.34.26s.85-.06 1.16-.18c.3-.13.53-.3.67-.5.14-.21.21-.44.21-.7 0-.3-.09-.54-.24-.72s-.37-.33-.64-.44q-.42-.18-.87-.27l-.94-.24q-.45-.12-.87-.33c-.26-.12-.48-.32-.64-.55-.17-.27-.25-.59-.24-.91 0-.34.09-.65.27-.94.17-.28.45-.51.82-.7.83-.32 1.75-.35 2.6-.1.38.11.71.27.98.47l-.2.41c-.9-.61-2.04-.76-3.07-.4-.26.1-.49.28-.65.51-.14.21-.21.46-.21.71 0 .3.09.54.24.72s.37.33.64.44.55.2.87.27l.94.24q.465.135.87.33c.27.14.47.31.64.54.16.23.24.53.24.89 0 .33-.09.64-.27.92s-.45.51-.84.68c-.37.17-.85.26-1.45.26v.03Zm11.46-.04h-.51v-7.09h4.74v.47h-4.22v6.62zm-.06-3.59h3.83v.47h-3.83zm7.95 3.59v-7.09h2.54c.6 0 1.11.1 1.53.28s.75.45.98.81.34.78.34 1.29-.11.92-.34 1.26c-.23.36-.55.62-.98.82s-.94.28-1.53.28h-2.26l.23-.24v2.56h-.51Zm.51-2.51-.23-.24h2.26c.77 0 1.34-.17 1.73-.51s.6-.81.6-1.42-.2-1.09-.6-1.42-.98-.5-1.73-.5h-2.26l.23-.26zm4.4 2.53-1.85-2.57h.58l1.85 2.57zm7.17.04c-.88 0-1.56-.26-2.07-.77s-.75-1.28-.75-2.29v-4.08h.51v4.06c0 .88.2 1.53.61 1.96s.98.64 1.72.64 1.31-.21 1.7-.64c.41-.43.61-1.08.61-1.96v-4.06h.51v4.08c0 1.01-.26 1.78-.75 2.29-.51.51-1.21.77-2.09.77m8.51-.04v-6.62h-2.56v-.47h5.62v.47h-2.56v6.62h-.51Zm6.05-7.67 1.41-1.19h.72l-1.59 1.19zm.31 7.67v-7.09h.51v7.09zm8.01.04c-.97 0-1.91-.36-2.63-1.02a3.58 3.58 0 0 1-1.04-2.57c0-.53.09-.99.27-1.43s.44-.81.78-1.14c.71-.67 1.65-1.04 2.63-1.02.5 0 .97.09 1.41.24s.81.41 1.12.74l-.33.34c-.28-.29-.63-.51-1.01-.64-.79-.28-1.65-.27-2.43.03-.76.3-1.37.89-1.68 1.65-.48 1.19-.22 2.54.67 3.47.28.28.62.5 1.01.65s.81.23 1.26.23c.41 0 .8-.07 1.16-.2s.71-.36 1.01-.65l.33.34c-.31.33-.68.58-1.12.74-.44.17-.91.24-1.41.24h-.01Zm9.13.01c-.98 0-1.92-.36-2.64-1.02-.34-.33-.6-.71-.78-1.15s-.27-.91-.27-1.42.09-.99.27-1.42.44-.82.78-1.15.72-.58 1.18-.75a4.1 4.1 0 0 1 2.93 0 3.48 3.48 0 0 1 1.95 1.89c.18.44.28.91.28 1.43s-.1.99-.28 1.43-.44.81-.78 1.14c-.71.66-1.65 1.03-2.63 1.02Zm0-.47c.45 0 .87-.07 1.25-.23a3.02 3.02 0 0 0 1.92-2.88c0-.83-.33-1.63-.91-2.23-.28-.28-.62-.5-1.01-.65s-.81-.23-1.25-.23-.87.07-1.25.23a3.02 3.02 0 0 0-1.92 2.88c0 .44.09.85.24 1.24.31.76.92 1.35 1.68 1.65.38.16.81.23 1.25.23Zm7.5.43v-7.09h.51v6.62h4.08v.47zm6.76 0 3.27-7.09h.51l3.27 7.09h-.55l-3.08-6.76h.23l-3.07 6.76h-.57Zm1.19-1.99.17-.44h4.25l.17.44zm11.02 2.03c-.53 0-1.02-.09-1.49-.27-.41-.14-.79-.38-1.09-.7l.23-.38c.24.26.58.45.99.64.43.17.87.26 1.34.26s.85-.06 1.16-.18c.3-.13.53-.3.67-.5.14-.21.21-.44.21-.7 0-.3-.09-.54-.24-.72s-.37-.33-.64-.44q-.42-.18-.87-.27l-.94-.24q-.45-.12-.87-.33c-.26-.12-.48-.32-.64-.55-.17-.27-.25-.59-.24-.91 0-.34.09-.65.27-.94.17-.28.45-.51.82-.7.83-.32 1.75-.35 2.6-.1.38.11.71.27.98.47l-.2.41c-.9-.61-2.04-.76-3.07-.4-.26.1-.49.28-.65.51-.14.21-.21.46-.21.71 0 .3.09.54.24.72s.37.33.64.44.55.2.87.27l.94.24q.465.135.87.33c.27.14.47.31.64.54.16.23.24.53.24.89 0 .33-.09.64-.27.92s-.45.51-.84.68c-.37.17-.85.26-1.45.26v.03ZM39.7 79.64l1.12.4c.98.34 2.07-.09 2.56-1.01 1.76-3.34 6.05-11.11 10.27-15.67.7-.75.77-1.89.16-2.7l-.24-.33a2.08 2.08 0 0 0-2.92-.43c-.12.09-.22.18-.32.29-2.61 2.91-7.6 8.78-10.72 14.42-2.1-.61-4.91-1.51-8.99-2.85-14.86-4.94-24.83-2.06-29.2-.1-1.2.54-1.73 1.94-1.2 3.13.06.14.14.28.23.4l.06.09a2.39 2.39 0 0 0 2.94.81c1.18-.53 2.94-1.16 5.24-1.62 4.2-.82 11.16-1.16 20.38 1.9 4.05 1.35 7.53 2.4 10.44 3.17l.2.1Zm5.5-62.04c1.31.64 2.67.89 4.16.72-1.66-3.47-3.42-6.82-4.74-10.35l.2-.14 6.43 6.28c.11-.75.27-1.49.31-2.23a8.74 8.74 0 0 0-2.66-7.26C46.43 2.32 43.23.97 39.87.8c-.55-.06-.6.28-.62.67-.28 3.34-.14 6.63.99 9.81.95 2.64 2.26 5.03 4.94 6.33h.01Zm-1.35 13.93c-2.69-.55-5.48.18-7.56 1.97-2.7 2.29-4.06 5.31-4.72 8.72-.1.55.23.62.61.7 3.32.61 6.66.78 9.99-.06 2.74-.7 5.27-1.79 6.85-4.37a7.6 7.6 0 0 0 1.14-4.12c-3.65 1.34-7.19 2.78-10.87 3.78l-.13-.21 6.93-5.87c-.74-.18-1.48-.41-2.22-.54h-.03Zm19.53 4.32c.09.68.13 1.36.26 2.02.4 2.42 1.88 4.53 4.03 5.71 2.7 1.42 5.82 1.85 8.81 1.19.5-.09.45-.38.4-.72-.44-2.98-1.54-5.83-3.21-8.34-1.46-2.07-3.17-3.85-5.82-4.36-1.28-.25-2.6-.13-3.81.36 2.27 2.64 4.6 5.14 6.6 7.91l-.14.18-7.1-3.95h-.01Zm3.61-12.95c4.82-1.61 6.22-6.22 6.22-6.22-6.82-.6-6.22 6.22-6.22 6.22m14.39-11.29-6.52 4.19c.61.24 1.19.51 1.82.7 2.33.71 4.56.51 6.62-.81 2.41-1.63 4.17-4.05 4.97-6.85.16-.45-.13-.55-.44-.65-2.76-.89-5.55-1.42-8.45-1.08-2.4.28-4.66.92-6.29 2.93-.79.95-1.28 2.12-1.42 3.35 3.24-.71 6.39-1.55 9.63-1.97l.09.2Z"/><path d="m106.1 75.95-.06-.09a2.25 2.25 0 0 0-2.76-.75c-1.11.5-2.76 1.09-4.91 1.52-3.95.77-10.47 1.09-19.1-1.79l-2.61-.85c-3.92-2.88-7.59-6.1-10.95-9.62 0-.03-.03-.06-.06-.09l-.38-.37c-1.29-1.37-2.55-2.77-3.76-4.2l-1.83-2.36c-.43-.57-.48-1.01-.14-1.63a23 23 0 0 0 2.66-6.58c.97-5.18-.11-10.03-2.37-14.7-.68-1.42-.67-1.66.53-2.66l.34-.26c2.64-1.91 5.78-3 9.03-3.14 2.67-.11 5.35.04 8.03.13 2.2.1 4.39-.33 6.39-1.25a12.44 12.44 0 0 0 5.4-4.83c.09-.14.03-.31-.11-.4l-3.05-1.65c-.13-.07-.28-.03-.37.1a8.5 8.5 0 0 1-3.93 3.38c-1.61.65-3.25.84-5.07.65-.21-.03-.33-.27-.2-.44.92-1.24 1.62-2.5 2.12-3.78h-.33c-1.36 0-2.6-.45-3.58-1.21a8.23 8.23 0 0 1-3.44 4.1c-2.06 1.31-4.42 1.16-6.82 1.63-.18.03-.36-.11-.33-.3.16-1.48.27-2.84.48-4.19a7.8 7.8 0 0 1 4.69-6.08c-.07-.3-.13-.61-.17-.92-.38-.91-.54-1.89-.47-2.87v-.24l-.01-.23c-.32.1-.64.21-.95.34-1.25.54-2.43 1.25-3.66 1.93a.28.28 0 0 1-.38-.12c0-.01-.01-.02-.01-.03-.89-3.1-2.61-5.89-4.97-8.08a16.33 16.33 0 0 0-8.42-4.05l-.45.4c0 1.18-.01 2.26.03 3.32 0 .2.31.5.53.54 4.1.92 6.92 3.54 8.81 7.1 1.79 3.39 1.73 7.12.98 10.79-.6 2.77-1.93 5.32-3.85 7.4a.28.28 0 0 1-.38.03c-1.68-1.41-2.37-3.37-2.93-5.31a21.5 21.5 0 0 1-.89-5.58 6.2 6.2 0 0 1-4.12 1.68h-.13c.23.74.4 1.49.54 2.27.11.62.17 1.28.26 2.1a.28.28 0 0 1-.26.3h-.08c-2.06-.5-3.93-.88-5.75-1.46-.98-.31-1.99-.85-2.74-1.55a7.89 7.89 0 0 1-2.54-6.09l.06.13c-.14-1.86.09-3.73.67-5.5l.04-.07v-.09h-.03s-.07-.1-.14-.14l-3.32-1.43c-.14-.06-.31 0-.37.15v.02c-1.78 5.41-1.89 10.5 2.13 15.08.16.17.03.45-.2.45-3.78.11-7.02-.64-9.2-3.99-.08-.13-.25-.16-.38-.09l-3.17 1.9c-.14.09-.18.27-.09.4 2.19 2.97 5.92 5.48 9.39 5.84 2.54.26 5.16.06 7.73-.17 4.22-.38 8.07.43 11.41 3.11a16.83 16.83 0 0 1 5.38 18.21c-.18.57-.44 1.11-.72 1.76-.09.2-.37.23-.48.04-.31-.48-.57-.85-.77-1.25-1.25-2.57-1.24-5.3-.89-8.04.07-.6.36-1.26.17-1.79-.47-1.36-1.08-2.68-1.69-4.08-.1-.21-.4-.23-.5-.01v.03c-.23.5-.51.98-.65 1.51-1.61 5.51-1.55 10.92.92 16.21 2.14 4.43 5.06 8.44 8.62 11.85 2.16 2.24 4.47 4.46 6.6 6.41a20.18 20.18 0 0 0-14.63 5.68l.04.11a12.07 12.07 0 0 0-2.34 12.83l.21.53h.04c.94 1.78 2.27 3.32 3.89 4.5-3.23 2.54-7.91 1.97-10.45-1.26-.31-.4-.59-.83-.81-1.29 1.29-.72 2.14-2.36 2.14-4.25 0-2.56-1.62-4.63-3.61-4.63-1.87 0-3.42 1.8-3.59 4.19-.05.28-.06.57-.03.85-.35 6.46 4.6 11.99 11.06 12.34 2.24.12 4.46-.4 6.41-1.5l1.11-.68c.24-.18.72-.58 1.35-1.28 3.07 2.95 3.18 7.83.23 10.9q-.81.84-1.83 1.41c-.78-1.18-2.34-1.93-4.12-1.93-2.56 0-4.63 1.62-4.63 3.61 0 .48.11.95.36 1.39.33.8.94 1.41 1.69 1.76l-.06.17.77.16c5.67 1.1 11.33-1.95 13.54-7.29 1.36-3.34 1.16-7.1-.53-10.27l.36.84-1.01-1.96c-.65-.85-1.41-1.62-2.26-2.27l.13-.23.04-.1.1-.26c2.11-3.5 6.66-4.62 10.16-2.51a7.34 7.34 0 0 1 2.96 3.39c-1.42.64-2.41 2.37-2.41 4.37 0 2.56 1.62 4.63 3.61 4.63 1.75 0 3.24-1.59 3.55-3.79 1.09-5.61-2.01-11.2-7.34-13.25a11.66 11.66 0 0 0-8.91.23l-.53.23v.04a13.67 13.67 0 0 0-4.93 4.86 7.64 7.64 0 0 1-2.61-9.12v-.04l.06.13s.33-.98 1.24-2.2c.27-.31.57-.6.88-.87l-.07-.07c2.39-2.47 7.24-5.08 16.59-2.49h.04l.84.28c.34.24.74.37 1.15.38l1.9.64c13.93 4.64 23.27 1.93 27.37.09a2.23 2.23 0 0 0 .91-3.32l.06-.11Z"/></g></g></svg>