<?xml version="1.0" encoding="UTF-8"?>
<svg id="Capa_2" data-name="Capa 2" xmlns="http://www.w3.org/2000/svg" viewBox="0 0 233 85.29">
  <defs>
    <style>
      .cls-1 {
        fill: #fff;
      }
    </style>
  </defs>
  <g id="Capa_1-2" data-name="Capa 1">
    <g>
      <g>
        <path class="cls-1" d="M8.44,48.12c.95-2.65,4.82-4.9,10.83-4.9v7.73c-7.07-1.01-10.35,2.01-10.83,7.31v14.56H0v-29.35H8.44v4.66Z"/>
        <path class="cls-1" d="M49.03,60.77H27.41c1.03,3.15,3.84,5.27,7.17,5.27,2.86,0,5.69-1.3,7.52-3.6l5.59,4.45c-2.83,3.97-8.21,6.14-12.97,6.14-8.52,0-16.09-5.27-16.09-14.98s7.62-14.82,15.33-14.82c10.3,0,16.44,7.52,15.09,17.55m-21.49-6.06h13.13c-.4-3.02-3.63-4.77-6.72-4.69-3.05,.08-5.37,1.88-6.41,4.69Z"/>
        <path class="cls-1" d="M73.18,46.64v-14.53h8.44v40.71h-8.44v-3.28c-1.96,2.17-4.92,3.52-8,3.52-7.57,0-14.56-5.51-14.56-14.93s6.99-14.9,14.56-14.9c3.07,0,6.14,1.19,8,3.41m-.03,11.49c0-4.61-3.31-7.89-7.07-7.89s-6.99,3.28-6.99,7.89,3.2,7.91,6.99,7.91,7.07-3.31,7.07-7.91Z"/>
        <path class="cls-1" d="M111.73,42.84h3.8v28.53c0,9.39-7.41,13.92-14.61,13.92-4.82,0-9.77-2.38-12.47-6.85l3.32-1.85c2.01,3.32,5.59,5.22,9.15,5.22,5.41,0,10.81-3.56,10.81-10.44v-5.43c-2.28,3.93-6.58,6.16-10.81,6.16-7.17,0-14.61-5.41-14.61-14.72s7.44-14.72,14.61-14.72c4.23,0,8.59,2.19,10.81,6.18v-5.99Zm-.03,14.53c0-6.96-5.41-11.24-10.78-11.24s-10.81,4.28-10.81,11.24,5.43,11.27,10.81,11.27,10.78-4.31,10.78-11.27Z"/>
        <path class="cls-1" d="M125.92,49.11c.91-3.26,5.51-6.45,12.12-6.45v3.67c-6.77-.35-10.97,3.02-12.12,8.22v17.4h-3.8v-29.09h3.8v6.26Z"/>
        <path class="cls-1" d="M138.21,57.38c0-9.47,7.41-14.72,14.61-14.72s14.59,5.24,14.59,14.72-7.44,14.72-14.59,14.72-14.61-5.27-14.61-14.72m25.42,0c0-6.96-5.46-11.24-10.81-11.24s-10.81,4.28-10.81,11.24,5.41,11.27,10.81,11.27,10.81-4.31,10.81-11.27Z"/>
        <path class="cls-1" d="M193.38,42.82h3.8v29.09h-3.8v-5.78c-1.37,3.13-6.05,6.08-11.37,5.97-6.4-.19-9.88-4.39-9.88-12.39v-16.89h3.77v16.25c0,6.72,2.2,9.47,7.52,9.47s8.91-3.32,9.96-7.71v-18.01Z"/>
        <path class="cls-1" d="M207.6,65.94v19.22h-3.8V42.84h3.8v5.99c2.22-3.99,6.56-6.18,10.81-6.18,7.17,0,14.59,5.24,14.59,14.72s-7.41,14.72-14.59,14.72c-4.26,0-8.54-2.22-10.81-6.16m0-8.56c0,6.96,5.43,11.27,10.81,11.27s10.81-4.31,10.81-11.27-5.43-11.24-10.81-11.24-10.81,4.28-10.81,11.24Z"/>
      </g>
      <g>
        <path class="cls-1" d="M105.67,16.83h0c1.08-1.08,1.08-2.83,0-3.91l-3.33-3.33-3.91,3.91,3.33,3.33c1.08,1.08,2.83,1.08,3.91,0"/>
        <path class="cls-1" d="M116.41,27.57h0c1.08-1.08,1.08-2.83,0-3.91l-4.88-4.88-3.91,3.91,4.88,4.88c1.08,1.08,2.83,1.08,3.91,0"/>
        <path class="cls-1" d="M92.58,3.73c1.08-1.08,2.83-1.08,3.91,0,1.08,1.08,1.08,2.83,0,3.91-1.08,1.08-2.83,1.08-3.91,0-1.08-1.08-1.08-2.83,0-3.91"/>
        <path class="cls-1" d="M91.2,20.74h0c-1.08,1.08-1.08,2.83,0,3.91l3.33,3.33,3.91-3.91-3.33-3.33c-1.08-1.08-2.83-1.08-3.91,0"/>
        <path class="cls-1" d="M80.47,10h0c-1.08,1.08-1.08,2.83,0,3.91l4.88,4.88,3.91-3.91-4.88-4.88c-1.08-1.08-2.83-1.08-3.91,0"/>
        <path class="cls-1" d="M104.3,33.84c-1.08,1.08-2.83,1.08-3.91,0-1.08-1.08-1.08-2.83,0-3.91,1.08-1.08,2.83-1.08,3.91,0,1.08,1.08,1.08,2.83,0,3.91"/>
        <path class="cls-1" d="M96.49,11.55h0c-1.08-1.08-2.83-1.08-3.91,0l-3.33,3.33,3.91,3.91,3.33-3.33c1.08-1.08,1.08-2.83,0-3.91"/>
        <path class="cls-1" d="M107.22,.81h0c-1.08-1.08-2.83-1.08-3.91,0l-4.88,4.88,3.91,3.91,4.88-4.88c1.08-1.08,1.08-2.83,0-3.91"/>
        <path class="cls-1" d="M83.39,24.65c-1.08-1.08-1.08-2.83,0-3.91,1.08-1.08,2.83-1.08,3.91,0,1.08,1.08,1.08,2.83,0,3.91-1.08,1.08-2.83,1.08-3.91,0"/>
        <path class="cls-1" d="M100.39,26.02h0c1.08,1.08,2.83,1.08,3.91,0l3.33-3.33-3.91-3.91-3.33,3.33c-1.08,1.08-1.08,2.83,0,3.91"/>
        <path class="cls-1" d="M89.66,36.76h0c1.08,1.08,2.83,1.08,3.91,0l4.88-4.88-3.91-3.91-4.87,4.88c-1.08,1.08-1.08,2.83,0,3.91"/>
        <path class="cls-1" d="M113.62,12.8c1.08,1.08,1.08,2.83,0,3.91-1.08,1.08-2.83,1.08-3.91,0-1.08-1.08-1.08-2.83,0-3.91s2.83-1.08,3.91,0"/>
      </g>
    </g>
  </g>
</svg>