<svg xmlns="http://www.w3.org/2000/svg" id="Capa_2" data-name="Capa 2" viewBox="0 0 133.01 151.99"><path id="Capa_1-2" fill="#fff" d="M20.05 147.47c0 2.51-2.07 4.51-4.67 4.51s-4.68-1.99-4.68-4.51 2.07-4.49 4.68-4.49 4.67 1.98 4.67 4.49m-8.32 0c0 1.98 1.66 3.57 3.65 3.57s3.62-1.6 3.62-3.57-1.63-3.55-3.62-3.55-3.65 1.57-3.65 3.55m16.93 1.12c0 1.99-1.3 3.38-3.2 3.38-1.2 0-2.12-.55-2.62-1.48v1.44h-1v-9.47h1v4.2c.5-.93 1.42-1.48 2.59-1.48 1.9 0 3.23 1.4 3.23 3.41m-1.01-.03c0-1.45-1-2.53-2.4-2.53s-2.41 1.06-2.41 2.53 1 2.53 2.41 2.53 2.4-1.06 2.4-2.53m6.16-3.38v.97c-1.42-.03-2.3.85-2.41 2.21v3.57h-1v-6.71h1v1.49c.45-.98 1.28-1.52 2.41-1.53m5.2 6.76v-1.05c-.54.73-1.39 1.08-2.46 1.08-1.39 0-2.28-.88-2.28-2.03s.93-1.91 2.51-1.93h2.21v-.42c0-.98-.61-1.58-1.8-1.58-.74 0-1.43.28-2.13.78l-.42-.7c.87-.57 1.6-.91 2.74-.91 1.66 0 2.58.88 2.59 2.31v4.44h-.96Zm-.01-2.31v-.82h-2.09c-1.12 0-1.71.34-1.71 1.1s.6 1.24 1.54 1.24c1.14 0 2-.56 2.26-1.52m4.92-3.62c-.75 0-1.33.27-1.33.91 0 1.52 3.75.74 3.75 3.15 0 1.31-1.17 1.9-2.46 1.9-.96 0-1.94-.33-2.58-.94l.38-.73c.57.54 1.44.86 2.23.86s1.43-.31 1.44-.98c.04-1.63-3.73-.8-3.71-3.18 0-1.28 1.11-1.82 2.34-1.82.8 0 1.58.24 2.14.61l-.38.77c-.52-.33-1.2-.54-1.83-.54Zm9.05-3.01v8.93h-1.02V143zm8.72 4.8v4.13h-1v-3.88c0-1.2-.71-1.91-1.9-1.91-1.33.01-2.14.89-2.26 2.2v3.6h-1v-6.71h1v1.48c.47-1.02 1.38-1.51 2.6-1.52 1.61 0 2.55.98 2.55 2.62Zm8.39-5.33v9.47h-1v-1.44c-.5.94-1.42 1.49-2.62 1.49-1.91 0-3.24-1.42-3.24-3.42s1.33-3.39 3.23-3.39c1.2 0 2.13.55 2.63 1.51v-4.21h1Zm-1 6.13c0-1.48-1.01-2.55-2.43-2.55s-2.44 1.07-2.44 2.55 1.01 2.54 2.44 2.54 2.43-1.06 2.43-2.54m9.33-3.38v6.71h-1v-1.52c-.45 1.05-1.34 1.54-2.55 1.56-1.57 0-2.51-1-2.51-2.62v-4.13h1v3.88c0 1.2.7 1.91 1.86 1.91 1.39-.03 2.21-1.05 2.21-2.5v-3.29h1Zm4.14.79c-.75 0-1.33.27-1.33.91 0 1.52 3.75.74 3.75 3.15 0 1.31-1.17 1.9-2.46 1.9-.96 0-1.94-.33-2.58-.94l.38-.73c.57.54 1.44.86 2.23.86s1.43-.31 1.44-.98c.04-1.63-3.73-.8-3.71-3.18 0-1.28 1.11-1.82 2.34-1.82.8 0 1.58.24 2.14.61l-.38.77c-.52-.33-1.2-.54-1.83-.54Zm7.53 5.47c-.47.32-.98.5-1.52.5-.98.01-1.71-.57-1.71-1.9v-3.87h-.97v-.78h.97v-1.76h.98v1.76h2.13v.78h-2.13v3.7c0 .82.32 1.15.89 1.15.34-.01.7-.13 1.07-.34l.28.77Zm4.92-6.3v.97c-1.42-.03-2.3.85-2.41 2.21v3.57h-1v-6.71h1v1.49c.45-.98 1.28-1.52 2.41-1.53m2.47-1.88c0 .38-.28.68-.65.68s-.65-.29-.65-.68.28-.68.65-.68.65.28.65.68m-.15 1.93v6.71h-.98v-6.71zm6.6 6.71v-1.05c-.54.73-1.39 1.08-2.46 1.08-1.39 0-2.28-.88-2.28-2.03s.93-1.91 2.51-1.93h2.21v-.42c0-.98-.61-1.58-1.8-1.58-.74 0-1.43.28-2.13.78l-.42-.7c.87-.57 1.6-.91 2.74-.91 1.66 0 2.58.88 2.59 2.31v4.44h-.96Zm-.01-2.31v-.82h-2.09c-1.12 0-1.71.34-1.71 1.1s.6 1.24 1.54 1.24c1.14 0 2-.56 2.26-1.52m4.26-7.16v9.47h-1v-9.47zm8.28 6.48h-5.49c.17 1.33 1.12 2.2 2.44 2.2.83 0 1.56-.31 2.08-.86l.55.57c-.64.7-1.58 1.11-2.71 1.11-1.98 0-3.34-1.39-3.34-3.39s1.38-3.38 3.33-3.39c2.17 0 3.24 1.49 3.14 3.77Zm-.89-.79c-.06-1.3-.93-2.14-2.25-2.14s-2.21.84-2.35 2.14h4.59Zm4.32-2.15c-.75 0-1.33.27-1.33.91 0 1.52 3.75.74 3.75 3.15 0 1.31-1.17 1.9-2.46 1.9-.96 0-1.94-.33-2.58-.94l.38-.73c.57.54 1.44.86 2.23.86s1.43-.31 1.44-.98c.04-1.63-3.73-.8-3.71-3.18 0-1.28 1.11-1.82 2.34-1.82.8 0 1.58.24 2.14.61l-.38.77c-.52-.33-1.2-.54-1.83-.54ZM3.71 114.23l6.31 16.46 6.36-16.46h3.59l-8.26 20.25H8.15L0 114.23zm44.72 10.13c0 5.79-4.73 10.27-10.83 10.27s-10.83-4.48-10.83-10.27 4.73-10.21 10.83-10.21 10.83 4.43 10.83 10.21m-18.16 0c0 4.02 3.36 7.2 7.36 7.2s7.27-3.18 7.27-7.2-3.27-7.15-7.27-7.15-7.36 3.12-7.36 7.15m46.63 0c0 5.84-4.47 10.13-10.66 10.13h-8.29v-20.25h8.38c6.13 0 10.57 4.25 10.57 10.13Zm-3.47.03c0-4.14-3.12-7.09-7.15-7.09H61.4v14.12h5.02c3.97 0 7.01-2.92 7.01-7.03m27.58-10.16v3.07H89.86v5.5h9.98v3.04h-9.98v5.58h11.5v3.07H86.41v-20.25h14.6Zm14.48 0 6.74 13.45 6.71-13.45H133v20.25h-3.18l-.03-15.13-6.45 13.02h-2.25l-6.45-13.02v15.13h-3.24v-20.25zM66.63 96.71l44.55-36.84V32.54L66.63 69.63zm-.25-32.54L21.83 27.33V0l44.55 37.08z" data-name="Capa 1"/></svg>