<?xml version="1.0" encoding="UTF-8"?>
<svg id="Capa_2" data-name="Capa 2" xmlns="http://www.w3.org/2000/svg" xmlns:xlink="http://www.w3.org/1999/xlink" viewBox="0 0 502 822">
  <defs>
    <style>
      .cls-1 {
        fill: #0e1014;
      }

      .cls-2 {
        clip-path: url(#clippath);
      }

      .cls-3 {
        fill: none;
      }
    </style>
    <clipPath id="clippath">
      <rect class="cls-3" width="502" height="822"/>
    </clipPath>
  </defs>
  <g id="Capa_1-2" data-name="Capa 1">
    <g class="cls-2">
      <g>
        <path class="cls-1" d="M183.36,243.85l95.05-95.05c21.04-21.04,21.04-55.15,0-76.18h0c-21.04-21.04-55.15-21.04-76.18,0l-95.05,95.05,76.18,76.18Z"/>
        <path class="cls-1" d="M248.22,384.9h0c21.04-21.04,21.04-55.15,0-76.18l-64.87-64.87-76.18,76.19,64.87,64.87c21.04,21.04,55.15,21.04,76.18,0Z"/>
        <path class="cls-1" d="M457.55,594.23h0c21.04-21.04,21.04-55.15,0-76.18l-95.05-95.05-76.18,76.19,95.05,95.05c21.04,21.04,55.15,21.04,76.18,0Z"/>
        <circle class="cls-1" cx="30.99" cy="167.67" r="53.87"/>
        <path class="cls-1" d="M-33.89,461.09h0c-21.04,21.04-21.04,55.15,0,76.18l64.87,64.87,76.18-76.19-64.87-64.87c-21.04-21.04-55.15-21.04-76.18,0Z"/>
        <circle class="cls-1" cx="183.39" cy="678.38" r="53.87"/>
        <path class="cls-1" d="M69.08,281.94h0c-21.04-21.04-55.15-21.04-76.18,0l-64.87,64.87L4.22,422.99l64.87-64.87c21.04-21.04,21.04-55.15,0-76.18Z"/>
        <path class="cls-1" d="M278.41,72.61h0c-21.04-21.04-55.15-21.04-76.18,0l-95.05,95.05,76.19,76.18,95.05-95.05c21.04-21.04,21.04-55.15,0-76.18Z"/>
        <path class="cls-1" d="M145.27,564.05h0c21.04,21.04,55.15,21.04,76.18,0l64.87-64.87-76.19-76.18-64.87,64.87c-21.04,21.04-21.04,55.15,0,76.18Z"/>
        <path class="cls-1" d="M-64.07,773.39h0c21.04,21.04,55.15,21.04,76.18,0l95.05-95.05-76.19-76.18-95.05,95.05c-21.04,21.04-21.04,55.15,0,76.18Z"/>
        <circle class="cls-1" cx="364.95" cy="344.36" r="53.87"/>
      </g>
    </g>
  </g>
</svg>