<?xml version="1.0" encoding="UTF-8"?>
<svg id="Capa_2" data-name="Capa 2" xmlns="http://www.w3.org/2000/svg" viewBox="0 0 310.72 346.66">
  <defs>
    <style>
      .cls-1 {
        fill: #fe2b51;
      }

      .cls-2, .cls-3 {
        fill: #fff;
      }

      .cls-4 {
        fill: none;
        stroke: #363334;
        stroke-miterlimit: 22.93;
        stroke-width: .31px;
      }

      .cls-5 {
        fill: #e53455;
      }

      .cls-5, .cls-3 {
        fill-rule: evenodd;
      }

      .cls-6 {
        fill: #55b6e7;
      }
    </style>
  </defs>
  <g id="Capa_1-2" data-name="Capa 1">
    <g>
      <path class="cls-2" d="M12.16,19.19c2.73,0,5.06,.96,7,2.88,1.94,1.92,2.91,4.25,2.91,6.97s-.97,5.05-2.91,6.97c-1.94,1.92-4.27,2.88-7,2.88s-5.05-.96-6.97-2.88c-1.92-1.92-2.88-4.24-2.88-6.97s.96-5.05,2.88-6.97,4.24-2.88,6.97-2.88Zm8.01,88.5H4.26V45.75h15.9v61.94Z"/>
      <path class="cls-2" d="M38.37,0h16.36V31.98h28.29V0h16.31V84.75h-16.31V47.59h-28.29v37.16h-16.36V0Z"/>
      <path class="cls-2" d="M179.77,57.96h-50.53c.73,4.46,2.68,8,5.85,10.63,3.17,2.63,7.21,3.95,12.13,3.95,5.88,0,10.93-2.05,15.15-6.17l13.25,6.22c-3.3,4.69-7.26,8.15-11.87,10.4-4.61,2.25-10.08,3.37-16.42,3.37-9.83,0-17.84-3.1-24.03-9.3-6.18-6.2-9.28-13.97-9.28-23.31s3.08-17.51,9.25-23.82c6.17-6.32,13.9-9.48,23.19-9.48,9.87,0,17.9,3.16,24.08,9.48,6.18,6.32,9.28,14.66,9.28,25.03l-.06,3Zm-15.73-12.39c-1.04-3.5-3.09-6.34-6.15-8.53-3.06-2.19-6.61-3.28-10.65-3.28-4.39,0-8.23,1.23-11.54,3.69-2.08,1.54-4,4.25-5.77,8.12h34.11Z"/>
      <path class="cls-2" d="M185.54,22.07h16.07l16.28,39.33,17.97-39.33h16.12l-39.26,85.62h-16.25l12.89-27.61-23.83-58.01Z"/>
      <path class="cls-1" d="M0,154.07H13.48v7.89c1.46-3.11,3.4-5.47,5.82-7.09s5.07-2.42,7.95-2.42c2.04,0,4.17,.54,6.4,1.61l-4.9,13.54c-1.84-.92-3.36-1.38-4.55-1.38-2.42,0-4.46,1.5-6.14,4.49-1.67,3-2.51,8.87-2.51,17.63l.06,3.05v25.35H0v-62.69Z"/>
      <path class="cls-1" d="M104.23,189.96H53.7c.73,4.46,2.68,8,5.85,10.63,3.17,2.63,7.21,3.95,12.13,3.95,5.88,0,10.93-2.05,15.15-6.17l13.25,6.22c-3.3,4.69-7.26,8.15-11.87,10.4-4.61,2.25-10.08,3.37-16.42,3.37-9.83,0-17.84-3.1-24.03-9.3-6.18-6.2-9.28-13.97-9.28-23.31s3.08-17.51,9.25-23.82c6.17-6.32,13.9-9.48,23.19-9.48,9.87,0,17.9,3.16,24.08,9.48,6.18,6.32,9.28,14.66,9.28,25.03l-.06,3Zm-15.73-12.39c-1.04-3.5-3.09-6.34-6.15-8.53-3.06-2.19-6.61-3.28-10.65-3.28-4.39,0-8.23,1.23-11.54,3.69-2.08,1.54-4,4.25-5.77,8.12h34.11Z"/>
      <path class="cls-1" d="M163.23,129.87h15.73v86.89h-15.73v-6.63c-3.07,2.92-6.15,5.02-9.24,6.31-3.09,1.29-6.44,1.93-10.04,1.93-8.09,0-15.1-3.14-21.01-9.42-5.91-6.28-8.86-14.09-8.86-23.42s2.86-17.61,8.58-23.8c5.72-6.18,12.66-9.28,20.83-9.28,3.76,0,7.29,.71,10.59,2.13,3.3,1.42,6.35,3.55,9.15,6.4v-31.11Zm-16.54,37.11c-4.86,0-8.9,1.72-12.12,5.16-3.22,3.44-4.82,7.85-4.82,13.22s1.64,9.87,4.91,13.37c3.27,3.5,7.3,5.24,12.09,5.24s9.04-1.72,12.29-5.16c3.25-3.44,4.88-7.94,4.88-13.51s-1.63-9.87-4.88-13.25c-3.25-3.38-7.37-5.07-12.35-5.07Z"/>
      <path class="cls-1" d="M233.23,162.83l-9.74,9.74c-3.96-3.92-7.55-5.88-10.77-5.88-1.77,0-3.15,.37-4.15,1.12-1,.75-1.5,1.68-1.5,2.79,0,.85,.32,1.62,.95,2.33,.63,.71,2.2,1.68,4.7,2.91l5.76,2.88c6.07,3,10.24,6.05,12.5,9.16,2.27,3.11,3.4,6.76,3.4,10.95,0,5.57-2.04,10.22-6.14,13.94-4.09,3.73-9.57,5.59-16.45,5.59-9.14,0-16.44-3.57-21.89-10.72l9.68-10.54c1.84,2.15,4,3.89,6.48,5.21,2.48,1.33,4.68,1.99,6.6,1.99,2.07,0,3.75-.5,5.01-1.5,1.27-1,1.9-2.15,1.9-3.46,0-2.42-2.29-4.78-6.86-7.09l-5.3-2.65c-10.14-5.11-15.21-11.5-15.21-19.19,0-4.96,1.91-9.19,5.73-12.71,3.82-3.51,8.71-5.27,14.66-5.27,4.07,0,7.9,.89,11.49,2.68,3.59,1.79,6.64,4.35,9.13,7.69Z"/>
      <path class="cls-2" d="M255.3,198.66c2.73,0,5.06,.96,7,2.88,1.94,1.92,2.91,4.25,2.91,6.97s-.97,5-2.91,6.94c-1.94,1.94-4.27,2.91-7,2.91s-5.05-.96-6.97-2.88c-1.92-1.92-2.88-4.24-2.88-6.97s.96-5.05,2.88-6.97,4.24-2.88,6.97-2.88Zm-7.95-68.79h15.9v61.94h-15.9v-61.94Z"/>
    </g>
    <g>
      <polygon class="cls-6" points="284.34 312.81 270.6 323.1 275.93 340.6 278.74 341.05 286.63 327.78 284.34 312.81"/>
      <polygon class="cls-6" points="250.74 284.31 244.42 299.69 224.47 297.65 224.38 294.46 245.33 283.36 249.76 283.99 250.74 284.31"/>
      <g>
        <path class="cls-4" d="M276.01,340.02c-.29-5.6-6.97-18.7-3.28-21.07,3.19-2.06,8-2.87,11.48-6.11,.53-.49,2.5,7.79,1.17,10.19-2.3,4.13-1.33,20.01-8.86,17.98-.41-.11-.48-.58-.5-.98Z"/>
        <path class="cls-4" d="M243.9,299.75c-6.18-.49-9.27-2.93-17-2.36-1.31,.1-5.37-4.19,3.58-6.82,6.43-1.89,9.64-6.33,17.89-6.59,3.58-.11,2.82,.53,1.11,4.61-1.9,4.51-3.25,4.78-4.98,10.77-.09,.3-.29,.41-.6,.39Z"/>
        <path class="cls-5" d="M279.23,276.65c-3.95,.12-6.73,3.43-6.21,7.38s4.15,7.06,8.1,6.94,6.73-3.43,6.21-7.38-4.15-7.06-8.1-6.94Z"/>
        <path class="cls-4" d="M279.23,276.65c-3.95,.12-6.73,3.43-6.21,7.38s4.15,7.06,8.1,6.94,6.73-3.43,6.21-7.38-4.15-7.06-8.1-6.94Z"/>
        <path class="cls-3" d="M251.64,280.98c-7.89,.24-12.33,.64-19.03,3.95-2.77,1.37-11.64,6.68-11.12,10.65,.68,5.12,4.52,5.13,8.1,5,1.69-.06,3.84,.15,5.52,.29l5.22,.64-2.68,6.46c-4.64,12.63-3.55,10.48,11.7,23.6,2.16,1.86,4.93,2.59,7.46,1.59,.99-.39,2.31-1.03,3.22-1.55l9.25-5.54c.13,.85,.51,1.67,.76,2.5,.66,2.18,1.64,5.87,1.9,7.93,.3,2.34,.3,3.53,1.44,5.08,1.26,1.71,2.85,2.15,4.81,2.09,4.01-.12,7.84-9.72,8.74-12.67,2.19-7.13,1.87-11.54,.83-19.38,.58-.18,2.12-1.72,2.65-2.21,.85-.78,1.72-1.49,2.53-2.32,.46-.47,.78-.73,1.23-1.19,2.77-2.86,5.89-5.49,8.1-8.94,4.59-7.16,6.12-10.57,7.73-20.59,.98-6.1,.93-12.82,0-19.91-.26-1.95-1.47-3.44-2.62-4.42-2.35-2-4.1-1.89-6.7-1.81-10.7,.33-23.06,3.86-31.33,9.5-5.21,3.55-7.31,6.38-10.93,10.99-.82,1.05-6.64,9.36-6.77,10.25m33.87-23.34c1.12-.61,5.54-1.45,7.32-1.79,3.8-.73,6.23-.94,10.15-1.06,2.37-.07,2.47,2.62,2.61,3.7,.44,3.31,.61,13.58-.22,15.99-2.63-.51-9.14-5.06-11.26-6.86-3.69-3.13-5.01-4.92-7.66-8.42-.24-.32-.26-.32-.47-.66-.23-.38-.31-.65-.46-.91Zm-4.25,1.6c1.06,2.88,7.54,9.65,9.99,11.73,2.45,2.08,10.19,7.37,13.21,7.95,.35,3.21-3.51,11.32-5.66,14.54-1.97,2.96-7.92,9.05-10.92,11.75l-14.62,12.15c-1.39,1.06-2.74,1.95-4.15,2.99-3.46,2.53-9.55,6.33-13.48,8.09-2.65,1.18-2.95,.2-4.87-1.44l-8.25-7c-1.82-1.54-3.07-1.83-2.37-4.52,1.14-4.37,2.86-8.28,4.68-12.21,3.55-7.66,9-17.57,13.71-24.26,.5-.71,.83-1.34,1.34-2.03,6.16-8.25,7.09-10.43,16.22-15.63,1.01-.57,3.86-2.05,5.17-2.12Zm-38.91,38.22c-1.22-.51-5.98-1.08-7.63-1.2-2.95-.22-5.23-.3-8.49-.2,.14-1,1.02-1.48,1.68-2.11,5.7-5.37,12.21-7.49,20.71-8.47-.05,.4-5.45,9.88-6.28,11.97Zm34.6,41.62c-.42-3.16-.88-5.48-1.56-8.33-.35-1.45-1.8-6.34-2.42-7.32,1.92-1.14,10.43-7.99,10.82-8.12,.4,8.41-.64,15.33-4.95,21.65-.53,.78-.9,1.81-1.9,2.11Z"/>
        <path class="cls-3" d="M270.63,284.81c.65,4.92,4.91,8.89,9.37,8.75,4.46-.14,7.63-4.35,6.98-9.26-.65-4.92-4.9-8.89-9.37-8.75-4.45,.14-7.64,4.34-6.99,9.26m4.21,.08c-.81-6.14,7.17-6.39,7.98-.25,.73,5.49-7.26,5.74-7.98,.25Z"/>
        <path class="cls-3" d="M226.45,344.22c.23,1.74,1.13,2.49,2.87,2.43,1.28-.04,5.24-5.3,6.21-6.45,1.11-1.3,5.55-5.8,5.34-7.37-.16-1.22-1.4-2.27-2.63-2.23-1.44,.04-2.65,2.02-3.39,2.89l-7.35,8.64c-.5,.58-1.19,1.06-1.05,2.08"/>
        <path class="cls-3" d="M224.67,330.82c.23,1.74,1.13,2.49,2.87,2.43,1.14-.04,5.87-5.41,5.67-6.9-.16-1.22-1.4-2.27-2.63-2.23-1.44,.04-2.65,2.02-3.39,2.89-1.01,1.19-2.67,2.67-2.52,3.81"/>
        <path class="cls-3" d="M239.98,343.81c.23,1.74,1.13,2.49,2.87,2.43,1.14-.04,5.87-5.41,5.67-6.9-.16-1.22-1.39-2.27-2.63-2.23-1.5,.05-3.57,3.12-4.86,4.62-.5,.58-1.19,1.06-1.05,2.08"/>
      </g>
    </g>
  </g>
</svg>