<svg xmlns="http://www.w3.org/2000/svg" id="Capa_2" data-name="Capa 2" viewBox="0 0 755.95 755.95"><g id="Capa_1-2" fill="none" stroke="#1d1f28" stroke-miterlimit="1" data-name="Capa 1"><path d="m456.52 193.29 97.99-97.99c21.69-21.69 21.69-56.85 0-78.54s-56.85-21.69-78.54 0l-97.99 97.99z"/><path d="M523.39 338.7c21.69-21.69 21.69-56.85 0-78.54l-66.87-66.87-78.54 78.54 66.87 66.87c21.69 21.69 56.85 21.69 78.54 0Zm215.79 215.79c21.69-21.69 21.69-56.85 0-78.54l-97.99-97.99-78.54 78.54 97.99 97.99c21.69 21.69 56.85 21.69 78.54 0Z"/><circle cx="299.45" cy="114.75" r="55.53"/><path d="M232.56 417.24c-21.69 21.69-21.69 56.85 0 78.54l66.87 66.87 78.54-78.54-66.87-66.87c-21.69-21.69-56.85-21.69-78.54 0ZM16.77 201.45c-21.69 21.69-21.69 56.85 0 78.54l97.99 97.99 78.54-78.54-97.99-97.99c-21.69-21.69-56.85-21.69-78.54 0Z"/><circle cx="456.55" cy="641.24" r="55.53"/><path d="M338.71 232.56c-21.69-21.69-56.85-21.69-78.54 0l-66.87 66.87 78.54 78.54 66.87-66.87c21.69-21.69 21.69-56.85 0-78.54Zm215.8-215.79c-21.69-21.69-56.85-21.69-78.54 0l-97.99 97.99 78.54 78.54 97.99-97.99c21.69-21.69 21.69-56.85 0-78.54Z"/><circle cx="114.75" cy="456.52" r="55.53"/><path d="M417.25 523.37c21.69 21.69 56.85 21.69 78.54 0l66.87-66.87-78.54-78.54-66.87 66.87c-21.69 21.69-21.69 56.85 0 78.54Zm-215.8 215.81c21.69 21.69 56.85 21.69 78.54 0l97.99-97.99-78.54-78.54-97.99 97.99c-21.69 21.69-21.69 56.85 0 78.54Z"/><circle cx="643.72" cy="296.9" r="55.53"/></g></svg>