<svg xmlns="http://www.w3.org/2000/svg" id="Capa_2" data-name="Capa 2" viewBox="0 0 797.98 383.09"><g id="Capa_1-2" data-name="Capa 1"><path fill="#b6b7b6" d="M424.91 296.42H797.1v.96H424.91z"/><path d="M469.85 333.03v-12.6h4.38c1.04 0 1.94.17 2.69.5s1.32.81 1.72 1.43.59 1.37.59 2.24-.2 1.63-.59 2.25-.97 1.1-1.72 1.44-1.65.5-2.69.5h-4.03l.27-.29v4.52h-.61Zm.61-4.52-.27-.27h4.07c1.42 0 2.5-.32 3.25-.95.75-.64 1.12-1.53 1.12-2.68s-.38-2.04-1.12-2.67-1.83-.95-3.25-.95h-4.07l.27-.29zm8.24 4.52-3.28-4.57h.7l3.29 4.57h-.72Zm7.44.06c-.92 0-1.74-.2-2.45-.6s-1.27-.96-1.67-1.68c-.41-.72-.61-1.54-.61-2.45s.19-1.74.57-2.45.9-1.27 1.57-1.67 1.42-.61 2.26-.61 1.57.2 2.24.59c.67.4 1.19.95 1.57 1.65s.57 1.51.57 2.42v.16h-8.37v-.49h8.04l-.23.29c0-.78-.16-1.48-.49-2.1s-.78-1.1-1.36-1.46c-.58-.35-1.23-.53-1.96-.53s-1.39.18-1.96.53c-.58.35-1.03.84-1.36 1.46s-.49 1.32-.49 2.12v.11c0 .82.18 1.54.54 2.17s.85 1.12 1.48 1.48c.62.35 1.34.53 2.14.53.61 0 1.19-.11 1.74-.34s1-.58 1.36-1.04l.38.4c-.42.5-.93.88-1.54 1.14s-1.25.39-1.94.39Zm6.96 3.44V323.7h.58v3.28l-.16 1.42.18 1.42v6.71h-.59Zm4.61-3.44c-.84 0-1.6-.19-2.27-.58s-1.2-.94-1.59-1.66c-.39-.71-.59-1.54-.59-2.48s.2-1.78.59-2.49.92-1.27 1.59-1.67 1.43-.59 2.27-.59 1.64.2 2.33.61 1.24.97 1.64 1.67c.4.71.6 1.53.6 2.47s-.2 1.74-.6 2.45-.95 1.26-1.64 1.67-1.47.6-2.33.6m-.02-.54c.76 0 1.44-.17 2.04-.52s1.08-.84 1.43-1.48.52-1.36.52-2.18-.17-1.57-.52-2.2c-.35-.62-.83-1.11-1.43-1.47-.61-.35-1.29-.53-2.04-.53s-1.45.18-2.05.53-1.07.84-1.42 1.47c-.35.62-.52 1.36-.52 2.2s.17 1.54.52 2.18.82 1.13 1.42 1.48 1.28.52 2.05.52m7.53.48v-9.34h.58v2.57l-.05-.16q.375-1.17 1.32-1.83t2.37-.66v.59h-.16c-1.08 0-1.93.34-2.54 1.03s-.92 1.63-.92 2.83v4.97h-.59Zm10.4.06c-.92 0-1.74-.2-2.45-.6s-1.27-.96-1.67-1.68c-.41-.72-.61-1.54-.61-2.45s.19-1.74.57-2.45.9-1.27 1.57-1.67 1.42-.61 2.26-.61 1.58.2 2.24.59q1.005.6 1.56 1.65c.38.7.57 1.51.57 2.42v.16h-8.37v-.49h8.05l-.23.29c0-.78-.17-1.48-.49-2.1-.33-.62-.78-1.1-1.36-1.46-.58-.35-1.23-.53-1.96-.53s-1.38.18-1.96.53-1.03.84-1.36 1.46-.5 1.32-.5 2.12v.11c0 .82.18 1.54.54 2.17s.85 1.12 1.48 1.48c.62.35 1.34.53 2.14.53.61 0 1.19-.11 1.74-.34.54-.23 1-.58 1.36-1.04l.38.4c-.42.5-.93.88-1.54 1.14s-1.25.39-1.94.39Zm9.22 0c-.77 0-1.49-.12-2.16-.35s-1.18-.53-1.53-.89l.29-.47c.35.31.82.59 1.42.83s1.27.36 2 .36c1.04 0 1.8-.18 2.26-.54s.69-.83.69-1.4c0-.42-.11-.75-.34-.99s-.53-.43-.9-.56-.78-.24-1.23-.32-.9-.17-1.36-.27-.87-.24-1.24-.41a2.3 2.3 0 0 1-.9-.73c-.23-.31-.34-.73-.34-1.24 0-.44.12-.85.37-1.22s.62-.67 1.12-.91c.51-.23 1.15-.35 1.93-.35.58 0 1.15.09 1.74.26.58.17 1.05.41 1.39.69l-.3.47c-.37-.3-.81-.52-1.31-.67-.5-.14-1.01-.22-1.54-.22-.97 0-1.68.19-2.12.56s-.67.83-.67 1.37c0 .43.11.78.34 1.04s.53.45.9.58.78.24 1.23.32.9.17 1.35.27.86.23 1.23.4.67.4.9.7.34.71.34 1.22c0 .48-.13.91-.4 1.29s-.67.67-1.19.87-1.18.31-1.97.31m9.88 0c-.92 0-1.74-.2-2.45-.6s-1.27-.96-1.67-1.68c-.41-.72-.61-1.54-.61-2.45s.19-1.74.57-2.45.9-1.27 1.57-1.67 1.42-.61 2.26-.61 1.58.2 2.24.59q1.005.6 1.56 1.65c.38.7.57 1.51.57 2.42v.16h-8.37v-.49h8.05l-.23.29c0-.78-.17-1.48-.49-2.1-.33-.62-.78-1.1-1.36-1.46-.58-.35-1.23-.53-1.96-.53s-1.38.18-1.96.53-1.03.84-1.36 1.46-.5 1.32-.5 2.12v.11c0 .82.18 1.54.54 2.17s.85 1.12 1.48 1.48c.62.35 1.34.53 2.14.53.61 0 1.19-.11 1.74-.34.54-.23 1-.58 1.36-1.04l.38.4c-.42.5-.93.88-1.54 1.14s-1.25.39-1.94.39Zm11.38-9.47c.77 0 1.43.15 1.99.45s.99.74 1.3 1.32.47 1.3.47 2.15v5.49h-.59v-5.45c0-1.12-.28-1.96-.85-2.54-.56-.58-1.36-.86-2.38-.86-.78 0-1.45.16-2.02.47-.56.31-1 .76-1.3 1.33-.3.58-.45 1.25-.45 2.02v5.04h-.59v-9.34h.58v2.63l-.07-.16c.29-.78.76-1.4 1.43-1.85.67-.46 1.49-.68 2.48-.68Zm6.04.59v-.52h5.44v.52zm4.14 8.87c-.77 0-1.36-.22-1.76-.65-.41-.43-.61-1.01-.61-1.75v-9.05h.59v8.96c0 .64.16 1.12.47 1.46s.77.5 1.37.5 1.12-.19 1.51-.56l.31.43c-.23.22-.51.38-.85.49s-.68.16-1.03.16Zm6.99.01c-.71 0-1.31-.11-1.81-.32q-.75-.33-1.14-.93c-.26-.4-.4-.86-.4-1.38 0-.46.11-.88.32-1.27s.57-.7 1.07-.94c.5-.23 1.17-.35 2.01-.35h3.62v.49h-3.62c-1.02 0-1.74.19-2.17.58-.43.38-.64.87-.64 1.46 0 .66.25 1.19.74 1.58s1.18.58 2.05.58 1.58-.19 2.14-.58.99-.95 1.28-1.67l.2.4q-.36 1.065-1.29 1.71c-.62.43-1.41.65-2.36.65Zm3.47-.05v-2.18l-.02-.32v-3.55c0-.92-.25-1.63-.74-2.11s-1.21-.72-2.14-.72a4.9 4.9 0 0 0-3.33 1.26l-.32-.43c.45-.42.99-.75 1.64-1s1.33-.37 2.03-.37c1.12 0 1.97.29 2.57.86.59.57.89 1.41.89 2.51v6.05zm8.05.05c-.89 0-1.68-.2-2.38-.6s-1.25-.96-1.66-1.67-.6-1.53-.6-2.46.2-1.74.6-2.46.96-1.27 1.66-1.67 1.5-.6 2.38-.6c.71 0 1.36.13 1.96.41.6.27 1.1.67 1.49 1.2l-.45.38c-.35-.49-.78-.85-1.3-1.08s-1.09-.34-1.7-.34c-.77 0-1.46.17-2.07.52s-1.09.84-1.45 1.47c-.35.63-.53 1.36-.53 2.19s.18 1.56.53 2.19c.36.63.84 1.12 1.45 1.48.61.35 1.3.53 2.07.53.61 0 1.18-.12 1.7-.35s.96-.59 1.3-1.07l.45.36c-.4.54-.89.94-1.49 1.21-.6.26-1.25.4-1.96.4Zm6.42-11.85c-.16 0-.29-.06-.41-.18a.55.55 0 0 1-.18-.4q0-.255.18-.42c.12-.11.26-.17.41-.17.17 0 .31.06.42.17s.17.25.17.41-.06.29-.17.41q-.18.18-.42.18m-.29 11.79v-9.34h.59v9.34zm8.12.06c-.88 0-1.66-.2-2.35-.6s-1.24-.96-1.64-1.67q-.6-1.065-.6-2.46c0-1.395.2-1.74.6-2.45s.95-1.27 1.64-1.67c.69-.41 1.47-.61 2.35-.61s1.66.2 2.36.6 1.24.96 1.64 1.66c.4.71.59 1.53.59 2.47s-.2 1.73-.59 2.45c-.4.72-.94 1.28-1.64 1.68s-1.48.6-2.36.6m0-.54c.77 0 1.46-.18 2.06-.53.61-.35 1.08-.85 1.42-1.49s.51-1.36.51-2.18-.17-1.56-.51-2.19-.82-1.12-1.42-1.47c-.61-.35-1.29-.52-2.04-.52s-1.45.17-2.05.52-1.08.84-1.43 1.47-.53 1.36-.53 2.19.18 1.54.53 2.18.83 1.13 1.43 1.49c.6.35 1.28.53 2.03.53m-.9-10.44 2.5-2.03h.97l-2.75 2.03zm12.84 1.51c.77 0 1.43.15 1.99.45s.99.74 1.3 1.32.47 1.3.47 2.15v5.49h-.59v-5.45c0-1.12-.28-1.96-.85-2.54s-1.36-.86-2.38-.86c-.78 0-1.45.16-2.02.47-.56.31-1 .76-1.29 1.33-.3.58-.45 1.25-.45 2.02v5.04h-.59v-9.34h.58v2.63l-.07-.16c.29-.78.77-1.4 1.43-1.85.67-.46 1.49-.68 2.47-.68Zm15.71 9.47c-.86 0-1.64-.2-2.33-.6s-1.24-.96-1.64-1.67-.6-1.53-.6-2.46.2-1.75.6-2.46a4.46 4.46 0 0 1 3.97-2.28c.86 0 1.6.2 2.27.59.67.4 1.2.95 1.59 1.66s.59 1.54.59 2.48-.2 1.76-.59 2.48-.92 1.28-1.59 1.67-1.43.58-2.27.58Zm.02-.54c.77 0 1.45-.18 2.05-.53s1.07-.85 1.42-1.49.52-1.36.52-2.18-.18-1.56-.52-2.19-.82-1.12-1.42-1.47-1.28-.52-2.05-.52-1.44.17-2.04.52-1.08.84-1.43 1.47-.53 1.36-.53 2.19.18 1.54.53 2.18c.36.64.83 1.13 1.43 1.49.6.35 1.28.53 2.04.53m4.01.49v-3.28l.16-1.42-.18-1.42v-7.24h.59v13.36h-.58Zm8.25.05c-.92 0-1.74-.2-2.45-.6s-1.27-.96-1.67-1.68c-.41-.72-.61-1.54-.61-2.45s.19-1.74.57-2.45.9-1.27 1.57-1.67 1.42-.61 2.26-.61 1.57.2 2.24.59c.67.4 1.19.95 1.57 1.65s.57 1.51.57 2.42v.16h-8.37v-.49h8.04l-.23.29c0-.78-.16-1.48-.49-2.1s-.78-1.1-1.36-1.46c-.58-.35-1.23-.53-1.96-.53s-1.39.18-1.96.53c-.58.35-1.03.84-1.36 1.46s-.49 1.32-.49 2.12v.11c0 .82.18 1.54.54 2.17s.85 1.12 1.48 1.48c.62.35 1.34.53 2.14.53.61 0 1.19-.11 1.74-.34s1-.58 1.36-1.04l.38.4c-.42.5-.93.88-1.54 1.14s-1.25.39-1.94.39Zm11.52-.06v-13.36h.59v13.36zm7.05.06c-.71 0-1.31-.11-1.81-.32q-.75-.33-1.14-.93c-.26-.4-.4-.86-.4-1.38 0-.46.11-.88.32-1.27s.57-.7 1.07-.94c.5-.23 1.17-.35 2.01-.35h3.62v.49h-3.62c-1.02 0-1.74.19-2.17.58-.43.38-.64.87-.64 1.46 0 .66.25 1.19.74 1.58s1.18.58 2.05.58 1.58-.19 2.14-.58.99-.95 1.28-1.67l.2.4q-.36 1.065-1.29 1.71c-.62.43-1.41.65-2.36.65Zm3.47-.05v-2.18l-.02-.32v-3.55c0-.92-.25-1.63-.74-2.11s-1.21-.72-2.14-.72a4.9 4.9 0 0 0-3.33 1.26l-.32-.43c.45-.42.99-.75 1.64-1s1.33-.37 2.03-.37c1.12 0 1.97.29 2.57.86.59.57.89 1.41.89 2.51v6.05zm9.35-13.36-.61 2.83-.04-.34c.18 0 .33.06.45.17q.18.165.18.42c0 .255-.06.31-.17.42-.12.11-.26.17-.42.17-.18 0-.32-.06-.43-.18a.6.6 0 0 1-.16-.41v-.2c0-.06.02-.13.04-.21l.06-.24.65-2.43zm2.52 0-.61 2.83-.04-.34c.18 0 .33.06.45.17q.18.165.18.42c0 .255-.06.31-.17.42a.6.6 0 0 1-.42.17c-.18 0-.32-.06-.43-.18a.6.6 0 0 1-.16-.41v-.2c0-.06.02-.13.04-.21l.06-.24.65-2.43zm1.67 13.35 5.06-6.75v.49l-4.71-6.34h.72l4.32 5.8h-.23l4.32-5.8h.69l-4.66 6.25v-.32l5.02 6.68h-.72l-4.66-6.23h.23l-4.66 6.23h-.7Zm12.17-9.73.63-2.84.04.36a.6.6 0 0 1-.45-.18.57.57 0 0 1-.18-.41.565.565 0 0 1 .59-.59c.18 0 .32.06.43.18s.16.26.16.41v.2c0 .07-.02.14-.04.21q-.03.105-.06.24l-.65 2.43h-.47Zm2.52 0 .63-2.84.04.36a.6.6 0 0 1-.45-.18.57.57 0 0 1-.18-.41.565.565 0 0 1 .59-.59c.18 0 .32.06.43.18s.16.26.16.41v.2c0 .07-.02.14-.04.21q-.03.105-.06.24l-.65 2.43h-.47Zm12.4 9.79c-.86 0-1.64-.2-2.33-.6s-1.24-.96-1.64-1.67-.6-1.53-.6-2.46.2-1.75.6-2.46a4.46 4.46 0 0 1 3.97-2.28c.86 0 1.6.2 2.27.59.67.4 1.2.95 1.59 1.66s.59 1.54.59 2.48-.2 1.76-.59 2.48-.92 1.28-1.59 1.67-1.43.58-2.27.58Zm.02-.54c.77 0 1.45-.18 2.05-.53s1.07-.85 1.42-1.49.52-1.36.52-2.18-.18-1.56-.52-2.19-.82-1.12-1.42-1.47-1.28-.52-2.05-.52-1.44.17-2.04.52-1.08.84-1.43 1.47-.53 1.36-.53 2.19.18 1.54.53 2.18c.36.64.83 1.13 1.43 1.49.6.35 1.28.53 2.04.53m4.01.49v-3.28l.16-1.42-.18-1.42v-7.24h.59v13.36h-.58Zm8.25.05c-.92 0-1.74-.2-2.45-.6s-1.27-.96-1.67-1.68c-.41-.72-.61-1.54-.61-2.45s.19-1.74.57-2.45.9-1.27 1.57-1.67 1.42-.61 2.26-.61 1.57.2 2.24.59c.67.4 1.19.95 1.57 1.65s.57 1.51.57 2.42v.16h-8.37v-.49h8.04l-.23.29c0-.78-.16-1.48-.49-2.1s-.78-1.1-1.36-1.46c-.58-.35-1.23-.53-1.96-.53s-1.39.18-1.96.53c-.58.35-1.03.84-1.36 1.46s-.49 1.32-.49 2.12v.11c0 .82.18 1.54.54 2.17s.85 1.12 1.48 1.48c.62.35 1.34.53 2.14.53.61 0 1.19-.11 1.74-.34s1-.58 1.36-1.04l.38.4c-.42.5-.93.88-1.54 1.14s-1.25.39-1.94.39Zm11.51-.06v-13.36h.59v13.36zm7.06.06c-.71 0-1.31-.11-1.81-.32q-.75-.33-1.14-.93c-.26-.4-.4-.86-.4-1.38 0-.46.11-.88.32-1.27s.57-.7 1.07-.94c.5-.23 1.17-.35 2.01-.35h3.62v.49h-3.62c-1.02 0-1.74.19-2.17.58-.43.38-.64.87-.64 1.46 0 .66.25 1.19.74 1.58s1.18.58 2.05.58 1.58-.19 2.14-.58.99-.95 1.28-1.67l.2.4q-.36 1.065-1.29 1.71c-.62.43-1.41.65-2.36.65Zm3.47-.05v-2.18l-.02-.32v-3.55c0-.92-.25-1.63-.74-2.11s-1.21-.72-2.14-.72a4.9 4.9 0 0 0-3.33 1.26l-.32-.43c.45-.42.99-.75 1.64-1s1.33-.37 2.03-.37c1.12 0 1.97.29 2.57.86.59.57.89 1.41.89 2.51v6.05zm9.02 3.49V323.7h.58v3.28l-.16 1.42.18 1.42v6.71h-.59Zm4.61-3.44c-.84 0-1.6-.19-2.27-.58s-1.2-.94-1.59-1.66-.58-1.54-.58-2.48.19-1.78.58-2.49.92-1.27 1.59-1.67 1.43-.59 2.27-.59 1.64.2 2.33.61 1.24.97 1.64 1.67.6 1.53.6 2.47-.2 1.74-.6 2.45-.95 1.26-1.64 1.67c-.69.4-1.47.6-2.33.6m-.02-.54c.76 0 1.44-.17 2.04-.52s1.08-.84 1.43-1.48.52-1.36.52-2.18-.17-1.57-.52-2.2c-.35-.62-.82-1.11-1.43-1.47-.61-.35-1.29-.53-2.04-.53s-1.45.18-2.05.53-1.07.84-1.42 1.47c-.35.62-.52 1.36-.52 2.2s.17 1.54.52 2.18.82 1.13 1.42 1.48 1.29.52 2.05.52m9.97.54c-.71 0-1.31-.11-1.81-.32q-.75-.33-1.14-.93c-.26-.4-.4-.86-.4-1.38 0-.46.11-.88.32-1.27s.57-.7 1.07-.94c.5-.23 1.17-.35 2.01-.35h3.62v.49h-3.62c-1.02 0-1.74.19-2.17.58-.43.38-.64.87-.64 1.46 0 .66.25 1.19.74 1.58s1.18.58 2.05.58 1.58-.19 2.14-.58.99-.95 1.28-1.67l.2.4q-.36 1.065-1.29 1.71c-.62.43-1.41.65-2.36.65Zm3.47-.05v-2.18l-.02-.32v-3.55c0-.92-.25-1.63-.74-2.11s-1.21-.72-2.14-.72a4.9 4.9 0 0 0-3.33 1.26l-.32-.43c.45-.42.99-.75 1.64-1s1.33-.37 2.03-.37c1.12 0 1.97.29 2.57.86.59.57.89 1.41.89 2.51v6.05zm4.47-.01v-13.36h.59v13.36zm7.06.06c-.71 0-1.31-.11-1.81-.32q-.75-.33-1.14-.93t-.39-1.38c0-.46.11-.88.32-1.27s.57-.7 1.07-.94c.5-.23 1.17-.35 2.01-.35h3.62v.49h-3.62c-1.02 0-1.74.19-2.17.58-.43.38-.64.87-.64 1.46 0 .66.25 1.19.74 1.58s1.18.58 2.05.58 1.58-.19 2.14-.58.99-.95 1.28-1.67l.2.4c-.24.71-.67 1.28-1.3 1.71-.62.43-1.41.65-2.36.65Zm3.47-.05v-2.18l-.02-.32v-3.55c0-.92-.25-1.63-.74-2.11s-1.21-.72-2.14-.72a4.9 4.9 0 0 0-3.33 1.26l-.32-.43c.44-.42.99-.75 1.64-1s1.32-.37 2.03-.37c1.12 0 1.97.29 2.56.86s.89 1.41.89 2.51v6.05zm4.46-.01v-13.36h.59v7.24l-.18 1.42.16 1.42v3.28h-.58Zm4.61.05c-.84 0-1.6-.19-2.27-.58s-1.2-.94-1.59-1.67c-.39-.72-.58-1.55-.58-2.48s.19-1.78.58-2.48.92-1.26 1.59-1.66 1.43-.59 2.27-.59 1.64.2 2.33.61 1.24.96 1.64 1.67.6 1.52.6 2.46-.2 1.74-.6 2.46-.95 1.27-1.64 1.67-1.47.6-2.33.6Zm-.02-.54c.76 0 1.44-.18 2.04-.53.61-.35 1.08-.85 1.43-1.49s.52-1.36.52-2.18-.17-1.56-.52-2.19-.82-1.12-1.43-1.47-1.29-.52-2.04-.52-1.45.17-2.05.52-1.07.84-1.42 1.47-.52 1.36-.52 2.19.17 1.54.52 2.18.82 1.13 1.42 1.49c.6.35 1.29.53 2.05.53m7.53.49v-9.34h.58v2.57l-.05-.16q.375-1.17 1.32-1.83t2.37-.66v.59h-.16c-1.08 0-1.93.34-2.54 1.03-.61.68-.92 1.63-.92 2.83v4.97h-.59Zm8.57.06c-.71 0-1.31-.11-1.81-.32q-.75-.33-1.14-.93t-.39-1.38c0-.46.11-.88.32-1.27s.57-.7 1.07-.94c.5-.23 1.17-.35 2.01-.35h3.62v.49h-3.62c-1.02 0-1.74.19-2.17.58-.43.38-.64.87-.64 1.46 0 .66.25 1.19.74 1.58s1.18.58 2.05.58 1.58-.19 2.14-.58.99-.95 1.28-1.67l.2.4c-.24.71-.67 1.28-1.3 1.71-.62.43-1.41.65-2.36.65Zm3.47-.05v-2.18l-.02-.32v-3.55c0-.92-.25-1.63-.74-2.11s-1.21-.72-2.14-.72a4.9 4.9 0 0 0-3.33 1.26l-.32-.43c.44-.42.99-.75 1.64-1s1.32-.37 2.03-.37c1.12 0 1.97.29 2.56.86s.89 1.41.89 2.51v6.05zm-276.51 24.99 5.83-12.6h.59l5.83 12.6h-.67l-5.6-12.19h.27l-5.6 12.19h-.67Zm2.02-3.69.23-.52h7.71l.23.52zm14.45 3.69v-12.04h-4.62v-.56h9.85v.56h-4.63v12.04h-.59Zm5.17 0 5.06-6.75v.49l-4.72-6.34h.72l4.32 5.8h-.23l4.32-5.8h.68l-4.66 6.25v-.32l5.02 6.68h-.72l-4.66-6.23h.23l-4.66 6.23h-.7Zm18 .08c-.92 0-1.78-.16-2.57-.48s-1.48-.76-2.07-1.34-1.04-1.25-1.37-2.03c-.32-.77-.49-1.62-.49-2.53s.16-1.75.49-2.53c.32-.77.78-1.45 1.37-2.02a6.3 6.3 0 0 1 2.07-1.34c.79-.32 1.66-.48 2.59-.48s1.78.16 2.57.48 1.48.77 2.06 1.34c.58.58 1.04 1.25 1.37 2.02s.49 1.61.49 2.54-.16 1.75-.49 2.53c-.33.77-.79 1.45-1.37 2.03s-1.27 1.02-2.06 1.34-1.66.48-2.59.48Zm0-.56c.84 0 1.62-.14 2.34-.43s1.35-.7 1.88-1.22c.54-.53.95-1.14 1.24-1.85s.44-1.47.44-2.31-.15-1.61-.44-2.31-.71-1.32-1.24-1.84c-.53-.53-1.16-.94-1.88-1.22s-1.5-.43-2.34-.43-1.6.14-2.32.43-1.35.7-1.88 1.22-.95 1.15-1.24 1.85c-.29.71-.44 1.48-.44 2.3s.15 1.61.44 2.31.71 1.32 1.24 1.85 1.16.94 1.88 1.22c.72.29 1.49.43 2.32.43m9.84.48v-12.6h.5l9.25 11.88h-.31v-11.88h.61v12.6h-.5l-9.25-11.88h.3v11.88h-.61Zm12.49 0 5.83-12.6h.59l5.83 12.6h-.67l-5.6-12.19h.27l-5.6 12.19h-.67Zm2.02-3.69.23-.52h7.7l.23.52h-8.17Zm19.1 7.19q-.975-1.635-1.5-3.78c-.36-1.43-.53-2.98-.53-4.64s.18-3.23.53-4.67q.525-2.175 1.5-3.75h.56c-.7 1.18-1.2 2.46-1.52 3.85s-.48 2.92-.48 4.57.16 3.18.48 4.57.82 2.68 1.52 3.85zm7.4-11.52v-.54h7.49v.54zm0 4v-.54h7.49v.54zm18.23 4.08c-.8 0-1.51-.15-2.12-.46s-1.07-.75-1.4-1.32c-.33-.58-.5-1.26-.5-2.05s.13-1.55.39-2.23.62-1.28 1.1-1.79c.47-.51 1.03-.91 1.67-1.19q.96-.42 2.13-.42c1.17 0 1.51.15 2.1.45.58.3 1.03.73 1.33 1.29s.46 1.23.46 2.01c.01 1.09-.2 2.07-.64 2.93s-1.04 1.55-1.82 2.04c-.78.5-1.68.75-2.71.75Zm.11-.54c.9 0 1.7-.22 2.39-.66.7-.44 1.24-1.04 1.65-1.8.4-.76.6-1.63.6-2.6 0-1.06-.31-1.87-.93-2.45s-1.48-.86-2.58-.86c-.89 0-1.68.22-2.38.66a4.65 4.65 0 0 0-1.66 1.8c-.41.76-.61 1.63-.61 2.6 0 1.04.31 1.86.93 2.44s1.48.87 2.6.87Zm3.63.49.63-3.11.49-1.42.09-1.53.65-3.28h.59l-1.85 9.34zm4.58-.01 2.66-13.36h.6L639 351.8l-.51 1.42-.09 1.49-.67 3.31h-.58Zm4.91.05c-.81 0-1.51-.15-2.1-.44s-1.02-.72-1.32-1.28-.46-1.23-.47-2.03c0-.82.12-1.57.37-2.27s.6-1.3 1.05-1.82c.46-.52 1-.92 1.64-1.21.63-.29 1.34-.43 2.11-.43.82 0 1.52.16 2.12.47s1.06.75 1.4 1.32c.33.57.49 1.26.49 2.06s-.13 1.55-.4 2.23-.63 1.28-1.1 1.79-1.03.9-1.67 1.18c-.65.28-1.36.41-2.12.41Zm.04-.54c.9 0 1.7-.22 2.39-.66q1.05-.66 1.65-1.8c.41-.76.61-1.63.61-2.6 0-1.06-.31-1.87-.93-2.45s-1.48-.86-2.6-.86c-.89 0-1.68.22-2.39.65a4.53 4.53 0 0 0-1.65 1.79c-.4.76-.6 1.63-.6 2.62 0 1.04.31 1.86.93 2.44q.93.87 2.58.87Zm10.98.55c-.84 0-1.52-.16-2.04-.5q-.78-.495-1.05-1.38c-.19-.59-.2-1.28-.04-2.07l1.08-5.45h.59l-1.08 5.47c-.21 1.04-.1 1.87.35 2.48s1.22.91 2.31.91 2.07-.31 2.82-.94 1.24-1.55 1.48-2.76l1.03-5.15h.59l-1.85 9.34h-.58l.54-2.7.2.05c-.44.94-1.04 1.62-1.79 2.05s-1.61.65-2.56.65m12.15 0c-.86 0-1.61-.15-2.24-.46q-.945-.465-1.44-1.32c-.33-.58-.5-1.27-.5-2.09 0-1.07.22-2.02.66-2.86s1.04-1.51 1.8-2 1.62-.74 2.58-.74c.8 0 1.49.15 2.07.46s1.02.75 1.33 1.32c.31.58.47 1.27.47 2.07 0 .17 0 .34-.03.5s-.04.32-.06.47h-8.37l.11-.5h7.99l-.25.25c.14-.88.09-1.61-.16-2.21s-.65-1.05-1.19-1.36-1.18-.47-1.93-.47c-.85 0-1.61.22-2.29.66-.67.44-1.2 1.04-1.58 1.79s-.58 1.62-.58 2.59c0 1.08.31 1.91.94 2.48.62.58 1.53.86 2.72.86.68 0 1.31-.12 1.89-.35.57-.23 1.05-.56 1.42-.98l.29.41c-.38.44-.9.8-1.55 1.06s-1.35.4-2.11.4Zm6.69-.06 2.66-13.36h.6l-2.66 13.36zm8.43.06c-.82 0-1.53-.16-2.14-.47s-1.08-.76-1.41-1.33-.49-1.25-.49-2.03c0-1.08.23-2.04.68-2.89.46-.85 1.08-1.51 1.88-2.01.8-.49 1.71-.74 2.75-.74.84 0 1.56.16 2.16.47s1.06.76 1.39 1.33.49 1.26.49 2.05c0 1.07-.23 2.03-.68 2.88-.46.85-1.08 1.52-1.88 2.01s-1.71.73-2.74.73Zm.07-.54c.9 0 1.7-.22 2.39-.66.7-.44 1.24-1.04 1.65-1.8.4-.76.6-1.63.6-2.6 0-1.06-.31-1.87-.93-2.45s-1.48-.86-2.58-.86c-.89 0-1.68.22-2.38.66s-1.26 1.04-1.67 1.8-.61 1.63-.61 2.6c0 1.04.31 1.86.93 2.44s1.48.87 2.6.87m15.67.54c-.86 0-1.61-.15-2.24-.46q-.945-.465-1.44-1.32c-.33-.58-.5-1.27-.5-2.09 0-1.07.22-2.02.66-2.86s1.04-1.51 1.8-2 1.62-.74 2.58-.74c.8 0 1.49.15 2.07.46s1.02.75 1.33 1.32c.31.58.47 1.27.47 2.07 0 .17 0 .34-.03.5s-.04.32-.06.47h-8.37l.11-.5h7.99l-.25.25c.14-.88.09-1.61-.16-2.21s-.65-1.05-1.19-1.36-1.18-.47-1.93-.47c-.85 0-1.61.22-2.29.66-.67.44-1.2 1.04-1.58 1.79s-.58 1.62-.58 2.59c0 1.08.31 1.91.94 2.48.62.58 1.53.86 2.72.86.68 0 1.31-.12 1.89-.35.57-.23 1.05-.56 1.42-.98l.29.41c-.38.44-.9.8-1.55 1.06s-1.35.4-2.11.4Zm12.79-9.47c.85 0 1.54.17 2.07.5.53.34.88.8 1.07 1.39s.2 1.27.04 2.05l-1.1 5.47h-.6l1.1-5.47c.2-1.04.08-1.87-.37-2.48s-1.23-.91-2.35-.91-2.07.31-2.84.94c-.76.62-1.26 1.55-1.5 2.77l-1.03 5.15h-.6l1.86-9.34h.59l-.54 2.7-.21-.05q.66-1.425 1.8-2.07c.76-.43 1.62-.65 2.59-.65Zm11.55 8.86h7.92l-.13.56h-8.51l2.52-12.6h8.24l-.11.56h-7.65l-2.29 11.48Zm1.12-6.12h6.95l-.11.56h-6.95zm13.53 6.73c-.84 0-1.52-.16-2.04-.5q-.78-.495-1.05-1.38c-.19-.59-.2-1.28-.04-2.07l1.08-5.45h.59l-1.08 5.47c-.21 1.04-.1 1.87.35 2.48s1.22.91 2.31.91 2.07-.31 2.82-.94 1.24-1.55 1.48-2.76l1.03-5.15h.59l-1.85 9.34h-.58l.54-2.7.2.05c-.44.94-1.04 1.62-1.79 2.05s-1.61.65-2.56.65m10.57 0c-.72 0-1.4-.11-2.05-.34s-1.15-.52-1.49-.86l.36-.47c.36.35.83.63 1.4.84s1.18.32 1.82.32c1.03 0 1.84-.19 2.41-.58s.86-.91.86-1.58q0-.645-.39-.99t-1.02-.51c-.63-.165-.86-.22-1.33-.31s-.91-.21-1.33-.35-.76-.36-1.02-.65-.39-.7-.39-1.22.16-1.04.47-1.45.75-.73 1.32-.96 1.23-.34 1.99-.34c.58 0 1.14.08 1.69.25s.99.4 1.31.7l-.32.45c-.35-.29-.76-.5-1.24-.65-.48-.14-.98-.22-1.49-.22-.96 0-1.72.2-2.29.59-.56.4-.85.92-.85 1.58 0 .43.13.77.39 1s.6.41 1.02.52.87.22 1.33.31c.47.09.91.21 1.33.35s.76.36 1.02.64.39.68.39 1.2c0 .58-.16 1.07-.48 1.48s-.77.72-1.36.94-1.28.32-2.07.32Zm6.06-.06 2.66-13.36h.59l-2.66 13.36zm.99-2.7.09-.74 7.63-5.9h.88l-4.91 3.8-.36.29-3.33 2.56Zm6.43 2.7-3.22-5.33.45-.41 3.47 5.74zm6.37.06c-.87 0-1.61-.15-2.24-.46q-.945-.465-1.44-1.32c-.33-.58-.49-1.27-.49-2.09 0-1.07.22-2.02.66-2.86s1.04-1.51 1.8-2 1.62-.74 2.58-.74c.8 0 1.49.15 2.07.46s1.02.75 1.33 1.32.47 1.27.47 2.07c0 .17 0 .34-.03.5-.02.17-.04.32-.06.47h-8.37l.11-.5h7.99l-.25.25c.14-.88.09-1.61-.16-2.21s-.65-1.05-1.19-1.36-1.18-.47-1.93-.47c-.85 0-1.62.22-2.29.66s-1.2 1.04-1.58 1.79c-.38.76-.57 1.62-.57 2.59 0 1.08.31 1.91.94 2.48.62.58 1.53.86 2.72.86.69 0 1.31-.12 1.89-.35s1.05-.56 1.42-.98l.29.41c-.38.44-.9.8-1.55 1.06s-1.35.4-2.11.4Zm6.7-.06 1.85-9.34h.59l-.58 2.86-.11-.2c.4-.88.95-1.55 1.65-2.03.7-.47 1.59-.71 2.67-.71l-.11.59h-.22c-1.1 0-2.01.33-2.73 1-.71.67-1.2 1.66-1.47 2.98l-.97 4.84h-.59Zm10.53.06c-.8 0-1.51-.15-2.12-.46s-1.07-.75-1.4-1.32c-.33-.58-.49-1.26-.49-2.05s.13-1.55.39-2.23.62-1.28 1.1-1.79 1.03-.91 1.67-1.19q.96-.42 2.13-.42c1.17 0 1.52.15 2.1.45s1.03.73 1.33 1.29c.31.56.46 1.23.46 2.01.01 1.09-.2 2.07-.64 2.93s-1.04 1.55-1.82 2.04c-.77.5-1.68.75-2.71.75Zm.11-.54c.9 0 1.7-.22 2.39-.66.7-.44 1.24-1.04 1.65-1.8.4-.76.6-1.63.6-2.6 0-1.06-.31-1.87-.93-2.45s-1.48-.86-2.58-.86c-.89 0-1.68.22-2.38.66s-1.26 1.04-1.67 1.8-.61 1.63-.61 2.6c0 1.04.31 1.86.93 2.44s1.48.87 2.6.87m3.64.49.63-3.11.48-1.42.09-1.53.65-3.28h.59l-1.85 9.34zm5.03 3.49h-.56c.68-1.18 1.19-2.46 1.51-3.85s.49-2.92.49-4.57-.16-3.18-.49-4.57c-.32-1.39-.83-2.68-1.51-3.85h.56c.65 1.06 1.14 2.31 1.49 3.75.35 1.45.52 3 .52 4.67s-.17 3.22-.52 4.64c-.35 1.43-.85 2.69-1.49 3.78m5.87-3.44c-.16 0-.29-.06-.41-.17q-.18-.165-.18-.42c0-.255.06-.31.18-.42s.26-.17.41-.17c.17 0 .31.06.42.17.12.11.17.25.17.42s-.06.31-.17.42-.25.17-.42.17m-117.23 24.94v-12.6h4.38c1.04 0 1.94.17 2.69.5s1.32.81 1.72 1.43.59 1.37.59 2.24-.2 1.63-.59 2.25-.97 1.1-1.72 1.44-1.65.5-2.69.5h-4.03l.27-.29v4.52h-.61Zm.61-4.52-.27-.27h4.07c1.42 0 2.5-.32 3.25-.95.75-.64 1.12-1.53 1.12-2.68s-.38-2.04-1.12-2.67-1.83-.95-3.25-.95h-4.07l.27-.29zm8.24 4.52-3.28-4.57h.7l3.29 4.57H689Zm6.14.06c-.71 0-1.31-.11-1.81-.32q-.75-.33-1.14-.93c-.26-.4-.4-.86-.4-1.38 0-.46.11-.88.32-1.27s.57-.7 1.07-.94c.5-.23 1.17-.35 2.01-.35h3.62v.49h-3.62c-1.02 0-1.74.19-2.17.58-.43.38-.64.87-.64 1.46 0 .66.25 1.19.74 1.58s1.18.58 2.05.58 1.58-.19 2.14-.58.99-.95 1.28-1.67l.2.4q-.36 1.065-1.29 1.71c-.62.43-1.41.65-2.36.65Zm3.47-.05v-2.18l-.02-.32v-3.55c0-.92-.25-1.63-.74-2.11s-1.21-.72-2.14-.72a4.9 4.9 0 0 0-3.33 1.26l-.32-.43c.45-.42.99-.75 1.64-1s1.33-.37 2.03-.37c1.12 0 1.97.29 2.57.86.59.57.89 1.41.89 2.51v6.05zm3.86-10.93 2.5-2.03h.97l-2.75 2.03zm.61 10.93v-9.34h.59v9.34zm8.17.05c-.89 0-1.68-.2-2.38-.6s-1.25-.96-1.66-1.67-.6-1.53-.6-2.46.2-1.74.6-2.46.96-1.27 1.66-1.67 1.5-.6 2.38-.6c.71 0 1.36.13 1.96.41.6.27 1.1.67 1.49 1.2l-.45.38c-.35-.49-.78-.85-1.3-1.08s-1.09-.34-1.7-.34c-.77 0-1.46.17-2.07.52s-1.09.84-1.45 1.47c-.35.63-.53 1.36-.53 2.19s.18 1.56.53 2.19c.36.63.84 1.12 1.45 1.48.61.35 1.3.53 2.07.53.61 0 1.18-.12 1.7-.35s.96-.59 1.3-1.07l.45.36c-.4.54-.89.94-1.49 1.21-.6.26-1.25.4-1.96.4Zm9.79 0c-.92 0-1.74-.2-2.45-.6s-1.27-.96-1.67-1.68c-.41-.72-.61-1.54-.61-2.45s.19-1.74.57-2.45.9-1.27 1.57-1.67 1.42-.61 2.26-.61 1.57.2 2.24.59c.67.4 1.19.95 1.57 1.65s.57 1.51.57 2.42v.16h-8.37v-.49h8.04l-.23.29c0-.78-.16-1.48-.49-2.1s-.78-1.1-1.36-1.46c-.58-.35-1.23-.53-1.96-.53s-1.39.18-1.96.53c-.58.35-1.03.84-1.36 1.46s-.49 1.32-.49 2.12v.11c0 .82.18 1.54.54 2.17s.85 1.12 1.48 1.48c.62.35 1.34.53 2.14.53.61 0 1.19-.11 1.74-.34s1-.58 1.36-1.04l.38.4c-.42.5-.93.88-1.54 1.14s-1.25.39-1.94.39Zm9.22 0c-.77 0-1.49-.12-2.16-.35s-1.18-.53-1.53-.89l.29-.47c.35.31.82.59 1.42.83s1.27.36 2 .36c1.04 0 1.8-.18 2.26-.54s.69-.83.69-1.4c0-.42-.12-.75-.34-.99-.23-.24-.53-.43-.9-.56s-.78-.24-1.23-.32-.9-.17-1.36-.27-.87-.24-1.24-.41a2.3 2.3 0 0 1-.9-.73c-.23-.31-.34-.73-.34-1.24 0-.44.12-.85.37-1.22s.62-.67 1.12-.91c.5-.23 1.15-.35 1.93-.35.58 0 1.15.09 1.74.26.58.17 1.05.41 1.4.69l-.31.47c-.37-.3-.81-.52-1.3-.67-.5-.14-1.01-.22-1.54-.22-.97 0-1.68.19-2.12.56s-.67.83-.67 1.37c0 .43.12.78.34 1.04.23.26.53.45.9.58s.78.24 1.23.32q.675.12 1.35.27c.45.1.86.23 1.23.4s.67.4.9.7.34.71.34 1.22c0 .48-.13.91-.4 1.29s-.67.67-1.19.87-1.18.31-1.97.31Zm13.12-.06-4.27-9.34h.65l4.05 8.98h-.27l4.07-8.98h.63l-4.27 9.34zm9.14.06c-.71 0-1.31-.11-1.81-.32q-.75-.33-1.14-.93t-.39-1.38c0-.46.11-.88.32-1.27s.57-.7 1.07-.94c.5-.23 1.17-.35 2.01-.35h3.62v.49h-3.62c-1.02 0-1.74.19-2.17.58-.43.38-.64.87-.64 1.46 0 .66.25 1.19.74 1.58s1.18.58 2.05.58 1.58-.19 2.14-.58.99-.95 1.28-1.67l.2.4c-.24.71-.67 1.28-1.3 1.71-.62.43-1.41.65-2.36.65Zm3.47-.05v-2.18l-.02-.32v-3.55c0-.92-.25-1.63-.74-2.11s-1.21-.72-2.14-.72a4.9 4.9 0 0 0-3.33 1.26l-.32-.43c.44-.42.99-.75 1.64-1s1.32-.37 2.03-.37c1.12 0 1.97.29 2.56.86s.89 1.41.89 2.51v6.05zm6.72.05c-.77 0-1.49-.12-2.16-.35s-1.18-.53-1.53-.89l.29-.47c.35.31.82.59 1.42.83s1.27.36 2 .36c1.04 0 1.8-.18 2.26-.54s.69-.83.69-1.4c0-.42-.11-.75-.34-.99s-.53-.43-.9-.56-.78-.24-1.23-.32-.9-.17-1.36-.27-.87-.24-1.24-.41a2.3 2.3 0 0 1-.9-.73c-.23-.31-.34-.73-.34-1.24 0-.44.12-.85.37-1.22s.62-.67 1.12-.91c.51-.23 1.15-.35 1.93-.35.58 0 1.15.09 1.74.26.58.17 1.05.41 1.39.69l-.3.47c-.37-.3-.81-.52-1.31-.67-.5-.14-1.01-.22-1.54-.22-.97 0-1.68.19-2.12.56s-.67.83-.67 1.37c0 .43.11.78.34 1.04s.53.45.9.58.78.24 1.23.32.9.17 1.35.27.86.23 1.23.4.67.4.9.7.34.71.34 1.22c0 .48-.13.91-.4 1.29s-.67.67-1.19.87-1.18.31-1.97.31m9.79 0c-.89 0-1.68-.2-2.38-.6s-1.25-.96-1.66-1.67-.6-1.53-.6-2.46.2-1.74.6-2.46.96-1.27 1.66-1.67 1.5-.6 2.38-.6c.71 0 1.36.13 1.96.41.6.27 1.1.67 1.49 1.2l-.45.38c-.35-.49-.78-.85-1.3-1.08s-1.09-.34-1.7-.34c-.77 0-1.46.17-2.07.52s-1.09.84-1.45 1.47c-.35.63-.53 1.36-.53 2.19s.18 1.56.53 2.19c.36.63.84 1.12 1.45 1.48.61.35 1.3.53 2.07.53.61 0 1.18-.12 1.7-.35s.96-.59 1.3-1.07l.45.36c-.4.54-.89.94-1.49 1.21-.6.26-1.25.4-1.96.4Zm8.77 0c-.71 0-1.31-.11-1.81-.32q-.75-.33-1.14-.93c-.26-.4-.4-.86-.4-1.38 0-.46.11-.88.32-1.27s.57-.7 1.07-.94c.5-.23 1.17-.35 2.01-.35h3.62v.49h-3.62c-1.02 0-1.74.19-2.17.58-.43.38-.64.87-.64 1.46 0 .66.25 1.19.74 1.58s1.18.58 2.05.58 1.58-.19 2.14-.58.99-.95 1.28-1.67l.2.4q-.36 1.065-1.29 1.71c-.62.43-1.41.65-2.36.65Zm3.47-.05v-2.18l-.02-.32v-3.55c0-.92-.25-1.63-.74-2.11s-1.21-.72-2.14-.72a4.9 4.9 0 0 0-3.33 1.26l-.32-.43c.45-.42.99-.75 1.64-1s1.33-.37 2.03-.37c1.12 0 1.97.29 2.57.86.59.57.89 1.41.89 2.51v6.05zm6.71.05c-.77 0-1.49-.12-2.16-.35s-1.18-.53-1.53-.89l.29-.47c.35.31.82.59 1.42.83s1.27.36 2 .36c1.04 0 1.8-.18 2.26-.54s.69-.83.69-1.4c0-.42-.12-.75-.34-.99-.23-.24-.53-.43-.9-.56s-.78-.24-1.23-.32-.9-.17-1.36-.27-.87-.24-1.24-.41a2.3 2.3 0 0 1-.9-.73c-.23-.31-.34-.73-.34-1.24 0-.44.12-.85.37-1.22s.62-.67 1.12-.91c.5-.23 1.15-.35 1.93-.35.58 0 1.15.09 1.74.26.58.17 1.05.41 1.4.69l-.31.47c-.37-.3-.81-.52-1.3-.67-.5-.14-1.01-.22-1.54-.22-.97 0-1.68.19-2.12.56s-.67.83-.67 1.37c0 .43.12.78.34 1.04.23.26.53.45.9.58s.78.24 1.23.32q.675.12 1.35.27c.45.1.86.23 1.23.4s.67.4.9.7.34.71.34 1.22c0 .48-.13.91-.4 1.29s-.67.67-1.19.87-1.18.31-1.97.31Zm5.93 0c-.16 0-.29-.06-.41-.17q-.18-.165-.18-.42c0-.255.06-.31.18-.42s.26-.17.41-.17c.17 0 .31.06.42.17s.17.25.17.42-.06.31-.17.42c-.12.11-.26.17-.42.17"/><g fill="#375542"><path d="m361.49 191.01-.75-1.01c-2.48-3.33-7.39-3.55-10.15-.45-8.18 9.16-23.74 27.6-33.52 45.35-6.57-1.91-15.39-4.72-28.12-8.99-23.91-8.01-43.76-9.5-59.27-8.21-4 .33-7.09 3.66-7.09 7.68v1.69c0 3.63 3.13 6.44 6.74 6.09 13.23-1.29 31.74-.42 54.8 7.3 12.64 4.23 23.53 7.55 32.63 9.95.21.1.41.22.63.3l3.51 1.23a6.56 6.56 0 0 0 7.99-3.16c5.49-10.52 18.92-34.94 32.13-49.27 2.18-2.37 2.41-5.93.48-8.51ZM334.58 55.55c4.09 2.01 8.33 2.8 13.03 2.3-5.19-10.93-10.7-21.47-14.86-32.61l.66-.42c6.63 6.51 13.27 13.02 20.11 19.73.34-2.36.82-4.68.99-7.02.62-8.84-1.91-16.61-8.29-22.85-7.85-7.66-17.57-11.03-28.26-12.04-1.74-.16-1.86.89-1.96 2.08-.9 10.5-.46 20.89 3.12 30.9 2.97 8.3 7.07 15.81 15.47 19.92Zm-4.21 43.86c-8.78-1.48-16.8.33-23.66 6.2-8.42 7.21-12.73 16.72-14.76 27.45-.33 1.75.71 1.97 1.89 2.19 10.42 1.92 20.85 2.47 31.22-.19 8.59-2.21 16.5-5.64 21.42-13.75 2.4-3.95 3.61-8.17 3.56-12.97-11.43 4.2-22.5 8.77-34.05 11.91l-.37-.7c7.15-6.09 14.3-12.18 21.67-18.46-2.33-.57-4.6-1.28-6.93-1.68ZM391.46 113c.26 2.14.38 4.28.79 6.36 1.54 7.87 5.59 14.05 12.64 17.97 8.67 4.82 17.94 5.44 27.52 3.76 1.56-.27 1.42-1.22 1.22-2.29-1.69-9.38-4.53-18.35-10.02-26.24-4.55-6.54-9.91-12.11-18.22-13.7-4.05-.77-7.94-.46-11.92 1.1 7.11 8.31 14.41 16.19 20.68 24.93-.26.29-.22.24-.47.53l-22.22-12.43Zm11.3-40.75C417.81 67.2 422.2 52.7 422.2 52.7c-21.32-1.89-19.44 19.55-19.44 19.55m44.97-35.51c-6.73 4.34-13.46 8.68-20.4 13.16 1.91.75 3.75 1.61 5.67 2.2 7.27 2.25 14.25 1.62 20.71-2.56 7.93-5.15 12.64-12.7 15.56-21.55.48-1.44-.38-1.75-1.36-2.07-8.6-2.8-17.37-4.45-26.43-3.38-7.52.89-14.59 2.9-19.66 9.2-2.47 3.07-3.97 6.5-4.46 10.57 10.14-2.26 20.02-4.87 30.14-6.22l.23.64Z"/><path d="m525.1 239.14-.18-.26a6.98 6.98 0 0 0-8.62-2.37c-3.44 1.55-8.6 3.45-15.36 4.78-12.34 2.43-32.73 3.43-59.76-5.62-2.84-.95-5.54-1.83-8.19-2.68-13.52-9.87-25.18-20.77-34.26-30.25 0-.01-.01-.02-.02-.04a.8.8 0 0 0-.18-.26c-.41-.39-.8-.79-1.21-1.18-4.72-5-8.67-9.53-11.77-13.24-1.94-2.44-3.84-4.92-5.72-7.41-1.35-1.79-1.49-3.15-.43-5.14 3.52-6.57 6.93-13.22 8.32-20.67 3.03-16.31-.36-31.57-7.42-46.23-2.14-4.45-2.07-5.25 1.64-8.37.37-.31.76-.62 1.16-.9 8.46-6 17.93-9.4 28.17-9.83 8.36-.35 16.75.13 25.13.39 6.93.21 13.87-1.02 20.13-4.01 6.98-3.34 12.54-8.28 16.72-15.13.26-.43.1-1-.34-1.24-3.23-1.75-6.32-3.42-9.53-5.16a.875.875 0 0 0-1.15.3c-3.13 4.86-7.09 8.51-12.32 10.63-5.02 2.04-10.18 2.64-15.86 2.04-.68-.07-1-.87-.59-1.42 2.88-3.89 5.05-7.85 6.59-11.87q-.51.03-1.02.03c-4.28 0-8.12-1.43-11.19-3.82-1.9 5.24-5.53 9.59-10.74 12.93-6.42 4.13-13.81 3.68-21.31 5.11a.89.89 0 0 1-1.05-.96c.49-4.65.83-8.93 1.5-13.16 1.4-8.87 6.84-15.78 14.66-19.15-.24-.95-.41-1.93-.51-2.92-.88-2.16-1.41-4.51-1.51-6.94-.03-.71-.01-1.41.05-2.1-.02-.25-.04-.5-.05-.75-.01-.24-.01-.48-.01-.73-1.01.31-2 .65-2.96 1.07-3.91 1.71-7.58 3.95-11.46 6.09-.48.27-1.08.02-1.25-.51-3.08-9.76-7.85-18.5-15.54-25.45-7.54-6.81-16.24-11.02-26.34-12.75-.61.52-.84.72-1.45 1.24-.01 3.71-.05 7.09.08 10.45.02.61.98 1.55 1.65 1.7 12.82 2.92 21.65 11.13 27.54 22.33 5.62 10.67 5.4 22.4 3.09 33.97-1.76 8.8-6.04 16.44-12.06 23.27-.31.35-.85.4-1.21.1-5.26-4.44-7.4-10.6-9.17-16.73-1.71-5.92-2.7-11.78-2.81-17.55-3.49 3.23-8.13 5.25-12.86 5.25h-.39c.69 2.33 1.25 4.71 1.71 7.13.38 1.98.53 4 .82 6.6.07.61-.5 1.09-1.09.95-6.51-1.59-12.44-2.81-18.19-4.66-2.78-.89-5.4-2.27-7.62-4.16-6.28-5.34-8.65-12.27-8.71-19.85l.19.41c-.93-7.25 1.45-15.3 2.08-17.27.05-.07.09-.14.14-.21 0-.04-.02-.08-.03-.12.03-.08.04-.13.04-.13l-.07.04a.82.82 0 0 0-.46-.47c-3.34-1.45-6.76-2.94-10.38-4.52a.89.89 0 0 0-1.19.53c-5.54 17.01-5.9 33 6.63 47.46.49.56.13 1.44-.62 1.47-11.82.35-21.95-2.02-28.8-12.55a.87.87 0 0 0-1.19-.28c-3.34 2.01-6.61 3.99-9.89 5.97-.44.26-.57.85-.26 1.26 6.85 9.32 18.54 17.24 29.37 18.36 7.96.82 16.14.2 24.16-.53 13.2-1.2 25.22 1.35 35.66 9.78 16.76 13.54 23.5 36.64 16.84 57.28-.57 1.77-1.36 3.47-2.25 5.53-.28.64-1.16.71-1.53.13-.98-1.51-1.77-2.67-2.38-3.92-3.89-8.09-3.87-16.65-2.8-25.31.23-1.88 1.1-4 .55-5.62-1.46-4.29-3.39-8.43-5.31-12.85a.865.865 0 0 0-1.57-.05c-.01.03-.03.05-.04.08-.72 1.56-1.59 3.08-2.06 4.72-5.02 17.32-4.84 34.36 2.9 50.97 6.69 14.35 16.07 26.45 26.98 37.26 6.74 7.08 13.99 14.04 20.64 20.16-13.45-.23-30.5 3.27-45.77 17.86l.12.35a37.6 37.6 0 0 0-7.32 11.51c-3.78 9.29-3.77 19.54.03 28.85l.68 1.66.14-.03c3.06 6.24 7.93 10.97 12.16 14.21-6.36 5.06-15 6.47-22.65 3.53-5.5-2.11-9.99-6.27-12.56-11.59 4.04-2.27 6.71-7.42 6.71-13.36 0-8.04-5.06-14.59-11.28-14.59-5.87 0-10.69 5.67-11.23 13.2-.09.54-.13 1.1-.13 1.64 0 .33.02.67.05 1.03-.8 16.07 8.66 30.69 23.61 36.42 10.21 3.92 21.59 3.02 31.06-2.32l3.45-2.15c.75-.57 2.26-1.82 4.23-4.03 7.17 6.82 9.48 17.47 5.74 26.67-2.11 5.18-5.89 9.4-10.75 12.05-2.44-3.71-7.33-6.09-12.87-6.09-8 0-14.5 5.09-14.5 11.35 0 1.52.37 2.99 1.11 4.38 1.03 2.48 2.93 4.44 5.29 5.54l-.2.52 2.42.48c2.44.48 4.88.72 7.29.72 15.11 0 29.16-9.17 35.05-23.66 4.28-10.51 3.63-22.36-1.64-32.32l1.1 2.66-3.16-6.19c-.77-1.08-2.86-3.73-7.06-7.15.14-.23.27-.47.4-.7l.15-.32c.11-.27.22-.53.32-.8 5.8-9.67 17.58-13.76 28.09-9.73 5.87 2.25 10.51 6.74 12.98 12.5-4.44 1.99-7.56 7.45-7.56 13.78 0 8.04 5.06 14.59 11.28 14.59 5.46 0 10.11-5.01 11.09-11.92 1.66-8.44.3-17.28-3.83-24.89-4.19-7.72-10.98-13.69-19.14-16.81-9.05-3.47-18.94-3.22-27.84.71l-1.64.72.04.14c-7.49 3.98-12.62 10.72-15.44 15.29-8.95-6.48-12.39-18.29-8.16-28.7.02-.05.04-.1.07-.15l.14.42s1-3.1 3.88-6.91c.85-.98 1.76-1.89 2.75-2.72l-.24-.24c7.44-7.76 22.65-15.99 51.88-7.8l.15.06c.85.27 1.72.56 2.62.86 1.07.75 2.32 1.16 3.59 1.19 1.87.62 3.84 1.28 5.97 1.99 43.57 14.59 72.79 6.09 85.6.29 4-1.81 5.36-6.84 2.85-10.45Z"/></g><path fill="#b6b7b6" d="M0 81.45h325.1v.9H0z"/><path d="M3.49 115.03v-12.6h4.37c1.04 0 1.94.17 2.69.5s1.32.81 1.72 1.43.59 1.37.59 2.24-.2 1.63-.59 2.25c-.4.62-.97 1.1-1.72 1.44s-1.65.5-2.69.5H3.83l.27-.29v4.52h-.61Zm.61-4.52-.27-.27H7.9c1.42 0 2.5-.32 3.25-.95.75-.64 1.12-1.53 1.12-2.68s-.38-2.04-1.12-2.67-1.83-.95-3.25-.95H3.83l.27-.29zm11.4 4.52v-9.34h.58v2.57l-.05-.16q.375-1.17 1.32-1.83c.945-.66 1.42-.66 2.37-.66v.59h-.16c-1.08 0-1.93.34-2.54 1.03-.61.68-.92 1.63-.92 2.83v4.97h-.59Zm10.26.06c-.88 0-1.66-.2-2.35-.6s-1.24-.96-1.64-1.67q-.6-1.065-.6-2.46c0-1.395.2-1.74.6-2.45s.95-1.27 1.64-1.67 1.47-.61 2.35-.61 1.66.2 2.36.6 1.24.96 1.64 1.66c.4.71.59 1.53.59 2.47s-.2 1.73-.59 2.45c-.4.72-.94 1.28-1.64 1.68s-1.48.6-2.36.6m0-.54c.77 0 1.45-.18 2.06-.53s1.08-.85 1.42-1.49.51-1.36.51-2.18-.17-1.56-.51-2.19-.82-1.12-1.42-1.47c-.61-.35-1.29-.52-2.04-.52s-1.45.17-2.05.52-1.08.84-1.43 1.47-.53 1.36-.53 2.19.18 1.54.53 2.18.83 1.13 1.43 1.49c.6.35 1.28.53 2.03.53m11.03.54c-.86 0-1.64-.2-2.33-.6s-1.24-.96-1.64-1.67q-.6-1.065-.6-2.46c0-1.395.2-1.75.6-2.46.4-.7.95-1.26 1.64-1.67s1.47-.61 2.33-.61 1.6.2 2.27.59c.67.4 1.2.95 1.59 1.66s.58 1.54.58 2.48-.2 1.76-.58 2.48c-.39.72-.92 1.28-1.59 1.67s-1.43.58-2.27.58Zm.02-.54c.77 0 1.45-.18 2.05-.53s1.07-.85 1.42-1.49.52-1.36.52-2.18-.17-1.56-.52-2.19a3.8 3.8 0 0 0-1.42-1.47c-.6-.35-1.28-.52-2.05-.52s-1.43.17-2.03.52-1.08.84-1.43 1.47-.53 1.36-.53 2.19.18 1.54.53 2.18.83 1.13 1.43 1.49c.6.35 1.28.53 2.03.53m4.01.49v-3.28l.16-1.42-.18-1.42v-7.24h.59v13.36h-.58Zm8.34.05c-.8 0-1.49-.15-2.07-.44s-1.02-.73-1.33-1.31-.47-1.3-.47-2.15v-5.49h.59v5.45c0 1.12.29 1.96.86 2.54.58.58 1.39.86 2.43.86.74 0 1.39-.16 1.93-.48s.96-.76 1.25-1.34.43-1.24.43-2v-5.04h.59v9.34h-.58v-2.61l.07.16a3.55 3.55 0 0 1-1.37 1.83c-.65.45-1.43.67-2.36.67Zm11.8 0c-.89 0-1.68-.2-2.38-.6s-1.25-.96-1.66-1.67q-.6-1.065-.6-2.46c0-1.395.2-1.74.6-2.46.4-.71.95-1.27 1.66-1.67.7-.4 1.5-.6 2.38-.6.71 0 1.36.13 1.96.41.6.27 1.1.67 1.49 1.2l-.45.38c-.35-.49-.78-.85-1.3-1.08s-1.09-.34-1.7-.34c-.77 0-1.46.17-2.07.52s-1.09.84-1.45 1.47c-.35.63-.53 1.36-.53 2.19s.18 1.56.53 2.19.84 1.12 1.45 1.48c.61.35 1.3.53 2.07.53.61 0 1.18-.12 1.7-.35s.96-.59 1.3-1.07l.45.36c-.4.54-.89.94-1.49 1.21-.6.26-1.25.4-1.96.4Zm9.71 0c-.89 0-1.68-.2-2.38-.6s-1.25-.96-1.66-1.67q-.6-1.065-.6-2.46c0-1.395.2-1.74.6-2.46.4-.71.95-1.27 1.66-1.67.7-.4 1.5-.6 2.38-.6.71 0 1.36.13 1.96.41.6.27 1.1.67 1.49 1.2l-.45.38c-.35-.49-.78-.85-1.3-1.08s-1.09-.34-1.7-.34c-.77 0-1.46.17-2.07.52s-1.09.84-1.45 1.47c-.35.63-.53 1.36-.53 2.19s.18 1.56.53 2.19.84 1.12 1.45 1.48c.61.35 1.3.53 2.07.53.61 0 1.18-.12 1.7-.35s.96-.59 1.3-1.07l.45.36c-.4.54-.89.94-1.49 1.21-.6.26-1.25.4-1.96.4Zm6.42-11.85c-.16 0-.29-.06-.41-.18s-.18-.25-.18-.4q0-.255.18-.42c.18-.165.26-.17.41-.17.17 0 .31.06.42.17s.17.25.17.41-.06.29-.17.41-.25.18-.42.18m-.29 11.79v-9.34h.59v9.34zm8.12.06c-.88 0-1.66-.2-2.35-.6s-1.24-.96-1.64-1.67q-.6-1.065-.6-2.46c0-1.395.2-1.74.6-2.45s.95-1.27 1.64-1.67 1.47-.61 2.35-.61 1.66.2 2.36.6 1.24.96 1.64 1.66c.4.71.59 1.53.59 2.47s-.2 1.73-.59 2.45c-.4.72-.94 1.28-1.64 1.68s-1.48.6-2.36.6m0-.54c.77 0 1.45-.18 2.06-.53s1.08-.85 1.42-1.49.51-1.36.51-2.18-.17-1.56-.51-2.19-.82-1.12-1.42-1.47c-.61-.35-1.29-.52-2.04-.52s-1.45.17-2.05.52-1.08.84-1.43 1.47-.53 1.36-.53 2.19.18 1.54.53 2.18.83 1.13 1.43 1.49c.6.35 1.28.53 2.03.53m-.9-10.44 2.5-2.03h.97l-2.75 2.03zm12.83 1.51c.77 0 1.43.15 1.99.45s.99.74 1.3 1.32.47 1.3.47 2.15v5.49h-.59v-5.45c0-1.12-.28-1.96-.85-2.54-.56-.58-1.36-.86-2.38-.86-.78 0-1.45.16-2.02.47-.56.31-1 .76-1.3 1.33-.3.58-.45 1.25-.45 2.02v5.04h-.59v-9.34h.58v2.63l-.07-.16c.29-.78.76-1.4 1.43-1.85.67-.46 1.49-.68 2.48-.68Zm15.72 9.47c-.86 0-1.64-.2-2.33-.6s-1.24-.96-1.64-1.67q-.6-1.065-.6-2.46c0-1.395.2-1.75.6-2.46.4-.7.95-1.26 1.64-1.67s1.47-.61 2.33-.61 1.6.2 2.27.59c.67.4 1.2.95 1.59 1.66s.58 1.54.58 2.48-.2 1.76-.58 2.48c-.39.72-.92 1.28-1.59 1.67s-1.43.58-2.27.58Zm.02-.54c.77 0 1.45-.18 2.05-.53s1.07-.85 1.42-1.49.52-1.36.52-2.18-.17-1.56-.52-2.19a3.8 3.8 0 0 0-1.42-1.47c-.6-.35-1.28-.52-2.05-.52s-1.43.17-2.03.52-1.08.84-1.43 1.47-.53 1.36-.53 2.19.18 1.54.53 2.18.83 1.13 1.43 1.49c.6.35 1.28.53 2.03.53m4.01.49v-3.28l.16-1.42-.18-1.42v-7.24h.59v13.36h-.58Zm8.24.05c-.92 0-1.74-.2-2.45-.6s-1.27-.96-1.67-1.68c-.41-.72-.61-1.54-.61-2.45s.19-1.74.57-2.45.9-1.27 1.57-1.67 1.42-.61 2.26-.61 1.58.2 2.24.59c.67.4 1.19.95 1.57 1.65s.57 1.51.57 2.42v.16h-8.37v-.49h8.05l-.23.29c0-.78-.17-1.48-.49-2.1-.33-.62-.78-1.1-1.36-1.46-.58-.35-1.23-.53-1.96-.53s-1.39.18-1.96.53c-.58.35-1.03.84-1.36 1.46s-.5 1.32-.5 2.12v.11c0 .82.18 1.54.54 2.17s.85 1.12 1.48 1.48c.62.35 1.34.53 2.14.53.61 0 1.19-.11 1.74-.34s1-.58 1.36-1.04l.38.4c-.42.5-.93.88-1.54 1.14s-1.25.39-1.94.39Zm13.88-.06-4.27-9.34h.65l4.05 8.98h-.27l4.07-8.98h.63l-4.27 9.34zm7.24-11.79c-.16 0-.29-.06-.41-.18s-.18-.25-.18-.4q0-.255.18-.42c.18-.165.26-.17.41-.17.17 0 .31.06.42.17s.17.25.17.41-.06.29-.17.41-.25.18-.42.18m-.29 11.79v-9.34h.59v9.34zm8.1.06c-.86 0-1.64-.2-2.33-.6s-1.24-.96-1.64-1.67q-.6-1.065-.6-2.46c0-1.395.2-1.75.6-2.46.4-.7.95-1.26 1.64-1.67s1.47-.61 2.33-.61 1.6.2 2.27.59c.67.4 1.2.95 1.59 1.66s.58 1.54.58 2.48-.2 1.76-.58 2.48c-.39.72-.92 1.28-1.59 1.67s-1.43.58-2.27.58Zm.02-.54c.77 0 1.45-.18 2.05-.53s1.07-.85 1.42-1.49.52-1.36.52-2.18-.17-1.56-.52-2.19a3.8 3.8 0 0 0-1.42-1.47c-.6-.35-1.28-.52-2.05-.52s-1.43.17-2.03.52-1.08.84-1.43 1.47-.53 1.36-.53 2.19.18 1.54.53 2.18.83 1.13 1.43 1.49c.6.35 1.28.53 2.03.53m4.01.49v-3.28l.16-1.42-.18-1.42v-7.24h.59v13.36h-.58Zm8.24.05c-.92 0-1.74-.2-2.45-.6s-1.27-.96-1.67-1.68c-.41-.72-.61-1.54-.61-2.45s.19-1.74.57-2.45.9-1.27 1.57-1.67 1.42-.61 2.26-.61 1.58.2 2.24.59c.67.4 1.19.95 1.57 1.65s.57 1.51.57 2.42v.16h-8.37v-.49h8.05l-.23.29c0-.78-.17-1.48-.49-2.1-.33-.62-.78-1.1-1.36-1.46-.58-.35-1.23-.53-1.96-.53s-1.39.18-1.96.53c-.58.35-1.03.84-1.36 1.46s-.5 1.32-.5 2.12v.11c0 .82.18 1.54.54 2.17s.85 1.12 1.48 1.48c.62.35 1.34.53 2.14.53.61 0 1.19-.11 1.74-.34s1-.58 1.36-1.04l.38.4c-.42.5-.93.88-1.54 1.14s-1.25.39-1.94.39Zm9.22 0c-.77 0-1.49-.12-2.16-.35s-1.18-.53-1.53-.89l.29-.47c.35.31.82.59 1.42.83s1.27.36 2 .36c1.04 0 1.8-.18 2.26-.54s.69-.83.69-1.4c0-.42-.11-.75-.34-.99s-.53-.43-.9-.56-.78-.24-1.23-.32-.9-.17-1.36-.27-.87-.24-1.24-.41-.67-.42-.9-.73-.34-.73-.34-1.24c0-.44.12-.85.37-1.22s.62-.67 1.12-.91c.5-.23 1.15-.35 1.93-.35.58 0 1.15.09 1.74.26.58.17 1.05.41 1.4.69l-.31.47c-.37-.3-.81-.52-1.31-.67-.5-.14-1.01-.22-1.54-.22-.97 0-1.68.19-2.12.56s-.67.83-.67 1.37c0 .43.11.78.34 1.04s.53.45.9.58.78.24 1.23.32q.675.12 1.35.27c.45.1.86.23 1.23.4s.67.4.9.7.34.71.34 1.22c0 .48-.13.91-.4 1.29s-.67.67-1.19.87-1.18.31-1.97.31m5.29 2.48.63-2.83.04.34c-.18 0-.33-.06-.45-.17q-.18-.165-.18-.42c0-.255.06-.31.17-.42s.25-.17.42-.17c.18 0 .32.06.43.19s.16.26.16.41c0 .07 0 .14-.02.22-.01.07-.02.14-.04.2-.01.06-.03.14-.05.25l-.65 2.41h-.47Zm7.29-11.36v-.52h5.44v.52zm1.76 8.82v-11c0-.73.21-1.32.62-1.75q.615-.66 1.77-.66.525 0 1.02.15c.495.15.61.26.84.48l-.31.45c-.19-.19-.42-.33-.68-.42s-.54-.13-.83-.13c-.6 0-1.06.17-1.37.5-.31.34-.47.82-.47 1.46v10.93h-.59Zm5.57 0v-9.34h.58v2.57l-.05-.16q.375-1.17 1.32-1.83c.945-.66 1.42-.66 2.37-.66v.59h-.16c-1.08 0-1.93.34-2.54 1.03-.61.68-.92 1.63-.92 2.83v4.97h-.59Zm10.74.06c-.8 0-1.49-.15-2.07-.44s-1.02-.73-1.33-1.31-.47-1.3-.47-2.15v-5.49h.59v5.45c0 1.12.29 1.96.86 2.54.58.58 1.39.86 2.43.86.74 0 1.39-.16 1.93-.48s.96-.76 1.25-1.34.43-1.24.43-2v-5.04h.59v9.34h-.58v-2.61l.07.16a3.55 3.55 0 0 1-1.37 1.83c-.65.45-1.43.67-2.36.67Zm6.63-8.88v-.52h5.44v.52zm4.14 8.87c-.77 0-1.36-.22-1.76-.65-.41-.43-.61-1.01-.61-1.75v-9.05h.59v8.96c0 .64.16 1.12.47 1.46s.77.5 1.37.5 1.12-.19 1.51-.56l.31.43c-.23.22-.51.38-.85.49s-.68.16-1.03.16Zm6.98.01c-.71 0-1.31-.11-1.81-.32q-.75-.33-1.14-.93c-.26-.4-.4-.86-.4-1.38 0-.46.11-.88.32-1.27.22-.39.57-.7 1.07-.94.5-.23 1.17-.35 2.01-.35h3.62v.49h-3.62c-1.02 0-1.74.19-2.17.58-.43.38-.64.87-.64 1.46 0 .66.25 1.19.74 1.58s1.18.58 2.05.58 1.58-.19 2.14-.58.99-.95 1.28-1.67l.2.4c-.24.71-.67 1.28-1.3 1.71-.62.43-1.41.65-2.36.65Zm3.47-.05v-2.18l-.02-.32v-3.55c0-.92-.25-1.63-.74-2.11s-1.21-.72-2.14-.72a4.9 4.9 0 0 0-3.33 1.26l-.32-.43c.44-.42.99-.75 1.64-1s1.33-.37 2.03-.37c1.12 0 1.97.29 2.57.86.59.57.89 1.41.89 2.51v6.05zm6.72.05c-.77 0-1.49-.12-2.16-.35s-1.18-.53-1.53-.89l.29-.47c.35.31.82.59 1.42.83s1.27.36 2 .36c1.04 0 1.8-.18 2.26-.54s.69-.83.69-1.4c0-.42-.11-.75-.34-.99s-.53-.43-.9-.56-.78-.24-1.23-.32-.9-.17-1.36-.27-.87-.24-1.24-.41-.67-.42-.9-.73-.34-.73-.34-1.24c0-.44.12-.85.37-1.22s.62-.67 1.12-.91c.5-.23 1.15-.35 1.93-.35.58 0 1.15.09 1.74.26.58.17 1.05.41 1.4.69l-.31.47c-.37-.3-.81-.52-1.31-.67-.5-.14-1.01-.22-1.54-.22-.97 0-1.68.19-2.12.56s-.67.83-.67 1.37c0 .43.11.78.34 1.04s.53.45.9.58.78.24 1.23.32q.675.12 1.35.27c.45.1.86.23 1.23.4s.67.4.9.7.34.71.34 1.22c0 .48-.13.91-.4 1.29s-.67.67-1.19.87-1.18.31-1.97.31M2.75 143.58a3.2 3.2 0 0 1-1.17-.21c-.36-.14-.67-.34-.92-.62l.34-.47c.25.26.52.46.79.58.28.13.59.19.95.19.46 0 .86-.13 1.21-.38s.67-.71.97-1.39l.68-1.48.09-.14 4.07-8.98h.63l-4.9 10.75c-.24.53-.5.95-.78 1.27s-.58.54-.91.67-.68.2-1.06.2Zm2.88-3.33-4.36-9.56h.65l4.05 8.95zm13.77-.22-4.27-9.34h.65l4.05 8.98h-.27l4.07-8.98h.63l-4.27 9.34zm10.35.06c-.92 0-1.74-.2-2.45-.6s-1.27-.96-1.67-1.68c-.41-.72-.61-1.54-.61-2.45s.19-1.74.57-2.45.9-1.27 1.57-1.67 1.42-.61 2.26-.61 1.58.2 2.24.59c.67.4 1.19.95 1.57 1.65s.57 1.51.57 2.42v.16h-8.37v-.49h8.05l-.23.29c0-.78-.17-1.48-.49-2.1-.33-.62-.78-1.1-1.36-1.46-.58-.35-1.23-.53-1.96-.53s-1.39.18-1.96.53c-.58.35-1.03.84-1.36 1.46s-.5 1.32-.5 2.12v.11c0 .82.18 1.54.54 2.17s.85 1.12 1.48 1.48c.62.35 1.34.53 2.14.53.61 0 1.19-.11 1.74-.34s1-.58 1.36-1.04l.38.4c-.42.5-.93.88-1.54 1.14s-1.25.39-1.94.39Zm6.97-.06v-9.34h.58v2.57l-.05-.16q.375-1.17 1.32-1.83c.945-.66 1.42-.66 2.37-.66v.59h-.16c-1.08 0-1.93.34-2.54 1.03-.61.68-.92 1.63-.92 2.83v4.97h-.59Zm10.24.06c-.86 0-1.64-.2-2.33-.6s-1.24-.96-1.64-1.67q-.6-1.065-.6-2.46c0-1.395.2-1.75.6-2.46.4-.7.95-1.26 1.64-1.67s1.47-.61 2.33-.61 1.6.2 2.27.59c.67.4 1.2.95 1.59 1.66s.58 1.54.58 2.48-.2 1.76-.58 2.48c-.39.72-.92 1.28-1.59 1.67s-1.43.58-2.27.58Zm.02-.54c.77 0 1.45-.18 2.05-.53s1.07-.85 1.42-1.49.52-1.36.52-2.18-.17-1.56-.52-2.19a3.8 3.8 0 0 0-1.42-1.47c-.6-.35-1.28-.52-2.05-.52s-1.43.17-2.03.52-1.08.84-1.43 1.47-.53 1.36-.53 2.19.18 1.54.53 2.18.83 1.13 1.43 1.49c.6.35 1.28.53 2.03.53m4.01.49v-3.28l.16-1.42-.18-1.42v-7.24h.59v13.36h-.58Zm8.34.05c-.8 0-1.49-.15-2.07-.44s-1.02-.73-1.33-1.31-.47-1.3-.47-2.15v-5.49h.59v5.45c0 1.12.29 1.96.86 2.54.58.58 1.39.86 2.43.86.74 0 1.39-.16 1.93-.48s.96-.76 1.25-1.34.43-1.24.43-2v-5.04h.59v9.34h-.58v-2.61l.07.16a3.55 3.55 0 0 1-1.37 1.83c-.65.45-1.43.67-2.36.67Zm8.22-.06v-9.34h.58v2.57l-.05-.16q.375-1.17 1.32-1.83c.945-.66 1.42-.66 2.37-.66v.59h-.16c-1.08 0-1.93.34-2.54 1.03-.61.68-.92 1.63-.92 2.83v4.97h-.59Zm8.57.06c-.71 0-1.31-.11-1.81-.32q-.75-.33-1.14-.93c-.26-.4-.4-.86-.4-1.38 0-.46.11-.88.32-1.27.22-.39.57-.7 1.07-.94.5-.23 1.17-.35 2.01-.35h3.62v.49h-3.62c-1.02 0-1.74.19-2.17.58-.43.38-.64.87-.64 1.46 0 .66.25 1.19.74 1.58s1.18.58 2.05.58 1.58-.19 2.14-.58.99-.95 1.28-1.67l.2.4c-.24.71-.67 1.28-1.3 1.71-.62.43-1.41.65-2.36.65Zm3.47-.05v-2.18l-.02-.32v-3.55c0-.92-.25-1.63-.74-2.11s-1.21-.72-2.14-.72a4.9 4.9 0 0 0-3.33 1.26l-.32-.43c.44-.42.99-.75 1.64-1s1.33-.37 2.03-.37c1.12 0 1.97.29 2.57.86.59.57.89 1.41.89 2.51v6.05zm6.72.05c-.77 0-1.49-.12-2.16-.35s-1.18-.53-1.53-.89l.29-.47c.35.31.82.59 1.42.83s1.27.36 2 .36c1.04 0 1.8-.18 2.26-.54s.69-.83.69-1.4c0-.42-.11-.75-.34-.99s-.53-.43-.9-.56-.78-.24-1.23-.32-.9-.17-1.36-.27-.87-.24-1.24-.41-.67-.42-.9-.73-.34-.73-.34-1.24c0-.44.12-.85.37-1.22s.62-.67 1.12-.91c.5-.23 1.15-.35 1.93-.35.58 0 1.15.09 1.74.26.58.17 1.05.41 1.4.69l-.31.47c-.37-.3-.81-.52-1.31-.67-.5-.14-1.01-.22-1.54-.22-.97 0-1.68.19-2.12.56s-.67.83-.67 1.37c0 .43.11.78.34 1.04s.53.45.9.58.78.24 1.23.32q.675.12 1.35.27c.45.1.86.23 1.23.4s.67.4.9.7.34.71.34 1.22c0 .48-.13.91-.4 1.29s-.67.67-1.19.87-1.18.31-1.97.31m5.92 0c-.16 0-.29-.06-.41-.17q-.18-.165-.18-.42c0-.255.06-.31.18-.42s.26-.17.41-.17c.17 0 .31.06.42.17s.17.25.17.42-.06.31-.17.42-.25.17-.42.17"/></g></svg>